<?xml version="1.0" encoding="UTF-8"?><svg id="_레이어_1" xmlns="http://www.w3.org/2000/svg" xmlns:xlink="http://www.w3.org/1999/xlink" viewBox="0 0 1565.27 1565.27"><defs><style>.cls-1{clip-path:url(#clippath-11);}.cls-2,.cls-3,.cls-4,.cls-5,.cls-6,.cls-7,.cls-8,.cls-9,.cls-10,.cls-11{stroke:#13519c;}.cls-2,.cls-4,.cls-5,.cls-6,.cls-10,.cls-11{stroke-miterlimit:10;}.cls-2,.cls-4,.cls-8,.cls-9{stroke-width:3px;}.cls-2,.cls-7{fill:none;}.cls-12{fill:#43499c;}.cls-13{clip-path:url(#clippath-2);}.cls-3{fill:#9ac5e9;}.cls-3,.cls-5,.cls-6,.cls-7,.cls-10,.cls-11{stroke-width:5px;}.cls-3,.cls-7,.cls-8,.cls-9{stroke-linecap:round;stroke-linejoin:round;}.cls-14{clip-path:url(#clippath-6);}.cls-4{fill:#f18d3c;}.cls-5{fill:#2a99d7;}.cls-15{clip-path:url(#clippath-7);}.cls-16{clip-path:url(#clippath-1);}.cls-17{clip-path:url(#clippath-4);}.cls-6{fill:#9cc9e6;}.cls-8{fill:#bbc8e7;}.cls-9{fill:#f29966;}.cls-18{fill:#13519c;}.cls-19{fill:#c14393;}.cls-20{clip-path:url(#clippath-9);}.cls-10{fill:#058b8a;}.cls-21{clip-path:url(#clippath);}.cls-11,.cls-22{fill:#fff4b5;}.cls-23{clip-path:url(#clippath-3);}.cls-24{clip-path:url(#clippath-8);}.cls-25{clip-path:url(#clippath-5);}.cls-26{clip-path:url(#clippath-10);}.cls-27{fill:#6ca4ca;}.cls-28{fill:#b1d9e1;}</style><clipPath id="clippath"><ellipse class="cls-2" cx="723.85" cy="1222.61" rx="20.35" ry="10.45"/></clipPath><clipPath id="clippath-1"><ellipse class="cls-2" cx="841.42" cy="1222.61" rx="20.35" ry="10.45"/></clipPath><clipPath id="clippath-2"><ellipse class="cls-2" cx="723.85" cy="342.66" rx="20.35" ry="10.45"/></clipPath><clipPath id="clippath-3"><ellipse class="cls-2" cx="841.42" cy="342.66" rx="20.35" ry="10.45"/></clipPath><clipPath id="clippath-4"><ellipse class="cls-2" cx="723.85" cy="1222.61" rx="20.35" ry="10.45"/></clipPath><clipPath id="clippath-5"><ellipse class="cls-2" cx="841.42" cy="1222.61" rx="20.35" ry="10.45"/></clipPath><clipPath id="clippath-6"><ellipse class="cls-2" cx="342.66" cy="723.85" rx="10.45" ry="20.35"/></clipPath><clipPath id="clippath-7"><ellipse class="cls-2" cx="342.66" cy="841.42" rx="10.45" ry="20.35"/></clipPath><clipPath id="clippath-8"><ellipse class="cls-2" cx="1222.61" cy="723.85" rx="10.45" ry="20.35"/></clipPath><clipPath id="clippath-9"><ellipse class="cls-2" cx="1222.61" cy="841.42" rx="10.45" ry="20.35"/></clipPath><clipPath id="clippath-10"><ellipse class="cls-2" cx="342.66" cy="723.66" rx="10.45" ry="20.35"/></clipPath><clipPath id="clippath-11"><ellipse class="cls-2" cx="342.66" cy="841.22" rx="10.45" ry="20.35"/></clipPath></defs><g><g><g><rect class="cls-10" x="717.99" y="975.64" width="11.83" height="146.77"/><g><path class="cls-10" d="M723.9,1100.91h0c7.34,0,13.29,5.95,13.29,13.29l4.38,41.08c0,7.34-10.33,13.29-17.67,13.29h0c-7.34,0-17.67-5.95-17.67-13.29l4.38-41.08c0-7.34,5.95-13.29,13.29-13.29Z"/><g><circle class="cls-4" cx="723.9" cy="1186.3" r="51.16"/><g><ellipse class="cls-19" cx="723.9" cy="1222.61" rx="20.85" ry="10.95"/><path class="cls-18" d="M723.9,1212.16c11.24,0,20.35,4.68,20.35,10.45s-9.11,10.45-20.35,10.45-20.35-4.68-20.35-10.45,9.11-10.45,20.35-10.45m0-1c-11.97,0-21.35,5.03-21.35,11.45s9.38,11.45,21.35,11.45,21.35-5.03,21.35-11.45-9.38-11.45-21.35-11.45h0Z"/></g><g><g class="cls-21"><ellipse class="cls-9" cx="723.9" cy="1217.11" rx="20.35" ry="10.45"/></g><ellipse class="cls-2" cx="723.85" cy="1222.61" rx="20.35" ry="10.45"/></g></g></g></g><g><rect class="cls-10" x="835.45" y="975.64" width="11.83" height="146.77"/><g><path class="cls-10" d="M841.37,1100.91h0c-7.34,0-13.29,5.95-13.29,13.29l-4.38,41.08c0,7.34,10.33,13.29,17.67,13.29h0c7.34,0,17.67-5.95,17.67-13.29l-4.38-41.08c0-7.34-5.95-13.29-13.29-13.29Z"/><g><circle class="cls-4" cx="841.37" cy="1186.3" r="51.16"/><g><path class="cls-19" d="M841.37,1233.56c-11.5,0-20.85-4.91-20.85-10.95s9.35-10.95,20.85-10.95,20.85,4.91,20.85,10.95-9.35,10.95-20.85,10.95Z"/><path class="cls-18" d="M841.37,1212.16c11.24,0,20.35,4.68,20.35,10.45s-9.11,10.45-20.35,10.45-20.35-4.68-20.35-10.45,9.11-10.45,20.35-10.45m0-1c-11.97,0-21.35,5.03-21.35,11.45s9.38,11.45,21.35,11.45,21.35-5.03,21.35-11.45-9.38-11.45-21.35-11.45h0Z"/></g><g><g class="cls-16"><ellipse class="cls-9" cx="841.37" cy="1217.11" rx="20.35" ry="10.45"/></g><ellipse class="cls-2" cx="841.42" cy="1222.61" rx="20.35" ry="10.45"/></g></g></g></g></g><g><g><rect class="cls-10" x="717.99" y="442.86" width="11.83" height="146.77"/><g><path class="cls-10" d="M723.9,464.36h0c7.34,0,13.29-5.95,13.29-13.29l4.38-41.08c0-7.34-10.33-13.29-17.67-13.29h0c-7.34,0-17.67,5.95-17.67,13.29l4.38,41.08c0,7.34,5.95,13.29,13.29,13.29Z"/><g><circle class="cls-5" cx="723.9" cy="378.97" r="51.16"/><g><ellipse class="cls-12" cx="723.9" cy="342.66" rx="20.85" ry="10.95"/><path class="cls-18" d="M723.9,332.21c11.24,0,20.35,4.68,20.35,10.45s-9.11,10.45-20.35,10.45-20.35-4.68-20.35-10.45,9.11-10.45,20.35-10.45m0-1c-11.97,0-21.35,5.03-21.35,11.45s9.38,11.45,21.35,11.45,21.35-5.03,21.35-11.45-9.38-11.45-21.35-11.45h0Z"/></g><g><g class="cls-13"><ellipse class="cls-8" cx="723.9" cy="348.16" rx="20.35" ry="10.45"/></g><ellipse class="cls-2" cx="723.85" cy="342.66" rx="20.35" ry="10.45"/></g></g></g></g><g><rect class="cls-10" x="835.45" y="442.86" width="11.83" height="146.77"/><g><path class="cls-10" d="M841.37,464.36h0c-7.34,0-13.29-5.95-13.29-13.29l-4.38-41.08c0-7.34,10.33-13.29,17.67-13.29h0c7.34,0,17.67,5.95,17.67,13.29l-4.38,41.08c0,7.34-5.95,13.29-13.29,13.29Z"/><g><circle class="cls-5" cx="841.37" cy="378.97" r="51.16"/><g><ellipse class="cls-12" cx="841.42" cy="342.66" rx="20.85" ry="10.95"/><path class="cls-18" d="M841.42,332.21c11.24,0,20.35,4.68,20.35,10.45s-9.11,10.45-20.35,10.45-20.35-4.68-20.35-10.45,9.11-10.45,20.35-10.45m0-1c-11.97,0-21.35,5.03-21.35,11.45s9.38,11.45,21.35,11.45,21.35-5.03,21.35-11.45-9.38-11.45-21.35-11.45h0Z"/></g><g><g class="cls-23"><ellipse class="cls-8" cx="841.37" cy="348.16" rx="20.35" ry="10.45"/></g><ellipse class="cls-2" cx="841.42" cy="342.66" rx="20.35" ry="10.45"/></g></g></g></g></g><g><g><rect class="cls-10" x="717.99" y="975.64" width="11.83" height="146.77"/><g><path class="cls-10" d="M723.9,1100.91h0c7.34,0,13.29,5.95,13.29,13.29l4.38,41.08c0,7.34-10.33,13.29-17.67,13.29h0c-7.34,0-17.67-5.95-17.67-13.29l4.38-41.08c0-7.34,5.95-13.29,13.29-13.29Z"/><g><circle class="cls-5" cx="723.9" cy="1186.3" r="51.16"/><g><ellipse class="cls-12" cx="723.9" cy="1222.61" rx="20.85" ry="10.95"/><path class="cls-18" d="M723.9,1212.16c11.24,0,20.35,4.68,20.35,10.45s-9.11,10.45-20.35,10.45-20.35-4.68-20.35-10.45,9.11-10.45,20.35-10.45m0-1c-11.97,0-21.35,5.03-21.35,11.45s9.38,11.45,21.35,11.45,21.35-5.03,21.35-11.45-9.38-11.45-21.35-11.45h0Z"/></g><g><g class="cls-17"><ellipse class="cls-8" cx="723.9" cy="1217.11" rx="20.35" ry="10.45"/></g><ellipse class="cls-2" cx="723.85" cy="1222.61" rx="20.35" ry="10.45"/></g></g></g></g><g><rect class="cls-10" x="835.45" y="975.64" width="11.83" height="146.77"/><g><path class="cls-10" d="M841.37,1100.91h0c-7.34,0-13.29,5.95-13.29,13.29l-4.38,41.08c0,7.34,10.33,13.29,17.67,13.29h0c7.34,0,17.67-5.95,17.67-13.29l-4.38-41.08c0-7.34-5.95-13.29-13.29-13.29Z"/><g><circle class="cls-5" cx="841.37" cy="1186.3" r="51.16"/><g><ellipse class="cls-12" cx="841.42" cy="1222.61" rx="20.85" ry="10.95"/><path class="cls-18" d="M841.42,1212.16c11.24,0,20.35,4.68,20.35,10.45s-9.11,10.45-20.35,10.45-20.35-4.68-20.35-10.45,9.11-10.45,20.35-10.45m0-1c-11.97,0-21.35,5.03-21.35,11.45s9.38,11.45,21.35,11.45,21.35-5.03,21.35-11.45-9.38-11.45-21.35-11.45h0Z"/></g><g><g class="cls-25"><ellipse class="cls-8" cx="841.37" cy="1217.11" rx="20.35" ry="10.45"/></g><ellipse class="cls-2" cx="841.42" cy="1222.61" rx="20.35" ry="10.45"/></g></g></g></g></g></g><g><g><g><rect class="cls-10" x="442.86" y="717.99" width="146.77" height="11.83"/><g><path class="cls-10" d="M464.36,723.9h0c0,7.34-5.95,13.29-13.29,13.29l-41.08,4.38c-7.34,0-13.29-10.33-13.29-17.67h0c0-7.34,5.95-17.67,13.29-17.67l41.08,4.38c7.34,0,13.29,5.95,13.29,13.29Z"/><g><circle class="cls-4" cx="378.97" cy="723.9" r="51.16"/><g><ellipse class="cls-19" cx="342.66" cy="723.9" rx="10.95" ry="20.85"/><path class="cls-18" d="M342.66,703.55c5.77,0,10.45,9.11,10.45,20.35s-4.68,20.35-10.45,20.35-10.45-9.11-10.45-20.35,4.68-20.35,10.45-20.35m0-1c-6.42,0-11.45,9.38-11.45,21.35s5.03,21.35,11.45,21.35,11.45-9.38,11.45-21.35-5.03-21.35-11.45-21.35h0Z"/></g><g><g class="cls-14"><ellipse class="cls-9" cx="348.16" cy="723.9" rx="10.45" ry="20.35"/></g><ellipse class="cls-2" cx="342.66" cy="723.85" rx="10.45" ry="20.35"/></g></g></g></g><g><rect class="cls-10" x="442.86" y="835.45" width="146.77" height="11.83"/><g><path class="cls-10" d="M464.36,841.37h0c0-7.34-5.95-13.29-13.29-13.29l-41.08-4.38c-7.34,0-13.29,10.33-13.29,17.67h0c0,7.34,5.95,17.67,13.29,17.67l41.08-4.38c7.34,0,13.29-5.95,13.29-13.29Z"/><g><circle class="cls-4" cx="378.97" cy="841.37" r="51.16"/><g><ellipse class="cls-19" cx="342.66" cy="841.37" rx="10.95" ry="20.85"/><path class="cls-18" d="M342.66,821.01c5.77,0,10.45,9.11,10.45,20.35s-4.68,20.35-10.45,20.35-10.45-9.11-10.45-20.35,4.68-20.35,10.45-20.35m0-1c-6.42,0-11.45,9.38-11.45,21.35s5.03,21.35,11.45,21.35,11.45-9.38,11.45-21.35-5.03-21.35-11.45-21.35h0Z"/></g><g><g class="cls-15"><ellipse class="cls-9" cx="348.16" cy="841.37" rx="10.45" ry="20.35"/></g><ellipse class="cls-2" cx="342.66" cy="841.42" rx="10.45" ry="20.35"/></g></g></g></g></g><g><g><rect class="cls-10" x="975.64" y="717.99" width="146.77" height="11.83"/><g><path class="cls-10" d="M1100.91,723.9h0c0,7.34,5.95,13.29,13.29,13.29l41.08,4.38c7.34,0,13.29-10.33,13.29-17.67h0c0-7.34-5.95-17.67-13.29-17.67l-41.08,4.38c-7.34,0-13.29,5.95-13.29,13.29Z"/><g><circle class="cls-5" cx="1186.3" cy="723.9" r="51.16"/><g><ellipse class="cls-12" cx="1222.61" cy="723.9" rx="10.95" ry="20.85"/><path class="cls-18" d="M1222.61,703.55c5.77,0,10.45,9.11,10.45,20.35s-4.68,20.35-10.45,20.35-10.45-9.11-10.45-20.35,4.68-20.35,10.45-20.35m0-1c-6.42,0-11.45,9.38-11.45,21.35s5.03,21.35,11.45,21.35,11.45-9.38,11.45-21.35-5.03-21.35-11.45-21.35h0Z"/></g><g><g class="cls-24"><ellipse class="cls-8" cx="1217.11" cy="723.9" rx="10.45" ry="20.35"/></g><ellipse class="cls-2" cx="1222.61" cy="723.85" rx="10.45" ry="20.35"/></g></g></g></g><g><rect class="cls-10" x="975.64" y="835.45" width="146.77" height="11.83"/><g><path class="cls-10" d="M1100.91,841.37h0c0-7.34,5.95-13.29,13.29-13.29l41.08-4.38c7.34,0,13.29,10.33,13.29,17.67h0c0,7.34-5.95,17.67-13.29,17.67l-41.08-4.38c-7.34,0-13.29-5.95-13.29-13.29Z"/><g><circle class="cls-5" cx="1186.3" cy="841.37" r="51.16"/><g><ellipse class="cls-12" cx="1222.61" cy="841.37" rx="10.95" ry="20.85"/><path class="cls-18" d="M1222.61,821.01c5.77,0,10.45,9.11,10.45,20.35s-4.68,20.35-10.45,20.35-10.45-9.11-10.45-20.35,4.68-20.35,10.45-20.35m0-1c-6.42,0-11.45,9.38-11.45,21.35s5.03,21.35,11.45,21.35,11.45-9.38,11.45-21.35-5.03-21.35-11.45-21.35h0Z"/></g><g><g class="cls-20"><ellipse class="cls-8" cx="1217.11" cy="841.37" rx="10.45" ry="20.35"/></g><ellipse class="cls-2" cx="1222.61" cy="841.42" rx="10.45" ry="20.35"/></g></g></g></g></g><g><g><rect class="cls-10" x="442.86" y="717.79" width="146.77" height="11.83"/><g><path class="cls-10" d="M464.36,723.71h0c0,7.34-5.95,13.29-13.29,13.29l-41.08,4.38c-7.34,0-13.29-10.33-13.29-17.67h0c0-7.34,5.95-17.67,13.29-17.67l41.08,4.38c7.34,0,13.29,5.95,13.29,13.29Z"/><g><circle class="cls-5" cx="378.97" cy="723.71" r="51.16"/><g><path class="cls-12" d="M342.66,744.56c-6.04,0-10.95-9.35-10.95-20.85s4.91-20.85,10.95-20.85,10.95,9.35,10.95,20.85-4.91,20.85-10.95,20.85Z"/><path class="cls-18" d="M342.66,703.36c5.77,0,10.45,9.11,10.45,20.35s-4.68,20.35-10.45,20.35-10.45-9.11-10.45-20.35,4.68-20.35,10.45-20.35m0-1c-6.42,0-11.45,9.38-11.45,21.35s5.03,21.35,11.45,21.35,11.45-9.38,11.45-21.35-5.03-21.35-11.45-21.35h0Z"/></g><g><g class="cls-26"><ellipse class="cls-8" cx="348.16" cy="723.71" rx="10.45" ry="20.35"/></g><ellipse class="cls-2" cx="342.66" cy="723.66" rx="10.45" ry="20.35"/></g></g></g></g><g><rect class="cls-10" x="442.86" y="835.26" width="146.77" height="11.83"/><g><path class="cls-10" d="M464.36,841.17h0c0-7.34-5.95-13.29-13.29-13.29l-41.08-4.38c-7.34,0-13.29,10.33-13.29,17.67h0c0,7.34,5.95,17.67,13.29,17.67l41.08-4.38c7.34,0,13.29-5.95,13.29-13.29Z"/><g><circle class="cls-5" cx="378.97" cy="841.17" r="51.16"/><g><ellipse class="cls-12" cx="342.66" cy="841.17" rx="10.95" ry="20.85"/><path class="cls-18" d="M342.66,820.82c5.77,0,10.45,9.11,10.45,20.35s-4.68,20.35-10.45,20.35-10.45-9.11-10.45-20.35,4.68-20.35,10.45-20.35m0-1c-6.42,0-11.45,9.38-11.45,21.35s5.03,21.35,11.45,21.35,11.45-9.38,11.45-21.35-5.03-21.35-11.45-21.35h0Z"/></g><g><g class="cls-1"><ellipse class="cls-8" cx="348.16" cy="841.17" rx="10.45" ry="20.35"/></g><ellipse class="cls-2" cx="342.66" cy="841.22" rx="10.45" ry="20.35"/></g></g></g></g></g></g><polygon class="cls-3" points="879.41 771.34 793.92 771.34 793.92 685.86 771.34 685.86 771.34 771.34 685.86 771.34 685.86 793.92 771.34 793.92 771.34 879.41 793.92 879.41 793.92 793.92 879.41 793.92 879.41 771.34"/><g><g><path class="cls-10" d="M782.63,728.47h0c-14.93,0-27.03-12.1-27.03-27.03l-8.91-83.53c0-14.93,21.01-27.03,35.94-27.03h0c14.93,0,35.94,12.1,35.94,27.03l-8.91,83.53c0,14.93-12.1,27.03-27.03,27.03Z"/><g><path class="cls-27" d="M880.24,590.65c55.06,52.06-13.29,94.26-97.6,60.26-84.31,33.99-152.66-8.21-97.6-60.26-55.06-52.06,13.29-94.26,97.6-60.26,84.31-33.99,152.66,8.21,97.6,60.26Z"/><path class="cls-7" d="M880.24,590.65c55.06,52.06-13.29,94.26-97.6,60.26-84.31,33.99-152.66-8.21-97.6-60.26-55.06-52.06,13.29-94.26,97.6-60.26,84.31-33.99,152.66,8.21,97.6,60.26Z"/></g><g><path class="cls-28" d="M880.24,575.73c55.06,52.06-13.29,94.26-97.6,60.26-84.31,33.99-152.66-8.21-97.6-60.26-55.06-52.06,13.29-94.26,97.6-60.26,84.31-33.99,152.66,8.21,97.6,60.26Z"/><path class="cls-7" d="M880.24,575.73c55.06,52.06-13.29,94.26-97.6,60.26-84.31,33.99-152.66-8.21-97.6-60.26-55.06-52.06,13.29-94.26,97.6-60.26,84.31-33.99,152.66,8.21,97.6,60.26Z"/></g><ellipse class="cls-11" cx="782.63" cy="571.73" rx="50.1" ry="19.15"/></g><g><path class="cls-10" d="M782.63,836.8h0c14.93,0,27.03,12.1,27.03,27.03l8.91,83.53c0,14.93-21.01,27.03-35.94,27.03h0c-14.93,0-35.94-12.1-35.94-27.03l8.91-83.53c0-14.93,12.1-27.03,27.03-27.03Z"/><g><path class="cls-27" d="M685.03,974.62c-55.06-52.06,13.29-94.26,97.6-60.26,84.31-33.99,152.66,8.21,97.6,60.26,55.06,52.06-13.29,94.26-97.6,60.26-84.31,33.99-152.66-8.21-97.6-60.26Z"/><path class="cls-7" d="M685.03,974.62c-55.06-52.06,13.29-94.26,97.6-60.26,84.31-33.99,152.66,8.21,97.6,60.26,55.06,52.06-13.29,94.26-97.6,60.26-84.31,33.99-152.66-8.21-97.6-60.26Z"/></g><g><path class="cls-28" d="M685.03,989.54c-55.06-52.06,13.29-94.26,97.6-60.26,84.31-33.99,152.66,8.21,97.6,60.26,55.06,52.06-13.29,94.26-97.6,60.26-84.31,33.99-152.66-8.21-97.6-60.26Z"/><path class="cls-7" d="M685.03,989.54c-55.06-52.06,13.29-94.26,97.6-60.26,84.31-33.99,152.66,8.21,97.6,60.26,55.06,52.06-13.29,94.26-97.6,60.26-84.31,33.99-152.66-8.21-97.6-60.26Z"/></g><ellipse class="cls-11" cx="782.63" cy="993.54" rx="50.1" ry="19.15"/></g><g><path class="cls-10" d="M838.1,782.63h0c0-14.93,12.1-27.03,27.03-27.03l83.53-8.91c14.93,0,27.03,21.01,27.03,35.94h0c0,14.93-12.1,35.94-27.03,35.94l-83.53-8.91c-14.93,0-27.03-12.1-27.03-27.03Z"/><g><path class="cls-27" d="M975.92,880.24c-52.06,55.06-94.26-13.29-60.26-97.6-33.99-84.31,8.21-152.66,60.26-97.6,52.06-55.06,94.26,13.29,60.26,97.6,33.99,84.31-8.21,152.66-60.26,97.6Z"/><path class="cls-7" d="M975.92,880.24c-52.06,55.06-94.26-13.29-60.26-97.6-33.99-84.31,8.21-152.66,60.26-97.6,52.06-55.06,94.26,13.29,60.26,97.6,33.99,84.31-8.21,152.66-60.26,97.6Z"/></g><g><path class="cls-28" d="M990.84,880.24c-52.06,55.06-94.26-13.29-60.26-97.6-33.99-84.31,8.21-152.66,60.26-97.6,52.06-55.06,94.26,13.29,60.26,97.6,33.99,84.31-8.21,152.66-60.26,97.6Z"/><path class="cls-7" d="M990.84,880.24c-52.06,55.06-94.26-13.29-60.26-97.6-33.99-84.31,8.21-152.66,60.26-97.6,52.06-55.06,94.26,13.29,60.26,97.6,33.99,84.31-8.21,152.66-60.26,97.6Z"/></g><ellipse class="cls-11" cx="994.85" cy="782.63" rx="19.15" ry="50.1"/></g><g><path class="cls-10" d="M727.17,782.63h0c0,14.93-12.1,27.03-27.03,27.03l-83.53,8.91c-14.93,0-27.03-21.01-27.03-35.94h0c0-14.93,12.1-35.94,27.03-35.94l83.53,8.91c14.93,0,27.03,12.1,27.03,27.03Z"/><g><path class="cls-27" d="M589.35,685.03c52.06-55.06,94.26,13.29,60.26,97.6,33.99,84.31-8.21,152.66-60.26,97.6-52.06,55.06-94.26-13.29-60.26-97.6-33.99-84.31,8.21-152.66,60.26-97.6Z"/><path class="cls-7" d="M589.35,685.03c52.06-55.06,94.26,13.29,60.26,97.6,33.99,84.31-8.21,152.66-60.26,97.6-52.06,55.06-94.26-13.29-60.26-97.6-33.99-84.31,8.21-152.66,60.26-97.6Z"/></g><g><path class="cls-28" d="M574.43,685.03c52.06-55.06,94.26,13.29,60.26,97.6,33.99,84.31-8.21,152.66-60.26,97.6-52.06,55.06-94.26-13.29-60.26-97.6-33.99-84.31,8.21-152.66,60.26-97.6Z"/><path class="cls-7" d="M574.43,685.03c52.06-55.06,94.26,13.29,60.26,97.6,33.99,84.31-8.21,152.66-60.26,97.6-52.06,55.06-94.26-13.29-60.26-97.6-33.99-84.31,8.21-152.66,60.26-97.6Z"/></g><ellipse class="cls-11" cx="570.42" cy="782.63" rx="19.15" ry="50.1"/></g></g><g><g><path class="cls-22" d="M851.71,782.63c18.84,48.55-20.52,87.91-69.07,69.07-48.55,18.84-87.91-20.52-69.07-69.07-18.84-48.55,20.52-87.91,69.07-69.07,48.55-18.84,87.91,20.52,69.07,69.07Z"/><path class="cls-7" d="M851.71,782.63c18.84,48.55-20.52,87.91-69.07,69.07-48.55,18.84-87.91-20.52-69.07-69.07-18.84-48.55,20.52-87.91,69.07-69.07,48.55-18.84,87.91,20.52,69.07,69.07Z"/></g><circle class="cls-6" cx="782.63" cy="782.63" r="22.58"/></g></svg>