<?xml version="1.0" encoding="utf-8"?>
<!-- Generator: Adobe Illustrator 26.5.0, SVG Export Plug-In . SVG Version: 6.00 Build 0)  -->
<svg version="1.1" id="_레이어_1" xmlns="http://www.w3.org/2000/svg" xmlns:xlink="http://www.w3.org/1999/xlink" x="0px"
	 y="0px" viewBox="0 0 230.3 243.6" style="enable-background:new 0 0 230.3 243.6;" xml:space="preserve">
<style type="text/css">
	.st0{fill:#F2F6FB;stroke:#305C9B;stroke-width:4;stroke-linecap:round;stroke-linejoin:round;}
	.st1{enable-background:new    ;}
	.st2{fill:#305C9B;}
</style>
<path class="st0" d="M156.1,51c38.5-66.7-120.3-66.7-81.8,0c-38.5-66.7-117.9,70.8-40.9,70.8c-77,0,2.4,137.5,40.9,70.8
	c-38.5,66.6,120.3,66.6,81.8,0c38.5,66.6,117.9-70.8,40.9-70.8C273.9,121.8,194.5-15.7,156.1,51L156.1,51z"/>
<g class="st1">
	<path class="st2" d="M49.7,104.3v-5.2h39.6v5.2H49.7z M69.8,132.3c-8.8,0-15.7-4.8-15.7-12.2c0-7.5,6.8-12.1,15.7-12.1
		c8.7,0,15.6,4.7,15.6,12.1C85.4,127.5,78.5,132.3,69.8,132.3z M60,94.1v-5.3h19.5v5.3H60z M69.8,113.1c-5.2,0-9.5,2.7-9.5,7
		c0,4.2,4.2,7,9.5,7c5.2,0,9.5-2.8,9.5-7C79.3,115.9,75,113.1,69.8,113.1z M61.7,154v-18.1h6.3v12.7h37.5v5.3H61.7z M103.2,114.6
		v22.8H97v-51h6.2v22.8h10.9v5.4H103.2z"/>
	<path class="st2" d="M127,94.6v-5.3h44.3c0.1,9.3-0.6,16.6-2.2,23.2h11.2v5.3h-62.2v-5.3h44.6c1.6-5.4,2.3-11.4,2.2-17.8H127z
		 M126.6,155.4v-17.6H165v-7.3h-38.6v-5.1h44.8v17.3h-38.5v7.4h40.6v5.3H126.6z"/>
</g>
</svg>
