<?xml version="1.0" encoding="UTF-8"?><svg id="_레이어_1" xmlns="http://www.w3.org/2000/svg" xmlns:xlink="http://www.w3.org/1999/xlink" viewBox="0 0 953.34 1080.6"><defs><style>.cls-1{fill:#ed6d00;}.cls-2{fill:#fce7e7;}.cls-3{fill:#43499c;}.cls-4{clip-path:url(#clippath-2);}.cls-5{fill:#9ac5e9;}.cls-6{clip-path:url(#clippath-1);}.cls-7{clip-path:url(#clippath-4);}.cls-8{fill:#ef8b9e;}.cls-9{fill:#bbc8e7;}.cls-10{fill:#13519c;}.cls-11{fill:#9cc9e6;}.cls-12{fill:#e1c9e1;}.cls-13{fill:#2a99d7;}.cls-14{fill:#c14393;}.cls-15{clip-path:url(#clippath);}.cls-16{fill:none;}.cls-17{fill:#e51d1a;}.cls-18{clip-path:url(#clippath-3);}.cls-19{fill:#cba5cc;}.cls-20{fill:#f2f6fb;stroke:#335fa4;stroke-miterlimit:10;stroke-width:2px;}.cls-21{fill:#fff4b5;}.cls-22{fill:#ead66b;}.cls-23{fill:#6ca4ca;}.cls-24{fill:#b1d9e1;}.cls-25{fill:#058b8a;}</style><clipPath id="clippath"><rect class="cls-16" width="1920" height="1080.6"/></clipPath><clipPath id="clippath-1"><path class="cls-10" d="M168.78,885.78c-2.55,0-5.76-1.57-8.62-4.43-4.28-4.28-5.67-9.36-3.23-11.8,2.44-2.44,7.51-1.05,11.8,3.23,4.28,4.28,5.67,9.36,3.23,11.8-.81,.81-1.91,1.2-3.18,1.2Zm-8.7-14.96c-.61,0-1.1,.15-1.41,.47-1.2,1.2-.07,5.01,3.23,8.32,3.31,3.3,7.12,4.43,8.32,3.23,1.2-1.2,.07-5.01-3.23-8.32-2.45-2.45-5.17-3.7-6.91-3.7Z"/></clipPath><clipPath id="clippath-2"><path class="cls-10" d="M207.05,924.05c-2.55,0-5.76-1.57-8.62-4.43-4.28-4.28-5.67-9.36-3.23-11.8,1.25-1.25,3.24-1.53,5.6-.77,2.08,.67,4.28,2.09,6.19,4,4.28,4.28,5.67,9.36,3.23,11.8-.81,.81-1.91,1.2-3.18,1.2Zm-8.7-14.96c-.61,0-1.1,.15-1.41,.47-1.2,1.2-.07,5.01,3.23,8.32,3.31,3.3,7.12,4.43,8.32,3.23,1.2-1.2,.07-5.01-3.23-8.32-2.45-2.45-5.17-3.7-6.91-3.7Z"/></clipPath><clipPath id="clippath-3"><path class="cls-10" d="M21.53,912.69c-5.32,0-9.33-2.32-9.33-5.39s4.01-5.39,9.33-5.39,9.33,2.32,9.33,5.39-4.01,5.39-9.33,5.39Zm0-8.32c-4.26,0-6.87,1.71-6.87,2.93s2.61,2.93,6.87,2.93,6.87-1.71,6.87-2.93-2.61-2.93-6.87-2.93Z"/></clipPath><clipPath id="clippath-4"><path class="cls-10" d="M173.24,1068.34c-3.07,0-5.39-4.01-5.39-9.33s2.32-9.33,5.39-9.33,5.39,4.01,5.39,9.33-2.32,9.33-5.39,9.33Zm0-16.2c-1.22,0-2.93,2.61-2.93,6.87s1.71,6.87,2.93,6.87,2.93-2.61,2.93-6.87-1.71-6.87-2.93-6.87Z"/></clipPath></defs><g class="cls-15"><g><g><g><rect class="cls-25" x="-5.7" y="971.73" width="7.83" height="219.98" transform="translate(761.85 1847.87) rotate(135)"/><path class="cls-10" d="M73.22,1165.16l-1.45-1.45-157-157,8.44-8.44,158.45,158.45-8.44,8.44Zm-152.65-158.45l152.65,152.65,2.64-2.64-152.65-152.65-2.64,2.64Z"/></g><g><g><rect class="cls-25" x="-6.46" y="972.33" width="7.83" height="219.98" transform="translate(764.57 318.8) rotate(45)"/><path class="cls-10" d="M-77.54,1165.76l-8.44-8.44,1.45-1.45,157-157,8.44,8.44-158.45,158.45Zm-2.64-8.44l2.64,2.64,152.65-152.65-2.64-2.64-152.65,152.65Z"/></g><g><g><g><g><rect class="cls-25" x="107.03" y="894.69" width="6.42" height="73.17" transform="translate(690.8 194.81) rotate(45)"/><path class="cls-10" d="M86.64,962.32l-7.44-7.44,54.64-54.64,7.44,7.44-54.64,54.64Zm-1.64-7.44l1.64,1.64,48.84-48.84-1.64-1.64-48.84,48.84Z"/></g><g><g><path class="cls-25" d="M124.67,916.77h0c-2.4-2.4-2.4-6.28,0-8.68l11.98-14.84c2.4-2.4,7.71-.97,10.11,1.43h0c2.4,2.4,3.83,7.71,1.43,10.11l-14.84,11.98c-2.4,2.4-6.28,2.4-8.68,0Z"/><path class="cls-10" d="M129.01,920.61c-2.1,0-4.19-.8-5.79-2.39h0c-3.16-3.16-3.19-8.3-.08-11.49l12.06-14.93c3.48-3.48,10.13-1.44,13.01,1.43,2.87,2.87,4.91,9.53,1.43,13.01l-.16,.15-14.76,11.92c-1.58,1.54-3.65,2.31-5.71,2.31Zm-2.89-5.29c1.59,1.59,4.19,1.6,5.78,0l.16-.15,14.74-11.9c1.3-1.45,.27-5.39-1.49-7.15-1.76-1.76-5.7-2.79-7.15-1.49l-12.05,14.9c-1.59,1.59-1.59,4.19,0,5.78h0Z"/></g><g><g><circle class="cls-19" cx="152.59" cy="888.92" r="23.62"/><path class="cls-10" d="M152.59,914.58c-6.57,0-13.15-2.5-18.15-7.51-10.01-10.01-10.01-26.29,0-36.3,10.01-10.01,26.3-10.01,36.3,0,10.01,10.01,10.01,26.29,0,36.3-5,5.01-11.58,7.51-18.15,7.51Zm0-47.22c-5.53,0-11.05,2.1-15.26,6.31-8.41,8.41-8.41,22.1,0,30.51,8.41,8.41,22.1,8.41,30.51,0,8.41-8.41,8.41-22.1,0-30.51-4.21-4.21-9.73-6.31-15.25-6.31Z"/></g><g><path class="cls-14" d="M168.81,884.95c-2.39,0-5.48-1.6-8.06-4.18-3.89-3.89-5.31-8.56-3.23-10.64,.62-.62,1.51-.95,2.58-.95,2.39,0,5.48,1.6,8.06,4.18,3.89,3.89,5.31,8.56,3.23,10.64-.62,.62-1.51,.95-2.58,.95Z"/><path class="cls-10" d="M160.09,869.6c2.2,0,5.19,1.48,7.77,4.06,3.67,3.67,5.12,8.17,3.23,10.06-.56,.56-1.35,.83-2.29,.83-2.2,0-5.19-1.48-7.77-4.06-3.67-3.67-5.12-8.17-3.23-10.06,.56-.56,1.35-.83,2.29-.83m0-.82h0c-1.18,0-2.17,.37-2.87,1.07-1.14,1.14-1.38,2.98-.67,5.19,.65,2.02,2.03,4.16,3.9,6.03,2.65,2.65,5.85,4.3,8.35,4.3,1.18,0,2.17-.37,2.87-1.07,1.14-1.14,1.38-2.98,.67-5.19-.65-2.02-2.03-4.16-3.9-6.03-2.65-2.65-5.85-4.3-8.35-4.3h0Z"/></g><g><path class="cls-10" d="M168.78,885.78c-2.55,0-5.76-1.57-8.62-4.43-4.28-4.28-5.67-9.36-3.23-11.8,2.44-2.44,7.51-1.05,11.8,3.23,4.28,4.28,5.67,9.36,3.23,11.8-.81,.81-1.91,1.2-3.18,1.2Zm-8.7-14.96c-.61,0-1.1,.15-1.41,.47-1.2,1.2-.07,5.01,3.23,8.32,3.31,3.3,7.12,4.43,8.32,3.23,1.2-1.2,.07-5.01-3.23-8.32-2.45-2.45-5.17-3.7-6.91-3.7Z"/><g class="cls-6"><g><ellipse class="cls-12" cx="162.65" cy="878.86" rx="4.83" ry="9.4" transform="translate(-573.81 372.43) rotate(-45)"/><path class="cls-10" d="M166.99,887.58c-2.55,0-5.76-1.57-8.62-4.43-4.28-4.28-5.67-9.36-3.23-11.8s7.51-1.05,11.8,3.23c4.28,4.28,5.67,9.35,3.23,11.8-.81,.81-1.91,1.2-3.18,1.2Zm-8.7-14.96c-.61,0-1.1,.15-1.41,.47-1.2,1.2-.07,5.01,3.23,8.32,3.31,3.31,7.12,4.43,8.32,3.23,1.2-1.2,.07-5.01-3.23-8.32-2.45-2.45-5.17-3.7-6.91-3.7Z"/></g></g></g></g></g></g><g><g><rect class="cls-25" x="145.3" y="932.96" width="6.42" height="73.17" transform="translate(729.07 178.96) rotate(45)"/><path class="cls-10" d="M124.9,1000.58l-7.44-7.44,54.64-54.64,7.44,7.44-54.64,54.64Zm-1.64-7.44l1.64,1.64,48.84-48.84-1.64-1.64-48.84,48.84Z"/></g><g><g><path class="cls-25" d="M162.94,955.03h0c-2.4-2.4-2.4-6.28,0-8.68l11.98-14.84c2.4-2.4,7.71-.97,10.11,1.43h0c2.4,2.4,3.83,7.71,1.43,10.11l-14.84,11.98c-2.4,2.4-6.28,2.4-8.68,0Z"/><path class="cls-10" d="M167.28,958.88c-2.1,0-4.19-.8-5.79-2.39-3.16-3.16-3.19-8.3-.08-11.49l12.06-14.93c3.48-3.48,10.13-1.44,13.01,1.43,2.87,2.87,4.91,9.53,1.43,13.01l-.16,.15-14.76,11.92c-1.59,1.54-3.65,2.31-5.71,2.31Zm9.15-25.98l-12.05,14.9c-1.59,1.59-1.59,4.19,0,5.78s4.19,1.59,5.78,0l.16-.15,14.74-11.9c1.31-1.45,.27-5.39-1.49-7.15-1.76-1.76-5.7-2.79-7.15-1.49Z"/></g><g><g><circle class="cls-19" cx="190.86" cy="927.19" r="23.62"/><path class="cls-10" d="M190.86,952.85c-6.57,0-13.15-2.5-18.15-7.51-10.01-10.01-10.01-26.29,0-36.3,10.01-10.01,26.3-10.01,36.3,0,10.01,10.01,10.01,26.29,0,36.3-5,5.01-11.58,7.51-18.15,7.51Zm0-47.22c-5.52,0-11.05,2.1-15.25,6.31-8.41,8.41-8.41,22.1,0,30.51,8.41,8.41,22.1,8.41,30.51,0,8.41-8.41,8.41-22.1,0-30.51-4.21-4.21-9.73-6.31-15.26-6.31Z"/></g><g><path class="cls-14" d="M207.07,923.22c-2.39,0-5.48-1.6-8.06-4.18-1.82-1.82-3.17-3.9-3.8-5.86-.66-2.05-.46-3.75,.57-4.77,.62-.62,1.51-.95,2.58-.95,2.39,0,5.48,1.6,8.06,4.18,3.89,3.89,5.31,8.56,3.23,10.64-.62,.62-1.51,.95-2.58,.95Z"/><path class="cls-10" d="M198.36,907.86c2.2,0,5.19,1.48,7.77,4.06,3.67,3.67,5.12,8.17,3.23,10.06-.56,.56-1.35,.83-2.29,.83-2.2,0-5.19-1.48-7.77-4.06-3.67-3.67-5.12-8.17-3.23-10.06,.56-.56,1.35-.83,2.29-.83m0-.82h0c-1.18,0-2.17,.37-2.87,1.07-1.14,1.14-1.38,2.98-.67,5.19,.65,2.02,2.03,4.16,3.9,6.03,2.65,2.65,5.85,4.3,8.35,4.3,1.18,0,2.17-.37,2.87-1.07,1.14-1.14,1.38-2.98,.67-5.19-.65-2.02-2.03-4.16-3.9-6.03-2.65-2.65-5.85-4.3-8.35-4.3h0Z"/></g><g><path class="cls-10" d="M207.05,924.05c-2.55,0-5.76-1.57-8.62-4.43-4.28-4.28-5.67-9.36-3.23-11.8,1.25-1.25,3.24-1.53,5.6-.77,2.08,.67,4.28,2.09,6.19,4,4.28,4.28,5.67,9.36,3.23,11.8-.81,.81-1.91,1.2-3.18,1.2Zm-8.7-14.96c-.61,0-1.1,.15-1.41,.47-1.2,1.2-.07,5.01,3.23,8.32,3.31,3.3,7.12,4.43,8.32,3.23,1.2-1.2,.07-5.01-3.23-8.32-2.45-2.45-5.17-3.7-6.91-3.7Z"/><g class="cls-4"><g><ellipse class="cls-12" cx="200.92" cy="917.13" rx="4.83" ry="9.4" transform="translate(-589.66 410.69) rotate(-45)"/><path class="cls-10" d="M205.26,925.85c-2.55,0-5.76-1.57-8.62-4.43-4.28-4.28-5.67-9.36-3.23-11.8,2.44-2.44,7.51-1.05,11.8,3.23,1.91,1.91,3.33,4.11,4,6.19,.76,2.36,.49,4.35-.77,5.6-.81,.81-1.91,1.2-3.18,1.2Zm-8.7-14.96c-.61,0-1.1,.15-1.41,.47-1.2,1.2-.07,5.01,3.23,8.32,3.31,3.3,7.12,4.43,8.32,3.23,1.2-1.2,.07-5.01-3.23-8.32-2.45-2.45-5.17-3.7-6.91-3.7Z"/></g></g></g></g></g></g></g><g><g><path class="cls-25" d="M63.72,1016.05h0c-3.89-3.89-3.89-10.2,0-14.1l19.46-24.1c3.89-3.89,12.53-1.57,16.42,2.32h0c3.89,3.89,6.21,12.53,2.32,16.42l-24.1,19.46c-3.89,3.89-10.2,3.89-14.1,0Z"/><path class="cls-10" d="M70.77,1021.02c-3.08,0-6.15-1.17-8.5-3.51-4.66-4.66-4.68-12.22-.08-16.91l19.54-24.18c4.93-4.93,14.96-2.03,19.32,2.32s7.25,14.39,2.32,19.32l-.16,.15-24.02,19.39c-2.33,2.29-5.37,3.43-8.42,3.43Zm13.93-41.78l-19.53,24.17c-1.5,1.5-2.32,3.48-2.32,5.6s.82,4.1,2.32,5.6c1.5,1.5,3.48,2.32,5.6,2.32s4.1-.82,5.6-2.32l.16-.15,24.01-19.38c1.22-1.29,1.63-3.58,1.13-6.32-.51-2.74-1.85-5.47-3.51-7.13s-4.39-3.01-7.13-3.51c-2.74-.51-5.03-.1-6.32,1.13Z"/></g><g><path class="cls-22" d="M116.99,962.8c16.09-16.09-53.08-42.26-31.81-12.03-21.27-30.23-37.85,22.77-7.62,24.37-30.23-1.6,28.7,57.32,27.1,27.1,1.6,30.23,54.6,13.65,24.37-7.62,30.23,21.27,4.05-47.9-12.03-31.81Z"/><path class="cls-10" d="M122.15,1020.79c-1.32,0-2.65-.11-3.98-.33-6.31-1.08-11.02-4.58-13.54-9.81-.61,.71-1.36,1.26-2.24,1.65-6.13,2.74-16.15-4.12-23.47-11.44-7.32-7.32-14.17-17.33-11.44-23.47,.39-.88,.95-1.63,1.66-2.24-5.23-2.52-8.73-7.23-9.81-13.54-1.56-9.12,2.48-18.73,9.01-21.42,2.27-.93,6.07-1.54,10.7,1.42-.08-2.46,.96-4.03,2.21-5.02,6.78-5.37,28.05,2.91,36.3,12.16,2.9,3.25,4.2,6.55,3.88,9.61,3.06-.32,6.36,.98,9.61,3.88,9.26,8.25,17.53,29.53,12.16,36.3-.99,1.25-2.57,2.3-5.02,2.21,2.96,4.64,2.36,8.44,1.42,10.7-2.3,5.58-9.66,9.34-17.45,9.34Zm-17.5-20.61c1.08,0,1.99,.85,2.04,1.94,.57,10.73,7.87,13.56,12.17,14.29,7.09,1.21,15.01-1.84,16.94-6.53,1.65-4-1.18-8.83-7.97-13.6-.57-.4-.87-1.03-.87-1.68,0-.41,.12-.82,.37-1.18,.65-.93,1.93-1.15,2.85-.5,4.91,3.45,8.57,4.59,9.79,3.05,3.33-4.2-2.98-22.94-11.68-30.69-5.77-5.15-8.86-2.06-9.88-1.05-.8,.8-2.1,.8-2.9,0-.4-.4-.6-.92-.6-1.45s.2-1.05,.6-1.45c1.01-1.01,4.1-4.1-1.05-9.88-7.75-8.7-26.49-15.01-30.69-11.68-1.54,1.22-.4,4.88,3.05,9.79,.25,.36,.37,.77,.37,1.18,0,.64-.3,1.28-.87,1.68-.93,.65-2.2,.43-2.85-.5-4.78-6.79-9.6-9.62-13.6-7.97-4.69,1.93-7.74,9.85-6.53,16.94,.73,4.3,3.57,11.6,14.29,12.17,1.09,.06,1.94,.96,1.94,2.05,0,.04,0,.07,0,.11-.06,1.13-1.03,2.01-2.15,1.94-2.4-.13-5.43,.1-6.22,1.88-1.46,3.28,3.09,11.41,10.59,18.9,7.5,7.5,15.63,12.05,18.9,10.59,1.79-.8,2.01-3.82,1.88-6.22,0-.04,0-.07,0-.11,0-1.08,.85-1.99,1.94-2.05,.04,0,.07,0,.11,0Z"/></g><g><path class="cls-21" d="M121.49,958.3c16.09-16.09-53.08-42.26-31.81-12.03-21.27-30.23-37.85,22.77-7.62,24.37-30.23-1.6,28.7,57.32,27.1,27.1,1.6,30.23,54.6,13.65,24.37-7.62,30.23,21.27,4.05-47.9-12.03-31.81Zm-16.03,16.03c-12.24-5.36-16.52-15.34-4.39-10.25-5.08-12.12,4.9-7.84,10.25,4.39,12.24,5.36,16.52,15.34,4.39,10.25,5.08,12.12-4.9,7.84-10.25-4.39Z"/><path class="cls-10" d="M126.65,1016.29c-1.32,0-2.65-.11-3.98-.33-6.31-1.08-11.02-4.58-13.54-9.81-.61,.71-1.36,1.26-2.24,1.65-6.14,2.73-16.15-4.12-23.47-11.44-7.32-7.32-14.17-17.33-11.44-23.47,.39-.88,.95-1.63,1.66-2.24-5.23-2.52-8.73-7.23-9.81-13.54-1.56-9.12,2.48-18.73,9.01-21.42,2.27-.93,6.07-1.54,10.7,1.42-.08-2.46,.96-4.03,2.21-5.02,6.77-5.37,28.05,2.91,36.3,12.16,2.9,3.25,4.2,6.55,3.88,9.61,3.05-.32,6.36,.98,9.61,3.88,9.26,8.25,17.53,29.53,12.16,36.3-.99,1.25-2.56,2.31-5.02,2.21,2.96,4.64,2.35,8.44,1.42,10.7-2.3,5.58-9.66,9.34-17.45,9.34Zm-17.5-20.61c1.08,0,1.99,.85,2.04,1.94,.57,10.73,7.87,13.56,12.17,14.29,7.1,1.22,15.01-1.84,16.94-6.53,1.65-4-1.18-8.83-7.97-13.6-.57-.4-.87-1.03-.87-1.68,0-.41,.12-.82,.37-1.18,.65-.93,1.93-1.15,2.85-.5,4.91,3.45,8.57,4.59,9.79,3.05,3.33-4.2-2.98-22.94-11.68-30.69-5.78-5.15-8.86-2.06-9.88-1.05-.8,.8-2.1,.8-2.9,0-.4-.4-.6-.92-.6-1.45s.2-1.05,.6-1.45c1.01-1.01,4.1-4.1-1.05-9.88-7.75-8.7-26.49-15.01-30.69-11.68-1.54,1.22-.4,4.88,3.05,9.79,.25,.36,.37,.77,.37,1.18,0,.64-.3,1.28-.87,1.68-.93,.65-2.2,.43-2.85-.5-4.78-6.79-9.61-9.62-13.6-7.97-4.69,1.93-7.74,9.85-6.53,16.94,.73,4.3,3.57,11.6,14.29,12.17,1.09,.06,1.94,.96,1.94,2.05,0,.04,0,.07,0,.11-.06,1.13-1.03,2.01-2.15,1.94-2.4-.13-5.43,.1-6.22,1.88-1.46,3.28,3.09,11.41,10.59,18.9,7.5,7.5,15.64,12.05,18.9,10.59,1.79-.8,2.01-3.82,1.88-6.22,0-.04,0-.07,0-.11,0-1.08,.85-1.99,1.94-2.05,.04,0,.07,0,.11,0Zm6.51-7.68c-3.88,0-8.8-5.77-11.75-12.13-7.15-3.32-13.56-9.14-11.84-13.15,.81-1.89,2.75-2.5,5.79-1.86-.65-3.04-.03-4.98,1.86-5.79,4.02-1.72,9.83,4.7,13.15,11.84,7.15,3.32,13.56,9.14,11.84,13.15-.81,1.89-2.75,2.5-5.79,1.86,.65,3.04,.03,4.98-1.86,5.79-.45,.19-.92,.28-1.4,.28Zm.03-4.11h0Zm-19.58-19.16c.84,1.61,4.12,5.07,10.17,7.72,.47,.21,.85,.58,1.06,1.06,2.65,6.05,6.11,9.33,7.72,10.17-.05-.68-.31-1.96-1.23-4.16-.32-.77-.15-1.65,.44-2.24,.59-.59,1.47-.76,2.24-.44,2.2,.92,3.48,1.18,4.16,1.23-.84-1.61-4.12-5.07-10.17-7.72-.47-.21-.85-.58-1.06-1.06-2.65-6.05-6.11-9.33-7.72-10.17,.05,.68,.31,1.96,1.23,4.16,.32,.77,.15,1.65-.44,2.24s-1.47,.76-2.24,.44c-2.2-.92-3.48-1.18-4.16-1.23Z"/></g></g></g></g></g><g><g><g><rect class="cls-25" x="-5.71" y="868.15" width="7.7" height="426.2"/><path class="cls-10" d="M4.04,1296.39H-7.76v-430.29H4.04v430.29Zm-7.7-4.1H-.06v-422.1H-3.66v422.1Z"/></g><g><g><path class="cls-25" d="M-1.86,890.96h0c-7.19,0-13.02-5.83-13.02-13.02l-4.29-40.22c0-7.19,10.12-13.02,17.3-13.02h0c7.19,0,17.3,5.83,17.3,13.02l-4.29,40.22c0,7.19-5.83,13.02-13.02,13.02Z"/><path class="cls-10" d="M-1.86,893.01c-8.27,0-15-6.7-15.06-14.95l-4.29-40.33c0-8.74,11.56-15.06,19.35-15.06s19.35,6.33,19.35,15.06v.22s-4.29,40.11-4.29,40.11c-.06,8.26-6.79,14.95-15.06,14.95Zm-15.25-55.38l4.29,40.32c0,6.05,4.92,10.97,10.97,10.97s10.97-4.92,10.97-10.97v-.22s4.29-40.1,4.29-40.1c-.1-5.51-8.77-10.87-15.25-10.87s-15.15,5.36-15.25,10.87Z"/></g><g><path class="cls-2" d="M-1.86,794.6c0-30.67-63.16-9.41-27.07,9.11-36.09-18.52-51.69,29.25-6.69,20.48-45.01,8.78-1.3,47.09,18.73,16.42-20.03,30.67,50.08,30.67,30.05,0,20.03,30.67,63.74-7.64,18.73-16.42,45.01,8.78,29.41-39-6.69-20.48,36.09-18.52-27.07-39.78-27.07-9.11Z"/><path class="cls-10" d="M-1.86,865.63c-6.14,0-12.27-1.72-16.21-5.15-1.82-1.58-4.88-5.14-4.43-10.83-7.22,5.32-15.43,5.56-21.72,3.46-8.1-2.7-13.47-9.06-13.06-15.48,.18-2.77,1.55-6.96,7.32-10.52-9.09-1.03-12.66-5.44-13.95-7.83-2.67-4.96-1.45-11.16,3.1-15.8,4.2-4.28,11.45-7.31,20.92-5.71-2.71-3.72-2.45-6.99-1.77-9.06,2.73-8.35,16.63-12.94,26.78-11.32,6.15,.98,10.61,3.91,13.02,8.38,2.41-4.46,6.87-7.4,13.02-8.38,10.15-1.62,24.05,2.98,26.78,11.32,.68,2.07,.93,5.34-1.77,9.06,9.47-1.6,16.72,1.43,20.92,5.71,4.55,4.64,5.77,10.84,3.1,15.8-1.29,2.39-4.86,6.8-13.95,7.83,5.77,3.56,7.15,7.76,7.32,10.52,.41,6.42-4.96,12.78-13.06,15.48-6.3,2.1-14.51,1.85-21.72-3.46,.45,5.69-2.61,9.24-4.43,10.83-3.94,3.43-10.08,5.15-16.21,5.15Zm-13.31-23.9c-3.01,4.61-5.49,11.07-.21,15.66,6.44,5.61,20.6,5.61,27.04,0,5.28-4.6,2.8-11.05-.21-15.66-.23-.35-.33-.74-.33-1.12,0-.67,.33-1.32,.93-1.72,.95-.62,2.22-.35,2.84,.59,8.88,13.6,20.87,10.9,24.33,9.74,6.24-2.08,10.55-6.84,10.26-11.33-.34-5.28-6.89-9.54-17.97-11.7-.98-.19-1.66-1.05-1.66-2.01,0-.13,.01-.26,.04-.39,.22-1.11,1.3-1.83,2.4-1.62,12.29,2.4,21.37,.59,24.29-4.83,1.8-3.34,.85-7.66-2.42-10.99-4.79-4.89-14.67-7.67-28.02-.82-1.01,.52-2.24,.12-2.76-.89-.15-.3-.23-.62-.23-.93,0-.74,.41-1.46,1.11-1.83,7.54-3.87,11.01-8.1,9.77-11.89-1.86-5.69-13.08-10.01-22.24-8.55-5.3,.84-11.62,3.81-11.62,13.15,0,1.13-.92,2.05-2.05,2.05s-2.05-.92-2.05-2.05c0-9.34-6.32-12.31-11.62-13.15-9.15-1.46-20.38,2.86-22.24,8.55-1.24,3.8,2.23,8.02,9.77,11.89,.71,.36,1.11,1.08,1.11,1.83,0,.31-.07,.63-.23,.93-.52,1.01-1.76,1.4-2.76,.89-13.35-6.85-23.22-4.07-28.02,.82-3.27,3.33-4.22,7.65-2.42,10.99,2.92,5.42,12,7.23,24.29,4.83,1.1-.21,2.19,.51,2.4,1.62,.03,.13,.04,.26,.04,.39,0,.96-.68,1.82-1.66,2.01-11.08,2.16-17.63,6.43-17.97,11.7-.29,4.49,4.03,9.25,10.26,11.33,3.46,1.15,15.44,3.86,24.33-9.74,.62-.95,1.89-1.21,2.84-.59,.6,.39,.93,1.05,.93,1.72,0,.38-.11,.77-.33,1.12Z"/></g><g><path class="cls-8" d="M-1.86,787.42c0-30.67-63.16-9.41-27.07,9.11-36.09-18.52-51.69,29.25-6.69,20.48-45.01,8.78-1.3,47.09,18.73,16.42-20.03,30.67,50.08,30.67,30.05,0,20.03,30.67,63.74-7.64,18.73-16.42,45.01,8.78,29.41-39-6.69-20.48,36.09-18.52-27.07-39.78-27.07-9.11Z"/><path class="cls-10" d="M-1.86,858.45c-6.14,0-12.27-1.72-16.21-5.15-1.82-1.58-4.88-5.14-4.43-10.83-7.22,5.32-15.43,5.56-21.72,3.46-8.1-2.7-13.47-9.06-13.06-15.48,.18-2.77,1.55-6.96,7.32-10.52-9.09-1.03-12.66-5.44-13.95-7.83-2.67-4.96-1.45-11.16,3.1-15.8,4.2-4.28,11.45-7.31,20.92-5.71-2.71-3.72-2.45-6.99-1.77-9.06,2.73-8.34,16.63-12.94,26.78-11.32,6.15,.98,10.61,3.91,13.02,8.38,2.41-4.46,6.87-7.4,13.02-8.38,10.14-1.61,24.05,2.98,26.78,11.32,.68,2.07,.93,5.34-1.77,9.06,9.47-1.6,16.72,1.43,20.92,5.71,4.55,4.64,5.77,10.84,3.1,15.8-1.29,2.39-4.86,6.8-13.95,7.83,5.77,3.56,7.15,7.76,7.32,10.52,.41,6.42-4.96,12.78-13.06,15.48-6.3,2.1-14.51,1.85-21.72-3.46,.45,5.69-2.61,9.24-4.43,10.82-3.94,3.43-10.08,5.15-16.21,5.15Zm-13.31-23.9c-3.01,4.61-5.49,11.07-.21,15.66,6.44,5.61,20.6,5.61,27.04,0,5.28-4.6,2.8-11.05-.21-15.66-.23-.35-.33-.74-.33-1.12,0-.67,.33-1.32,.93-1.72,.95-.62,2.22-.35,2.84,.59,8.88,13.6,20.87,10.9,24.33,9.74,6.24-2.08,10.55-6.84,10.26-11.33-.34-5.28-6.89-9.54-17.97-11.7-.98-.19-1.66-1.05-1.66-2.01,0-.13,.01-.26,.04-.39,.22-1.11,1.3-1.83,2.4-1.62,12.29,2.4,21.37,.59,24.29-4.83,1.8-3.34,.85-7.66-2.42-10.99-4.79-4.89-14.67-7.67-28.02-.82-1.01,.52-2.24,.12-2.76-.89-.15-.3-.23-.62-.23-.93,0-.74,.41-1.46,1.11-1.83,7.54-3.87,11.01-8.1,9.77-11.89-1.86-5.69-13.09-10.01-22.24-8.55-5.3,.84-11.62,3.81-11.62,13.15,0,1.13-.92,2.05-2.05,2.05s-2.05-.92-2.05-2.05c0-9.34-6.32-12.31-11.62-13.15-9.15-1.46-20.38,2.86-22.24,8.55-1.24,3.8,2.23,8.02,9.77,11.89,.71,.36,1.11,1.08,1.11,1.83,0,.31-.07,.63-.23,.93-.52,1.01-1.76,1.4-2.76,.89-13.35-6.85-23.22-4.07-28.02,.82-3.27,3.33-4.22,7.65-2.42,10.99,2.92,5.42,12,7.23,24.29,4.83,1.1-.21,2.19,.51,2.4,1.62,.03,.13,.04,.26,.04,.39,0,.96-.68,1.82-1.66,2.01-11.08,2.16-17.63,6.43-17.97,11.7-.29,4.49,4.03,9.25,10.26,11.33,3.46,1.15,15.45,3.86,24.33-9.74,.62-.95,1.89-1.21,2.84-.59,.6,.39,.93,1.05,.93,1.72,0,.38-.11,.77-.33,1.12Z"/></g><g><ellipse class="cls-17" cx="-1.86" cy="809.64" rx="16.51" ry="7.93"/><path class="cls-10" d="M-1.86,819.62c-10.58,0-18.56-4.29-18.56-9.98s7.98-9.98,18.56-9.98,18.56,4.29,18.56,9.98-7.98,9.98-18.56,9.98Zm0-15.87c-8.96,0-14.46,3.43-14.46,5.88s5.5,5.88,14.46,5.88,14.46-3.43,14.46-5.88-5.5-5.88-14.46-5.88Z"/></g></g></g><g><g><rect class="cls-25" x="-4.56" y="869.3" width="7.7" height="426.2" transform="translate(1081.69 1083.11) rotate(90)"/><path class="cls-10" d="M214.44,1088.3H-215.85v-11.8H214.44v11.8Zm-426.2-4.1H210.34v-3.6H-211.76v3.6Z"/></g><g><g><path class="cls-25" d="M189.58,1082.4h0c0-7.19,5.83-13.02,13.02-13.02l40.22-4.29c7.19,0,13.02,10.12,13.02,17.3h0c0,7.19-5.83,17.3-13.02,17.3l-40.22-4.29c-7.19,0-13.02-5.83-13.02-13.02Z"/><path class="cls-10" d="M242.81,1101.75h-.22s-40.12-4.29-40.12-4.29c-8.26-.06-14.95-6.79-14.95-15.06s6.7-15,14.95-15.06l40.33-4.29c8.74,0,15.06,11.56,15.06,19.35s-6.33,19.35-15.06,19.35Zm-40.22-30.32c-6.05,0-10.97,4.92-10.97,10.97s4.92,10.97,10.97,10.97h.22s40.1,4.29,40.1,4.29c5.51-.1,10.87-8.77,10.87-15.25s-5.36-15.15-10.87-15.25l-40.32,4.29Z"/></g><g><path class="cls-2" d="M285.94,1082.4c30.67,0,9.41-63.16-9.11-27.07,18.52-36.09-29.25-51.69-20.48-6.69-8.78-45.01-47.09-1.3-16.42,18.73-30.67-20.03-30.67,50.08,0,30.05-30.67,20.03,7.64,63.74,16.42,18.73-8.78,45.01,39,29.41,20.48-6.69,18.52,36.09,39.78-27.07,9.11-27.07Z"/><path class="cls-10" d="M266.83,1145.85c-1.93,0-3.83-.46-5.58-1.4-2.39-1.29-6.8-4.86-7.83-13.95-3.56,5.77-7.76,7.15-10.52,7.32-6.41,.4-12.78-4.96-15.48-13.06-2.1-6.3-1.85-14.51,3.46-21.72-5.7,.45-9.24-2.61-10.83-4.43-6.86-7.88-6.86-24.54,0-32.42,1.58-1.82,5.13-4.88,10.83-4.43-5.31-7.22-5.56-15.43-3.46-21.72,2.7-8.1,9.08-13.45,15.48-13.06,2.77,.18,6.96,1.55,10.52,7.32,1.03-9.09,5.44-12.66,7.83-13.95,4.96-2.67,11.16-1.45,15.8,3.1,4.28,4.2,7.31,11.45,5.71,20.92,3.72-2.71,6.99-2.45,9.06-1.77,8.34,2.73,12.94,16.64,11.32,26.78-.98,6.15-3.91,10.61-8.38,13.02,4.46,2.41,7.4,6.87,8.38,13.02,1.62,10.14-2.98,24.05-11.32,26.78-2.07,.68-5.34,.93-9.06-1.77,1.6,9.47-1.43,16.72-5.71,20.92-3.01,2.95-6.67,4.5-10.22,4.5Zm-8.47-29.3c-2.4,12.29-.59,21.37,4.83,24.29,3.34,1.8,7.66,.85,10.99-2.42,4.89-4.79,7.67-14.67,.82-28.02-.15-.3-.23-.62-.23-.93,0-.74,.41-1.46,1.11-1.83,1.01-.52,2.24-.12,2.76,.89,3.87,7.54,8.1,11.01,11.89,9.77,5.69-1.86,10.01-13.09,8.55-22.24-.84-5.3-3.81-11.62-13.15-11.62-1.13,0-2.05-.92-2.05-2.05s.92-2.05,2.05-2.05c9.34,0,12.31-6.32,13.15-11.62,1.46-9.15-2.86-20.38-8.55-22.24-3.8-1.24-8.02,2.23-11.89,9.77-.52,1.01-1.75,1.4-2.76,.89-.71-.36-1.11-1.08-1.11-1.83,0-.31,.07-.63,.23-.93,6.85-13.35,4.07-23.23-.82-28.02-3.33-3.27-7.65-4.22-10.99-2.42-5.42,2.92-7.23,12-4.83,24.29,.03,.13,.04,.26,.04,.39,0,.96-.68,1.82-1.66,2.01-1.1,.21-2.19-.51-2.4-1.62-2.16-11.08-6.43-17.63-11.7-17.97-4.48-.31-9.25,4.03-11.33,10.26-1.15,3.46-3.86,15.45,9.74,24.33,.6,.39,.93,1.05,.93,1.72,0,.38-.11,.77-.33,1.12-.62,.95-1.89,1.21-2.84,.59-4.61-3.01-11.07-5.49-15.66-.21-5.61,6.44-5.61,20.6,0,27.04,4.6,5.28,11.05,2.8,15.66-.21,.95-.62,2.22-.35,2.84,.59,.23,.35,.33,.74,.33,1.12,0,.67-.33,1.32-.93,1.72-13.6,8.88-10.9,20.87-9.74,24.33,2.08,6.24,6.83,10.56,11.33,10.26,5.28-.34,9.54-6.89,11.7-17.97,.22-1.11,1.3-1.83,2.4-1.62,.98,.19,1.66,1.05,1.66,2.01,0,.13-.01,.26-.04,.39Z"/></g><g><path class="cls-8" d="M293.12,1082.4c30.67,0,9.41-63.16-9.11-27.07,18.52-36.09-29.25-51.69-20.48-6.69-8.78-45.01-47.09-1.3-16.42,18.73-30.67-20.03-30.67,50.08,0,30.05-30.67,20.03,7.64,63.74,16.42,18.73-8.78,45.01,39,29.41,20.48-6.69,18.52,36.09,39.78-27.07,9.11-27.07Z"/><path class="cls-10" d="M274.01,1145.85c-1.93,0-3.83-.46-5.58-1.4-2.39-1.29-6.8-4.86-7.83-13.95-3.56,5.77-7.76,7.15-10.52,7.32-6.41,.4-12.78-4.96-15.48-13.06-2.1-6.3-1.85-14.51,3.46-21.72-5.7,.45-9.24-2.61-10.83-4.43-6.86-7.88-6.86-24.54,0-32.42,1.58-1.82,5.12-4.88,10.83-4.43-5.32-7.22-5.56-15.43-3.46-21.72,2.7-8.1,9.05-13.47,15.48-13.06,2.77,.18,6.96,1.55,10.52,7.32,1.03-9.09,5.44-12.66,7.83-13.95,4.96-2.67,11.16-1.45,15.8,3.1,4.28,4.2,7.31,11.45,5.71,20.92,3.72-2.71,6.99-2.45,9.06-1.77,8.35,2.73,12.94,16.64,11.32,26.78-.98,6.15-3.91,10.61-8.38,13.02,4.46,2.41,7.4,6.87,8.38,13.02,1.62,10.14-2.98,24.05-11.32,26.78-2.07,.68-5.34,.94-9.06-1.77,1.6,9.47-1.43,16.72-5.71,20.92-3.01,2.95-6.67,4.5-10.22,4.5Zm-8.47-29.3c-2.4,12.29-.59,21.37,4.83,24.29,3.35,1.8,7.66,.85,10.99-2.42,4.89-4.79,7.67-14.67,.82-28.02-.15-.3-.23-.62-.23-.93,0-.74,.41-1.46,1.11-1.83,1.01-.52,2.24-.12,2.76,.89,3.87,7.54,8.09,11.01,11.89,9.77,5.69-1.86,10.01-13.09,8.55-22.24-.85-5.3-3.81-11.62-13.15-11.62-1.13,0-2.05-.92-2.05-2.05s.92-2.05,2.05-2.05c9.34,0,12.31-6.32,13.15-11.62,1.46-9.15-2.86-20.38-8.55-22.24-3.81-1.24-8.02,2.23-11.89,9.77-.52,1.01-1.75,1.4-2.76,.89-.71-.36-1.11-1.08-1.11-1.83,0-.31,.07-.63,.23-.93,6.85-13.35,4.07-23.23-.82-28.02-3.33-3.27-7.65-4.22-10.99-2.42-5.42,2.92-7.23,12-4.83,24.29,.03,.13,.04,.26,.04,.39,0,.96-.68,1.82-1.66,2.01-1.11,.21-2.19-.51-2.4-1.62-2.16-11.08-6.43-17.63-11.7-17.97-4.47-.31-9.25,4.03-11.33,10.26-1.15,3.46-3.86,15.45,9.74,24.33,.6,.39,.93,1.05,.93,1.72,0,.38-.11,.77-.33,1.12-.62,.95-1.89,1.21-2.84,.59-4.61-3.01-11.07-5.49-15.66-.21-5.61,6.44-5.61,20.6,0,27.04,4.6,5.28,11.05,2.8,15.66-.21,.95-.62,2.22-.35,2.84,.59,.23,.35,.33,.74,.33,1.12,0,.67-.33,1.32-.93,1.72-13.6,8.88-10.9,20.87-9.74,24.33,2.08,6.24,6.84,10.56,11.33,10.26,5.28-.34,9.54-6.89,11.7-17.97,.22-1.11,1.3-1.83,2.4-1.62,.98,.19,1.66,1.05,1.66,2.01,0,.13-.01,.26-.04,.39Z"/></g><g><ellipse class="cls-17" cx="270.9" cy="1082.4" rx="7.93" ry="16.51"/><path class="cls-10" d="M270.9,1100.96c-5.69,0-9.98-7.98-9.98-18.56s4.29-18.56,9.98-18.56,9.98,7.98,9.98,18.56-4.29,18.56-9.98,18.56Zm0-33.02c-2.46,0-5.88,5.5-5.88,14.46s3.43,14.46,5.88,14.46,5.88-5.5,5.88-14.46-3.43-14.46-5.88-14.46Z"/></g></g></g></g><g><g><rect class="cls-25" x="-4.54" y="902.24" width="5.36" height="360.31" transform="translate(-1001.15 666.46) rotate(-67.5)"/><path class="cls-10" d="M164.66,1156.49l-1.89-.78-334.78-138.67,3.62-8.74,336.67,139.45-3.62,8.74Zm-331.31-141.67l329.1,136.32,.48-1.17-329.1-136.32-.48,1.17Z"/></g><g><rect class="cls-25" x="-4.54" y="902.24" width="5.36" height="360.31" transform="translate(-414.36 81.68) rotate(-22.5)"/><path class="cls-10" d="M63.5,1252.54l-.78-1.89L-75.95,915.88l8.74-3.62,.78,1.89,138.67,334.78-8.74,3.62ZM-70.6,918.09l136.32,329.1,1.17-.48L-69.43,917.61l-1.17,.48Z"/></g><g><g><rect class="cls-25" x="-4.54" y="902.24" width="5.36" height="360.31" transform="translate(414.07 83.1) rotate(22.5)"/><path class="cls-10" d="M-67.22,1252.54l-8.74-3.62,.78-1.89L63.5,912.26l8.74,3.62-.78,1.89-138.67,334.78Zm-3.38-5.84l1.17,.48L66.88,918.09l-1.17-.48-136.32,329.1Z"/></g><g><g><path class="cls-25" d="M62.69,926.56h0c5.06,2.1,10.87-.31,12.97-5.37l14.76-27.08c2.1-5.06-3.33-12.12-8.39-14.22h0c-5.06-2.1-13.89-.94-15.99,4.12l-8.72,29.59c-2.1,5.06,.31,10.87,5.37,12.97Z"/><path class="cls-10" d="M66.49,929.37c-1.55,0-3.11-.31-4.58-.92h0c-2.95-1.22-5.26-3.53-6.48-6.48-1.21-2.92-1.22-6.13-.04-9.06l8.76-29.69c1.23-2.96,4.19-5.08,8.35-5.97,3.53-.75,7.39-.48,10.32,.74,2.93,1.21,5.85,3.74,7.82,6.77,2.31,3.56,2.91,7.16,1.68,10.12l-.09,.2-14.71,26.99c-1.23,2.9-3.52,5.17-6.44,6.38-1.48,.61-3.03,.92-4.58,.92Zm1.48-44.67l-8.75,29.68c-.81,1.94-.81,4.08,0,6.03,.81,1.94,2.32,3.46,4.26,4.26h0c1.94,.81,4.08,.8,6.03,0,1.94-.81,3.46-2.32,4.26-4.26l.09-.2,14.7-26.98c.63-1.65,.14-3.91-1.37-6.23-1.51-2.33-3.79-4.33-5.95-5.22-4.37-1.81-11.67-.69-13.27,2.92Z"/></g><g><ellipse class="cls-2" cx="79.02" cy="887.13" rx="14.67" ry="28.45" transform="translate(-770.82 620.65) rotate(-67.5)"/><path class="cls-10" d="M91.04,906.57c-5.53,0-11.92-1.3-18.42-4-15.8-6.54-25.36-18.46-21.78-27.12,1.81-4.36,6.56-7.08,13.39-7.65,6.34-.54,13.87,.85,21.18,3.88,15.8,6.54,25.36,18.46,21.78,27.12-2.11,5.1-8.25,7.77-16.16,7.77Zm-24.04-34.79c-.83,0-1.63,.03-2.42,.1-5.15,.43-8.77,2.3-9.95,5.14h0c-2.62,6.32,6.34,16.29,19.56,21.77,13.22,5.48,26.6,4.76,29.22-1.56,2.62-6.32-6.34-16.29-19.56-21.77-5.8-2.4-11.68-3.68-16.85-3.68Zm-14.26,4.45h0Z"/></g><g><ellipse class="cls-2" cx="80.28" cy="884.11" rx="14.67" ry="28.45" transform="translate(-767.25 619.94) rotate(-67.5)"/><path class="cls-10" d="M92.32,903.54c-5.71,0-12.15-1.38-18.44-3.99-7.32-3.03-13.61-7.38-17.72-12.24-4.42-5.23-5.86-10.52-4.06-14.88,3.59-8.66,18.78-10.32,34.58-3.78,15.8,6.54,25.36,18.46,21.78,27.12-1.81,4.36-6.56,7.08-13.39,7.65-.89,.07-1.81,.11-2.74,.11Zm-24.23-34.79c-6.1,0-10.77,1.78-12.21,5.25h0c-1.17,2.84,.06,6.72,3.4,10.67,3.7,4.37,9.44,8.31,16.16,11.1,6.72,2.79,13.57,4.05,19.27,3.58,5.15-.43,8.77-2.3,9.95-5.14,2.62-6.32-6.34-16.29-19.56-21.77-5.97-2.47-11.98-3.68-17.01-3.68Zm-14.1,4.46h0Z"/></g><g><ellipse class="cls-1" cx="80.28" cy="884.11" rx="4.9" ry="14.06" transform="translate(-767.25 619.94) rotate(-67.5)"/><path class="cls-10" d="M89.01,893.19c-.32,0-.65,0-1-.03-3.03-.17-6.73-1.11-10.4-2.63-7.17-2.97-14.05-8.17-12.22-12.59h0c1.83-4.42,10.38-3.23,17.54-.26,7.17,2.97,14.05,8.17,12.22,12.59-.56,1.36-2.1,2.92-6.14,2.92Zm-19.81-13.67c.15,1.01,3.12,4.38,9.98,7.23,6.86,2.84,11.34,2.56,12.16,1.95-.15-1.01-3.12-4.38-9.98-7.23-6.86-2.84-11.35-2.56-12.17-1.95Z"/></g></g></g><g><g><rect class="cls-25" x="-4.54" y="902.24" width="5.36" height="360.31" transform="translate(998.86 669.9) rotate(67.5)"/><path class="cls-10" d="M-168.38,1156.49l-3.62-8.74,1.89-.78,334.78-138.67,3.62,8.74-1.89,.78-334.78,138.67Zm1.74-6.52l.48,1.17,329.1-136.32-.48-1.17-329.1,136.32Z"/></g><g><g><path class="cls-25" d="M153.98,1017.85h0c2.1,5.06,7.9,7.47,12.97,5.37l29.59-8.72c5.06-2.1,6.22-10.92,4.12-15.99h0c-2.1-5.06-9.15-10.49-14.22-8.39l-27.08,14.76c-5.06,2.1-7.47,7.9-5.37,12.97Z"/><path class="cls-10" d="M163.16,1026.02c-4.7,0-9.17-2.79-11.08-7.39h0c-1.22-2.96-1.22-6.21,0-9.17,1.21-2.92,3.47-5.2,6.38-6.44l27.19-14.8c2.96-1.23,6.56-.63,10.12,1.69,3.03,1.97,5.56,4.89,6.77,7.82,2.35,5.67,1.19,16.01-5.23,18.67l-.21,.07-29.49,8.69c-1.46,.59-2.97,.87-4.46,.87Zm24.14-34.04l-27.17,14.79c-1.94,.81-3.46,2.32-4.26,4.26-.81,1.94-.81,4.08,0,6.03h0c.81,1.94,2.32,3.46,4.26,4.26,1.94,.81,4.08,.81,6.03,0l.21-.07,29.47-8.68c3.61-1.61,4.73-8.91,2.92-13.27-1.81-4.37-7.76-8.74-11.45-7.32Z"/></g><g><ellipse class="cls-2" cx="193.41" cy="1001.52" rx="14.67" ry="28.45" transform="translate(-368.54 150.25) rotate(-22.5)"/><path class="cls-10" d="M201.23,1030.44c-8.08,0-17.65-8.97-23.27-22.53-6.54-15.8-4.88-30.99,3.78-34.58h0c4.37-1.81,9.65-.37,14.88,4.06,4.86,4.11,9.21,10.4,12.24,17.72,3.03,7.32,4.41,14.84,3.88,21.18-.57,6.83-3.29,11.58-7.65,13.39-1.23,.51-2.52,.75-3.85,.75Zm-15.64-53.75c-.81,0-1.58,.14-2.28,.43h0c-6.32,2.62-7.04,16-1.56,29.22,5.48,13.22,15.44,22.18,21.77,19.56,2.84-1.17,4.71-4.8,5.14-9.95,.48-5.71-.79-12.55-3.58-19.27-2.79-6.72-6.73-12.46-11.1-16.16-2.97-2.51-5.91-3.83-8.39-3.83Zm-3.07-1.46h0Z"/></g><g><ellipse class="cls-2" cx="196.43" cy="1000.26" rx="14.67" ry="28.45" transform="translate(-367.83 151.31) rotate(-22.5)"/><path class="cls-10" d="M204.22,1029.2c-3.45,0-7.24-1.64-11-4.82-4.86-4.11-9.21-10.4-12.24-17.72-6.54-15.8-4.88-30.99,3.78-34.58h0c4.37-1.81,9.65-.37,14.88,4.06,4.86,4.11,9.21,10.4,12.24,17.72,3.03,7.32,4.41,14.84,3.88,21.18-.57,6.83-3.29,11.58-7.65,13.39-1.23,.51-2.53,.76-3.88,.76Zm-17.89-53.33h0c-6.32,2.62-7.04,16-1.56,29.22,2.79,6.72,6.73,12.46,11.1,16.16,3.94,3.33,7.83,4.57,10.67,3.4,2.84-1.17,4.71-4.8,5.14-9.95,.48-5.71-.79-12.55-3.58-19.27-2.79-6.72-6.73-12.46-11.1-16.16-3.94-3.33-7.83-4.57-10.67-3.4Z"/></g><g><ellipse class="cls-1" cx="196.43" cy="1000.26" rx="4.9" ry="14.06" transform="translate(-367.83 151.31) rotate(-22.5)"/><path class="cls-10" d="M201.09,1015.44c-1.43,0-3.31-.75-5.59-3.3-2.02-2.27-3.97-5.54-5.5-9.21-1.52-3.68-2.46-7.37-2.63-10.4-.27-4.8,1.42-6.53,2.89-7.14h0c1.47-.61,3.89-.58,7.09,3.01,2.02,2.27,3.97,5.54,5.5,9.21,1.52,3.68,2.46,7.37,2.63,10.4,.27,4.8-1.42,6.53-2.89,7.14-.42,.18-.93,.3-1.5,.3Zm-9.25-26.25c-.61,.82-.89,5.3,1.95,12.17,2.84,6.86,6.21,9.83,7.22,9.98,.61-.82,.9-5.3-1.95-12.17-2.84-6.86-6.21-9.83-7.23-9.98Z"/></g></g></g></g><g><g><rect class="cls-25" x="19.16" y="947.18" width="4.71" height="58.41"/><path class="cls-10" d="M25.92,1007.64h-8.8v-62.51h8.8v62.51Zm-4.71-4.1h.61v-54.31h-.61v54.31Z"/></g><g><g><path class="cls-25" d="M21.51,955.74h0c-2.92,0-5.29-2.37-5.29-5.29l-1.74-16.35c0-2.92,4.11-5.29,7.03-5.29h0c2.92,0,7.03,2.37,7.03,5.29l-1.74,16.35c0,2.92-2.37,5.29-5.29,5.29Z"/><path class="cls-10" d="M21.51,957.79c-4.01,0-7.28-3.23-7.34-7.22l-1.74-16.46c0-4.41,5.47-7.34,9.08-7.34s9.08,2.93,9.08,7.34v.22s-1.74,16.25-1.74,16.25c-.06,3.99-3.33,7.22-7.34,7.22Zm-4.98-23.77l1.74,16.43c0,1.79,1.45,3.24,3.24,3.24s3.24-1.45,3.24-3.24v-.22s1.74-16.21,1.74-16.21c-.1-1.41-2.83-3.16-4.98-3.16s-4.88,1.75-4.98,3.16Z"/></g><g><g><circle class="cls-13" cx="21.51" cy="921.75" r="20.36"/><path class="cls-10" d="M21.51,944.16c-12.36,0-22.41-10.05-22.41-22.41s10.05-22.41,22.41-22.41,22.41,10.05,22.41,22.41-10.05,22.41-22.41,22.41Zm0-40.72c-10.1,0-18.31,8.21-18.31,18.31s8.21,18.31,18.31,18.31,18.31-8.21,18.31-18.31-8.21-18.31-18.31-18.31Z"/></g><g><path class="cls-3" d="M21.53,911.87c-4.77,0-8.51-2.01-8.51-4.57s3.74-4.57,8.51-4.57,8.51,2.01,8.51,4.57-3.74,4.57-8.51,4.57Z"/><path class="cls-10" d="M21.53,903.15c4.47,0,8.1,1.86,8.1,4.16s-3.63,4.16-8.1,4.16-8.1-1.86-8.1-4.16,3.63-4.16,8.1-4.16m0-.82c-5,0-8.92,2.19-8.92,4.98s3.92,4.98,8.92,4.98,8.92-2.19,8.92-4.98-3.92-4.98-8.92-4.98h0Z"/></g><g><path class="cls-10" d="M21.53,912.69c-5.32,0-9.33-2.32-9.33-5.39s4.01-5.39,9.33-5.39,9.33,2.32,9.33,5.39-4.01,5.39-9.33,5.39Zm0-8.32c-4.26,0-6.87,1.71-6.87,2.93s2.61,2.93,6.87,2.93,6.87-1.71,6.87-2.93-2.61-2.93-6.87-2.93Z"/><g class="cls-18"><g><ellipse class="cls-9" cx="21.51" cy="909.49" rx="8.1" ry="4.16"/><path class="cls-10" d="M21.51,914.88c-5.32,0-9.33-2.32-9.33-5.39s4.01-5.39,9.33-5.39,9.33,2.32,9.33,5.39-4.01,5.39-9.33,5.39Zm0-8.32c-4.26,0-6.87,1.71-6.87,2.93s2.61,2.93,6.87,2.93,6.87-1.71,6.87-2.93-2.61-2.93-6.87-2.93Z"/></g></g></g></g></g></g><g><g><rect class="cls-25" x="74.95" y="1056.67" width="58.41" height="4.71"/><path class="cls-10" d="M135.41,1063.43h-62.51v-8.8h62.51v8.8Zm-58.41-4.1h54.31v-.61h-54.31v.61Z"/></g><g><g><path class="cls-25" d="M124.8,1059.03h0c0,2.92,2.37,5.29,5.29,5.29l16.35,1.74c2.92,0,5.29-4.11,5.29-7.03h0c0-2.92-2.37-7.03-5.29-7.03l-16.35,1.74c-2.92,0-5.29,2.37-5.29,5.29Z"/><path class="cls-10" d="M146.44,1068.11h-.22s-16.25-1.74-16.25-1.74c-3.99-.06-7.22-3.33-7.22-7.34s3.23-7.27,7.22-7.34l16.47-1.74c4.41,0,7.34,5.47,7.34,9.08s-2.93,9.08-7.34,9.08Zm-16.35-12.32c-1.79,0-3.24,1.45-3.24,3.24s1.45,3.24,3.24,3.24h.22s16.21,1.74,16.21,1.74c1.41-.1,3.16-2.83,3.16-4.98s-1.75-4.88-3.16-4.98l-16.43,1.74Z"/></g><g><g><circle class="cls-13" cx="158.79" cy="1059.03" r="20.36"/><path class="cls-10" d="M158.79,1081.43c-12.36,0-22.41-10.05-22.41-22.41s10.05-22.41,22.41-22.41,22.41,10.05,22.41,22.41-10.05,22.41-22.41,22.41Zm0-40.72c-10.1,0-18.31,8.21-18.31,18.31s8.21,18.31,18.31,18.31,18.31-8.21,18.31-18.31-8.21-18.31-18.31-18.31Z"/></g><g><ellipse class="cls-3" cx="173.24" cy="1059.03" rx="4.57" ry="8.51"/><path class="cls-10" d="M173.23,1050.93c2.3,0,4.16,3.63,4.16,8.1s-1.86,8.1-4.16,8.1-4.16-3.63-4.16-8.1,1.86-8.1,4.16-8.1m0-.82c-2.79,0-4.98,3.92-4.98,8.92s2.19,8.92,4.98,8.92,4.98-3.92,4.98-8.92-2.19-8.92-4.98-8.92h0Z"/></g><g><path class="cls-10" d="M173.24,1068.34c-3.07,0-5.39-4.01-5.39-9.33s2.32-9.33,5.39-9.33,5.39,4.01,5.39,9.33-2.32,9.33-5.39,9.33Zm0-16.2c-1.22,0-2.93,2.61-2.93,6.87s1.71,6.87,2.93,6.87,2.93-2.61,2.93-6.87-1.71-6.87-2.93-6.87Z"/><g class="cls-7"><g><ellipse class="cls-9" cx="171.05" cy="1059.03" rx="4.16" ry="8.1"/><path class="cls-10" d="M171.05,1068.35c-3.07,0-5.39-4.01-5.39-9.33s2.32-9.33,5.39-9.33,5.39,4.01,5.39,9.33-2.32,9.33-5.39,9.33Zm0-16.2c-1.22,0-2.93,2.61-2.93,6.87s1.71,6.87,2.93,6.87,2.93-2.61,2.93-6.87-1.71-6.87-2.93-6.87Z"/></g></g></g></g></g></g><g><polygon class="cls-5" points="36.65 1077.91 2.63 1077.91 2.63 1043.89 -6.35 1043.89 -6.35 1077.91 -40.37 1077.91 -40.37 1086.89 -6.35 1086.89 -6.35 1120.91 2.63 1120.91 2.63 1086.89 36.65 1086.89 36.65 1077.91"/><path class="cls-10" d="M2.63,1122.96H-6.35c-1.13,0-2.05-.92-2.05-2.05v-31.97h-31.97c-1.13,0-2.05-.92-2.05-2.05v-8.99c0-1.13,.92-2.05,2.05-2.05H-8.4v-31.97c0-1.13,.92-2.05,2.05-2.05H2.63c1.13,0,2.05,.92,2.05,2.05v31.97h31.97c1.13,0,2.05,.92,2.05,2.05v8.99c0,1.13-.92,2.05-2.05,2.05H4.68v31.97c0,1.13-.92,2.05-2.05,2.05Zm-6.94-4.1H.58v-31.97c0-1.13,.92-2.05,2.05-2.05h31.97v-4.89H2.63c-1.13,0-2.05-.92-2.05-2.05v-31.97H-4.3v31.97c0,1.13-.92,2.05-2.05,2.05h-31.97v4.89H-6.35c1.13,0,2.05,.92,2.05,2.05v31.97Z"/></g><g><g><g><path class="cls-25" d="M-1.86,1060.84h0c-5.94,0-10.76-4.82-10.76-10.76l-3.54-33.24c0-5.94,8.36-10.76,14.3-10.76h0c5.94,0,14.3,4.82,14.3,10.76l-3.54,33.24c0,5.94-4.82,10.76-10.76,10.76Z"/><path class="cls-10" d="M-1.86,1062.89c-7.02,0-12.75-5.68-12.81-12.69l-3.54-33.36c0-7.43,9.77-12.81,16.35-12.81s16.35,5.38,16.35,12.81v.22s-3.55,33.14-3.55,33.14c-.06,7.01-5.78,12.69-12.81,12.69Zm-12.25-46.15l3.54,33.34c0,4.8,3.91,8.71,8.71,8.71s8.71-3.91,8.71-8.71v-.22s3.54-33.12,3.54-33.12c-.1-4.37-7.05-8.61-12.25-8.61s-12.15,4.24-12.25,8.61Z"/></g><g><path class="cls-23" d="M36.98,1006c21.91,20.72-5.29,37.51-38.84,23.98-33.55,13.53-60.75-3.27-38.84-23.98-21.91-20.72,5.29-37.51,38.84-23.98,33.55-13.53,60.75,3.27,38.84,23.98Z"/><path class="cls-10" d="M21.43,1036.95c-6.85,0-14.76-1.42-23.29-4.76-22.67,8.88-40.95,4.22-46.72-4.77-4-6.23-2.17-13.96,4.97-21.42-7.14-7.46-8.96-15.19-4.97-21.42,5.77-8.99,24.04-13.64,46.72-4.77,22.67-8.87,40.95-4.22,46.72,4.77,4,6.23,2.17,13.96-4.97,21.42,7.14,7.46,8.96,15.19,4.97,21.42-3.6,5.61-12.07,9.53-23.43,9.53Zm-23.29-9.02c.26,0,.52,.05,.77,.15,20.22,8.15,37.49,4.94,42.5-2.87,3.14-4.9,1.07-11.19-5.83-17.72-.41-.39-.64-.93-.64-1.49s.23-1.1,.64-1.49c6.9-6.53,8.98-12.82,5.83-17.72-5.01-7.82-22.28-11.02-42.5-2.87-.49,.2-1.04,.2-1.53,0-20.22-8.15-37.49-4.94-42.5,2.87-3.14,4.9-1.07,11.19,5.83,17.72,.41,.39,.64,.93,.64,1.49s-.23,1.1-.64,1.49c-6.9,6.53-8.98,12.82-5.83,17.72,5.01,7.82,22.28,11.03,42.5,2.87,.25-.1,.51-.15,.77-.15Z"/></g><g><path class="cls-24" d="M36.98,1000.06c21.91,20.72-5.29,37.51-38.84,23.98-33.55,13.53-60.75-3.27-38.84-23.98-21.91-20.72,5.29-37.51,38.84-23.98,33.55-13.53,60.75,3.27,38.84,23.98Z"/><path class="cls-10" d="M21.43,1031.01c-6.85,0-14.76-1.42-23.29-4.76-22.67,8.88-40.95,4.23-46.72-4.77-4-6.23-2.17-13.96,4.97-21.42-7.14-7.46-8.96-15.19-4.97-21.42,5.77-8.99,24.04-13.64,46.72-4.77,22.67-8.87,40.95-4.22,46.72,4.77,4,6.23,2.17,13.96-4.97,21.42,7.14,7.46,8.96,15.19,4.97,21.42-3.6,5.61-12.07,9.53-23.43,9.53Zm-23.29-9.02c.26,0,.52,.05,.77,.15,20.22,8.15,37.49,4.94,42.5-2.87,3.14-4.9,1.07-11.19-5.83-17.72-.41-.39-.64-.93-.64-1.49s.23-1.1,.64-1.49c6.9-6.53,8.98-12.82,5.83-17.72-5.01-7.82-22.28-11.02-42.5-2.87-.49,.2-1.04,.2-1.53,0-20.22-8.15-37.49-4.94-42.5,2.87-3.14,4.9-1.07,11.19,5.83,17.72,.41,.39,.64,.93,.64,1.49s-.23,1.1-.64,1.49c-6.9,6.53-8.98,12.82-5.83,17.72,5.01,7.81,22.28,11.03,42.5,2.87,.25-.1,.51-.15,.77-.15Z"/></g><g><ellipse class="cls-21" cx="-1.86" cy="998.47" rx="19.94" ry="7.62"/><path class="cls-10" d="M-1.86,1008.13c-10.93,0-21.99-3.32-21.99-9.67s11.06-9.67,21.99-9.67,21.99,3.32,21.99,9.67-11.06,9.67-21.99,9.67Zm0-15.24c-10.75,0-17.89,3.35-17.89,5.57s7.13,5.57,17.89,5.57,17.89-3.35,17.89-5.57-7.13-5.57-17.89-5.57Z"/></g></g><g><g><path class="cls-25" d="M20.21,1082.4h0c0-5.94,4.82-10.76,10.76-10.76l33.24-3.54c5.94,0,10.76,8.36,10.76,14.3h0c0,5.94-4.82,14.3-10.76,14.3l-33.24-3.54c-5.94,0-10.76-4.82-10.76-10.76Z"/><path class="cls-10" d="M64.22,1098.75h-.22s-33.14-3.55-33.14-3.55c-7.01-.06-12.69-5.78-12.69-12.81s5.68-12.74,12.69-12.81l33.36-3.55c7.43,0,12.81,9.77,12.81,16.35s-5.38,16.35-12.81,16.35Zm-33.24-25.06c-4.8,0-8.71,3.91-8.71,8.71s3.91,8.71,8.71,8.71h.22s33.12,3.54,33.12,3.54c4.37-.1,8.61-7.05,8.61-12.25s-4.24-12.15-8.61-12.25l-33.34,3.54Z"/></g><g><path class="cls-23" d="M75.06,1121.24c-20.72,21.91-37.51-5.29-23.98-38.84-13.53-33.55,3.27-60.75,23.98-38.84,20.72-21.91,37.51,5.29,23.98,38.84,13.53,33.55-3.27,60.75-23.98,38.84Z"/><path class="cls-10" d="M89.5,1131.19c-4.6,0-9.57-2.39-14.44-7.05-7.46,7.14-15.19,8.96-21.42,4.97-8.99-5.77-13.64-24.04-4.77-46.72-8.88-22.67-4.22-40.95,4.77-46.72,6.23-4,13.96-2.17,21.42,4.97,7.46-7.14,15.19-8.96,21.42-4.97,8.99,5.77,13.64,24.04,4.77,46.72,8.88,22.67,4.23,40.95-4.77,46.72-2.17,1.39-4.52,2.08-6.99,2.08Zm-14.44-12c.56,0,1.1,.23,1.49,.64,6.53,6.9,12.82,8.98,17.72,5.83,7.81-5.01,11.03-22.28,2.87-42.5-.2-.49-.2-1.04,0-1.53,8.15-20.22,4.94-37.49-2.87-42.5-4.9-3.14-11.19-1.07-17.72,5.83-.77,.82-2.2,.82-2.98,0-6.53-6.9-12.82-8.98-17.72-5.83-7.81,5.01-11.03,22.28-2.87,42.5,.2,.49,.2,1.04,0,1.53-8.15,20.22-4.94,37.49,2.87,42.5,4.9,3.14,11.19,1.07,17.72-5.83,.39-.41,.93-.64,1.49-.64Z"/></g><g><path class="cls-24" d="M81,1121.24c-20.72,21.91-37.51-5.29-23.98-38.84-13.53-33.55,3.27-60.75,23.98-38.84,20.72-21.91,37.51,5.29,23.98,38.84,13.53,33.55-3.27,60.75-23.98,38.84Z"/><path class="cls-10" d="M95.43,1131.19c-4.6,0-9.57-2.39-14.44-7.05-7.46,7.14-15.19,8.96-21.42,4.97-8.99-5.77-13.64-24.04-4.77-46.72-8.88-22.67-4.22-40.95,4.77-46.72,6.23-4,13.96-2.17,21.42,4.97,7.46-7.14,15.19-8.96,21.42-4.97,8.99,5.77,13.64,24.04,4.77,46.72,8.88,22.67,4.23,40.95-4.77,46.72-2.17,1.39-4.52,2.08-6.99,2.08Zm-14.44-12c.56,0,1.1,.23,1.49,.64,6.53,6.9,12.82,8.98,17.72,5.83,7.81-5.01,11.03-22.28,2.87-42.5-.2-.49-.2-1.04,0-1.53,8.15-20.22,4.94-37.49-2.87-42.5-4.9-3.14-11.19-1.07-17.72,5.83-.77,.82-2.2,.82-2.98,0-6.53-6.9-12.82-8.98-17.72-5.83-7.81,5.01-11.03,22.28-2.87,42.5,.2,.49,.2,1.04,0,1.53-8.15,20.22-4.94,37.49,2.87,42.5,4.9,3.14,11.19,1.07,17.72-5.83,.39-.41,.93-.64,1.49-.64Z"/></g><g><ellipse class="cls-21" cx="82.59" cy="1082.4" rx="7.62" ry="19.94"/><path class="cls-10" d="M82.59,1104.38c-6.35,0-9.67-11.06-9.67-21.99s3.32-21.99,9.67-21.99,9.67,11.06,9.67,21.99-3.32,21.99-9.67,21.99Zm0-39.87c-2.22,0-5.57,7.13-5.57,17.89s3.35,17.89,5.57,17.89,5.57-7.13,5.57-17.89-3.35-17.89-5.57-17.89Z"/></g></g></g><g><g><path class="cls-21" d="M25.63,1082.4c7.5,19.32-8.17,34.99-27.49,27.49-19.32,7.5-34.99-8.17-27.49-27.49-7.5-19.32,8.17-34.99,27.49-27.49,19.32-7.5,34.99,8.17,27.49,27.49Z"/><path class="cls-10" d="M-11.61,1113.86c-5.96,0-11.4-2.11-15.5-6.21-6.26-6.26-7.89-15.65-4.43-25.25-3.47-9.6-1.83-18.99,4.43-25.25,6.26-6.26,15.65-7.89,25.25-4.43,9.6-3.47,18.99-1.83,25.25,4.42,6.26,6.26,7.89,15.65,4.43,25.25,3.47,9.6,1.83,18.99-4.43,25.25-6.26,6.26-15.65,7.89-25.25,4.42-3.31,1.2-6.61,1.79-9.75,1.79Zm.03-58.82c-4.9,0-9.33,1.7-12.63,5-5.24,5.24-6.44,13.32-3.23,21.61,.18,.48,.18,1.01,0,1.48-3.22,8.29-2.01,16.37,3.23,21.61,5.24,5.24,13.32,6.45,21.61,3.23,.48-.18,1.01-.18,1.48,0,8.29,3.22,16.37,2.01,21.61-3.23,5.24-5.24,6.44-13.32,3.23-21.61-.18-.48-.18-1.01,0-1.48,3.22-8.3,2.01-16.37-3.23-21.61-5.24-5.24-13.32-6.44-21.61-3.23-.48,.18-1.01,.18-1.48,0-3.07-1.19-6.1-1.78-8.98-1.78Z"/></g><g><circle class="cls-11" cx="-1.86" cy="1082.4" r="8.99"/><path class="cls-10" d="M-1.86,1093.43c-6.08,0-11.04-4.95-11.04-11.03s4.95-11.03,11.04-11.03,11.03,4.95,11.03,11.03-4.95,11.03-11.03,11.03Zm0-17.97c-3.83,0-6.94,3.11-6.94,6.94s3.11,6.94,6.94,6.94,6.94-3.11,6.94-6.94-3.11-6.94-6.94-6.94Z"/></g></g></g><g><path class="cls-20" d="M348.5,1023.91c1.62,4.01,3.46,7.76,6.1,11.21s5.28,6.4,8.57,9.04c6.85,5.49,14.41,9.42,22.68,12.37,7.18,2.56,14.64,4.14,22.18,5.17,10.71,1.45,21.46,2.2,32.27,1.94,12.05-.29,24.11-1.7,35.93-4.09,2.06-.42,4.19-2.25,5.23-4.02,1.1-1.88,1.56-4.64,.88-6.74-1.54-4.77-5.95-7.08-10.76-6.11-4.24,.86-8.5,1.57-12.79,2.15l2.33-.31c-16.84,2.22-33.92,2.23-50.76,0l2.33,.31c-9.07-1.22-18.04-3.29-26.49-6.84l2.09,.88c-4.91-2.08-9.6-4.66-13.83-7.91l1.77,1.37c-2.93-2.28-5.59-4.87-7.87-7.79l1.37,1.77c-2-2.61-3.67-5.44-4.95-8.47l.88,2.09c-.09-.21-.18-.43-.26-.64-.88-2.2-1.9-3.99-4.02-5.23-1.88-1.1-4.64-1.56-6.74-.88s-4.16,2-5.23,4.02-1.74,4.61-.88,6.74h0Z"/><path class="cls-20" d="M331,928.55c-8.56-16.56-22.1-30.92-38.31-40.18-5.91-3.38-12.26-6.12-18.82-8.04,5.84-13.93,8.23-29.35,7.11-44.38-1.41-18.93-7.59-37.74-18.75-53.2-5.97-8.27-12.9-15.35-21.1-21.4-7.68-5.66-16.45-9.88-25.52-12.77-18.25-5.82-38.36-5.88-56.83-1.07-18.25,4.75-35.65,14.6-48.22,28.77-1.91,2.15-3.67,4.41-5.4,6.7-1.28,1.69-1.42,4.8-.88,6.74,.56,2.03,2.13,4.23,4.02,5.23,2.03,1.07,4.49,1.61,6.74,.88,2.08-.67,3.48-1.85,4.8-3.48-.11,.14-.22,.28-.33,.42,4-5.15,8.62-9.78,13.71-13.84,5.61-4.21,11.7-7.72,18.12-10.53,7.23-2.93,14.79-4.98,22.51-6.13,7.68-.93,15.45-.96,23.14-.04,6.9,1.03,13.66,2.83,20.13,5.45,5.55,2.45,10.8,5.5,15.66,9.13,4.93,3.93,9.37,8.42,13.29,13.34,4.29,5.72,7.87,11.92,10.74,18.46,2.98,7.32,5.06,14.98,6.22,22.8,.91,7.54,.94,15.17,.03,22.71-1,6.69-2.75,13.25-5.28,19.53-1.26,2.87-2.68,5.66-4.26,8.36-1.42,2.43-1.52,5.24-.44,7.79,.95,2.25,3.07,4.69,5.67,5.07,6,.87,11.85,2.49,17.46,4.75,5.87,2.59,11.41,5.86,16.54,9.71,5.48,4.36,10.44,9.34,14.8,14.82,4.32,5.75,7.97,11.97,10.86,18.55,2.52,6.23,4.33,12.73,5.33,19.38,.7,6.01,.72,12.07,0,18.08,0,.04-.01,.08-.02,.12-.37,2.41-.4,4.56,.88,6.74,1.06,1.81,3.14,3.55,5.23,4.02,2.24,.51,4.75,.4,6.74-.88,1.79-1.15,3.68-3.03,4.02-5.23,.77-5,1.27-10.02,1.18-15.08-.09-5.02-.68-10.05-1.58-14.98-1.67-9.17-4.94-18.06-9.21-26.33Z"/><path class="cls-20" d="M417.23,978.44c5.88,0,11.52-5.17,11.25-11.25s-4.94-11.25-11.25-11.25c-5.88,0-11.52,5.17-11.25,11.25s4.94,11.25,11.25,11.25h0Z"/></g></g></svg>