<?xml version="1.0" encoding="UTF-8"?><svg id="_레이어_1" xmlns="http://www.w3.org/2000/svg" xmlns:xlink="http://www.w3.org/1999/xlink" viewBox="0 0 953.34 1080.6"><defs><style>.cls-1{fill:#ed6d00;}.cls-2{fill:#fce7e7;}.cls-3{fill:#f18d3c;}.cls-4{fill:#43499c;}.cls-5{clip-path:url(#clippath-2);}.cls-6{fill:#9ac5e9;}.cls-7{clip-path:url(#clippath-1);}.cls-8{clip-path:url(#clippath-4);}.cls-9{fill:#ef8b9e;}.cls-10{fill:#bbc8e7;}.cls-11{fill:#13519c;}.cls-12{fill:#9cc9e6;}.cls-13{fill:#e1c9e1;}.cls-14{fill:#2a99d7;}.cls-15{fill:#c14393;}.cls-16{clip-path:url(#clippath);}.cls-17{fill:none;}.cls-18{fill:#e51d1a;}.cls-19{clip-path:url(#clippath-3);}.cls-20{fill:#cba5cc;}.cls-21{fill:#f2f6fb;stroke:#335fa4;stroke-miterlimit:10;stroke-width:2px;}.cls-22{fill:#fff4b5;}.cls-23{clip-path:url(#clippath-5);}.cls-24{fill:#ead66b;}.cls-25{fill:#6ca4ca;}.cls-26{fill:#b1d9e1;}.cls-27{fill:#058b8a;}.cls-28{fill:#f29966;}</style><clipPath id="clippath"><rect class="cls-17" x="-966.66" width="1920" height="1080.6"/></clipPath><clipPath id="clippath-1"><path class="cls-11" d="M747.32,924.8c-1.28,0-2.36-.4-3.15-1.19-2.44-2.44-1.05-7.51,3.23-11.8,4.28-4.28,9.36-5.67,11.8-3.23,1.25,1.25,1.53,3.24,.77,5.6-.67,2.08-2.09,4.28-4,6.19s-4.11,3.33-6.19,4c-.88,.28-1.7,.42-2.46,.42Zm8.73-14.95c-1.74,0-4.46,1.25-6.91,3.7-3.31,3.31-4.43,7.12-3.23,8.32s5.01,.07,8.32-3.23c3.31-3.31,4.43-7.12,3.23-8.32-.31-.31-.8-.47-1.41-.47Z"/></clipPath><clipPath id="clippath-2"><path class="cls-11" d="M785.62,886.54c-1.27,0-2.37-.39-3.18-1.2-2.44-2.44-1.05-7.51,3.23-11.8,4.28-4.28,9.36-5.67,11.8-3.23,1.25,1.25,1.53,3.24,.77,5.6-.67,2.08-2.09,4.28-4,6.19-2.86,2.86-6.07,4.43-8.62,4.43Zm8.7-14.96c-1.74,0-4.46,1.25-6.91,3.7-3.31,3.31-4.43,7.12-3.23,8.32,1.2,1.2,5.01,.07,8.32-3.23s4.43-7.12,3.23-8.32c-.31-.31-.8-.47-1.41-.47Z"/></clipPath><clipPath id="clippath-3"><path class="cls-11" d="M933.63,912.69c-5.32,0-9.33-2.32-9.33-5.39s4.01-5.39,9.33-5.39,9.33,2.32,9.33,5.39-4.01,5.39-9.33,5.39Zm0-8.32c-4.26,0-6.87,1.71-6.87,2.93s2.61,2.93,6.87,2.93,6.87-1.71,6.87-2.93-2.61-2.93-6.87-2.93Z"/></clipPath><clipPath id="clippath-4"><path class="cls-11" d="M781.93,1068.34c-3.07,0-5.39-4.01-5.39-9.33s2.32-9.33,5.39-9.33,5.39,4.01,5.39,9.33-2.32,9.33-5.39,9.33Zm0-16.2c-1.22,0-2.93,2.61-2.93,6.87s1.71,6.87,2.93,6.87,2.93-2.61,2.93-6.87-1.71-6.87-2.93-6.87Z"/></clipPath><clipPath id="clippath-5"><path class="cls-11" d="M781.93,1068.26c-3.07,0-5.39-4.01-5.39-9.33s2.32-9.33,5.39-9.33,5.39,4.01,5.39,9.33-2.32,9.33-5.39,9.33Zm0-16.2c-1.22,0-2.93,2.61-2.93,6.87s1.71,6.87,2.93,6.87,2.93-2.61,2.93-6.87-1.71-6.87-2.93-6.87Z"/></clipPath></defs><g class="cls-16"><g><g><g><g><rect class="cls-27" x="953.18" y="971.73" width="7.83" height="219.98" transform="translate(2398.76 1169.84) rotate(135)"/><path class="cls-11" d="M1032.1,1165.16l-1.45-1.45-157-157,8.44-8.44,158.45,158.45-8.44,8.44Zm-152.65-158.45l152.65,152.65,2.64-2.64-152.65-152.65-2.64,2.64Z"/></g><g><g><g><g><rect class="cls-27" x="802.69" y="933.72" width="6.42" height="73.17" transform="translate(-450.06 854.05) rotate(-45)"/><path class="cls-11" d="M829.5,1001.34l-54.64-54.64,7.44-7.44,54.64,54.64-7.44,7.44Zm-48.84-54.64l48.84,48.84,1.64-1.64-48.84-48.84-1.64,1.64Z"/></g><g><g><path class="cls-27" d="M791.39,955.87h0c-2.4,2.4-6.28,2.4-8.68,0l-14.84-11.98c-2.4-2.4-.97-7.71,1.43-10.11h0c2.4-2.4,7.71-3.83,10.11-1.43l11.98,14.84c2.4,2.4,2.4,6.28,0,8.68Z"/><path class="cls-11" d="M787.05,959.72c-2.15,0-4.17-.82-5.71-2.32l-14.92-12.06c-1.59-1.59-2.18-4.03-1.65-6.88,.44-2.35,1.59-4.64,3.08-6.13,1.49-1.49,3.78-2.64,6.13-3.08,2.84-.53,5.29,.06,6.88,1.65l.15,.16,11.92,14.76c3.11,3.2,3.08,8.33-.08,11.49-1.55,1.55-3.6,2.4-5.79,2.4Zm-17.79-17.34l14.9,12.05c1.59,1.59,4.19,1.59,5.78,0h0c1.59-1.59,1.59-4.19,0-5.78l-.15-.16-11.9-14.74c-.61-.54-1.79-.72-3.17-.46-1.52,.28-3.08,1.05-3.98,1.95-1.76,1.76-2.8,5.7-1.49,7.15Z"/></g><g><g><circle class="cls-20" cx="763.54" cy="927.95" r="23.62"/><path class="cls-11" d="M763.54,953.61c-6.57,0-13.15-2.5-18.15-7.51-10.01-10.01-10.01-26.29,0-36.3,10.01-10.01,26.3-10.01,36.3,0,10.01,10.01,10.01,26.29,0,36.3-5,5.01-11.58,7.51-18.15,7.51Zm0-47.22c-5.52,0-11.05,2.1-15.25,6.31-8.41,8.41-8.41,22.1,0,30.51,8.41,8.41,22.1,8.41,30.51,0,8.41-8.41,8.41-22.1,0-30.51-4.21-4.21-9.73-6.31-15.26-6.31Z"/></g><g><path class="cls-15" d="M747.33,923.97c-1.07,0-1.96-.33-2.58-.95-2.08-2.08-.66-6.75,3.23-10.64,2.58-2.58,5.67-4.18,8.06-4.18,1.07,0,1.96,.33,2.58,.95,2.08,2.08,.66,6.75-3.23,10.64-2.58,2.58-5.67,4.18-8.06,4.18Z"/><path class="cls-11" d="M756.05,908.62c.93,0,1.73,.27,2.29,.83,1.88,1.88,.44,6.39-3.23,10.06-2.58,2.58-5.57,4.06-7.77,4.06-.93,0-1.73-.27-2.29-.83-1.88-1.88-.44-6.39,3.23-10.06,2.58-2.58,5.57-4.06,7.77-4.06m0-.82h0c-2.5,0-5.7,1.65-8.35,4.3-4.05,4.05-5.47,8.98-3.23,11.22,.7,.7,1.69,1.07,2.87,1.07,2.5,0,5.7-1.65,8.35-4.3,1.87-1.87,3.25-4.01,3.9-6.03,.71-2.21,.47-4.05-.67-5.19-.7-.7-1.69-1.07-2.87-1.07h0Z"/></g><g><path class="cls-11" d="M747.32,924.8c-1.28,0-2.36-.4-3.15-1.19-2.44-2.44-1.05-7.51,3.23-11.8,4.28-4.28,9.36-5.67,11.8-3.23,1.25,1.25,1.53,3.24,.77,5.6-.67,2.08-2.09,4.28-4,6.19s-4.11,3.33-6.19,4c-.88,.28-1.7,.42-2.46,.42Zm8.73-14.95c-1.74,0-4.46,1.25-6.91,3.7-3.31,3.31-4.43,7.12-3.23,8.32s5.01,.07,8.32-3.23c3.31-3.31,4.43-7.12,3.23-8.32-.31-.31-.8-.47-1.41-.47Z"/><g class="cls-7"><g><ellipse class="cls-13" cx="753.49" cy="917.89" rx="9.4" ry="4.83" transform="translate(-428.35 801.64) rotate(-45)"/><path class="cls-11" d="M749.15,926.6c-1.27,0-2.37-.39-3.18-1.2-2.44-2.44-1.05-7.51,3.23-11.8,4.28-4.28,9.35-5.67,11.8-3.23,2.44,2.44,1.05,7.51-3.23,11.8-2.86,2.86-6.07,4.43-8.62,4.43Zm8.7-14.96c-1.74,0-4.46,1.25-6.91,3.7-3.31,3.31-4.43,7.12-3.23,8.32,1.2,1.2,5.01,.07,8.32-3.23,3.31-3.31,4.43-7.12,3.23-8.32-.31-.31-.8-.47-1.41-.47Z"/></g></g></g></g></g></g><g><g><rect class="cls-27" x="840.96" y="895.45" width="6.42" height="73.17" transform="translate(-411.8 869.9) rotate(-45)"/><path class="cls-11" d="M867.77,963.07l-54.64-54.64,7.44-7.44,54.64,54.64-7.44,7.44Zm-48.84-54.64l48.84,48.84,1.64-1.64-48.84-48.84-1.64,1.64Z"/></g><g><g><path class="cls-27" d="M829.66,917.6h0c-2.4,2.4-6.28,2.4-8.68,0l-14.84-11.98c-2.4-2.4-.97-7.71,1.43-10.11h0c2.4-2.4,7.71-3.83,10.11-1.43l11.98,14.84c2.4,2.4,2.4,6.28,0,8.68Z"/><path class="cls-11" d="M825.32,921.45c-2.06,0-4.12-.77-5.71-2.31l-14.92-12.06c-3.48-3.48-1.44-10.13,1.43-13.01,1.49-1.49,3.78-2.64,6.13-3.08,2.84-.53,5.29,.06,6.88,1.65l.15,.16,11.92,14.76c3.11,3.2,3.08,8.33-.08,11.49h0c-1.6,1.6-3.69,2.39-5.79,2.39Zm-17.79-17.34l14.9,12.05c1.59,1.59,4.19,1.59,5.78,0,1.59-1.59,1.59-4.19,0-5.78l-.15-.16-11.9-14.74c-1.45-1.3-5.39-.27-7.15,1.49-.9,.9-1.67,2.46-1.95,3.98-.26,1.39-.08,2.56,.46,3.17Z"/></g><g><g><circle class="cls-20" cx="801.81" cy="889.68" r="23.62"/><path class="cls-11" d="M801.81,915.34c-6.57,0-13.15-2.5-18.15-7.51-10.01-10.01-10.01-26.29,0-36.3,10.01-10.01,26.3-10.01,36.3,0,10.01,10.01,10.01,26.29,0,36.3-5,5.01-11.58,7.51-18.15,7.51Zm0-47.22c-5.53,0-11.05,2.1-15.26,6.31-8.41,8.41-8.41,22.1,0,30.51,8.41,8.41,22.1,8.41,30.51,0,8.41-8.41,8.41-22.1,0-30.51-4.21-4.21-9.73-6.31-15.25-6.31Z"/></g><g><path class="cls-15" d="M785.6,885.71c-1.07,0-1.96-.33-2.58-.95-2.08-2.08-.66-6.75,3.23-10.64,2.58-2.58,5.67-4.18,8.06-4.18,1.07,0,1.96,.33,2.58,.95,2.08,2.08,.66,6.75-3.23,10.64-2.58,2.58-5.67,4.18-8.06,4.18Z"/><path class="cls-11" d="M794.32,870.35c.93,0,1.73,.27,2.29,.83,1.88,1.88,.44,6.39-3.23,10.06-2.58,2.58-5.57,4.06-7.77,4.06-.93,0-1.73-.27-2.29-.83-1.88-1.88-.44-6.39,3.23-10.06,2.58-2.58,5.57-4.06,7.77-4.06m0-.82c-2.5,0-5.7,1.65-8.35,4.3-4.05,4.05-5.47,8.98-3.23,11.22,.7,.7,1.69,1.07,2.87,1.07,2.5,0,5.7-1.65,8.35-4.3,1.87-1.87,3.25-4.01,3.9-6.03,.71-2.21,.47-4.05-.67-5.19-.7-.7-1.69-1.07-2.87-1.07h0Z"/></g><g><path class="cls-11" d="M785.62,886.54c-1.27,0-2.37-.39-3.18-1.2-2.44-2.44-1.05-7.51,3.23-11.8,4.28-4.28,9.36-5.67,11.8-3.23,1.25,1.25,1.53,3.24,.77,5.6-.67,2.08-2.09,4.28-4,6.19-2.86,2.86-6.07,4.43-8.62,4.43Zm8.7-14.96c-1.74,0-4.46,1.25-6.91,3.7-3.31,3.31-4.43,7.12-3.23,8.32,1.2,1.2,5.01,.07,8.32-3.23s4.43-7.12,3.23-8.32c-.31-.31-.8-.47-1.41-.47Z"/><g class="cls-5"><g><ellipse class="cls-13" cx="791.75" cy="879.62" rx="9.4" ry="4.83" transform="translate(-390.09 817.49) rotate(-45)"/><path class="cls-11" d="M787.42,888.33c-1.27,0-2.37-.39-3.18-1.2-1.25-1.25-1.53-3.24-.77-5.6,.67-2.08,2.09-4.28,4-6.19,4.28-4.28,9.35-5.68,11.8-3.23,2.44,2.44,1.05,7.51-3.23,11.8-2.86,2.86-6.07,4.43-8.62,4.43Zm8.7-14.96c-1.74,0-4.46,1.25-6.91,3.7-3.31,3.31-4.43,7.12-3.23,8.32,1.2,1.2,5.01,.07,8.32-3.23,3.31-3.31,4.43-7.12,3.23-8.32-.31-.31-.8-.47-1.41-.47Z"/></g></g></g></g></g></g></g><g><g><path class="cls-27" d="M890.68,1016.82h0c-3.89,3.89-10.2,3.89-14.1,0l-24.1-19.46c-3.89-3.89-1.57-12.53,2.32-16.42h0c3.89-3.89,12.53-6.21,16.42-2.32l19.46,24.1c3.89,3.89,3.89,10.2,0,14.1Z"/><path class="cls-11" d="M883.63,1021.78c-3.04,0-6.08-1.14-8.42-3.43l-24.18-19.54c-4.93-4.93-2.04-14.96,2.32-19.32s14.39-7.25,19.32-2.32l.15,.16,19.39,24.02c4.6,4.69,4.58,12.25-.08,16.91-2.34,2.34-5.42,3.51-8.5,3.51Zm-29.77-25.94l24.17,19.53c1.5,1.5,3.48,2.32,5.6,2.32s4.1-.82,5.6-2.32c1.5-1.5,2.32-3.48,2.32-5.6s-.82-4.1-2.32-5.6l-.15-.16-19.38-24.01c-1.29-1.22-3.58-1.63-6.32-1.13-2.74,.51-5.47,1.85-7.13,3.51s-3.01,4.39-3.51,7.13c-.51,2.73-.1,5.03,1.13,6.32Z"/></g><g><path class="cls-24" d="M837.42,963.55c-16.09-16.09-42.26,53.08-12.03,31.81-30.23,21.27,22.77,37.85,24.37,7.62-1.6,30.23,57.32-28.7,27.1-27.1,30.23-1.6,13.65-54.6-7.62-24.37,21.27-30.23-47.9-4.05-31.81,12.03Z"/><path class="cls-11" d="M832.25,1021.54c-7.79,0-15.15-3.76-17.45-9.34-.93-2.27-1.54-6.07,1.42-10.7-2.46,.1-4.03-.96-5.02-2.21-5.37-6.77,2.91-28.05,12.16-36.3,3.25-2.9,6.56-4.2,9.61-3.88-.32-3.05,.98-6.36,3.88-9.61,8.25-9.26,29.52-17.53,36.3-12.16,1.25,.99,2.29,2.56,2.21,5.02,4.64-2.96,8.44-2.36,10.7-1.42,6.52,2.69,10.56,12.3,9.01,21.42-1.08,6.31-4.58,11.02-9.81,13.54,.71,.61,1.26,1.36,1.65,2.24,2.73,6.14-4.12,16.15-11.44,23.47-7.32,7.32-17.34,14.18-23.47,11.44-.88-.39-1.63-.95-2.24-1.66-2.52,5.23-7.23,8.73-13.54,9.81-1.32,.23-2.66,.33-3.98,.33Zm-5.69-24.51c-6.79,4.78-9.62,9.61-7.97,13.6,1.93,4.69,9.85,7.74,16.94,6.53,4.3-.73,11.6-3.57,12.17-14.29,.06-1.13,1.03-2,2.15-1.94,1.09,.06,1.94,.96,1.94,2.05,0,.04,0,.07,0,.11-.13,2.4,.1,5.43,1.88,6.22,3.28,1.46,11.41-3.09,18.91-10.59,7.5-7.5,12.05-15.63,10.59-18.9-.79-1.79-3.82-2.01-6.22-1.88-1.14,.08-2.09-.81-2.15-1.94,0-.04,0-.07,0-.11,0-1.08,.85-1.99,1.94-2.05,10.73-.57,13.56-7.87,14.29-12.17,1.21-7.09-1.84-15.01-6.53-16.95-4-1.65-8.83,1.18-13.6,7.97-.65,.93-1.93,1.15-2.85,.5-.57-.4-.87-1.03-.87-1.68,0-.41,.12-.82,.37-1.18,3.45-4.91,4.6-8.57,3.05-9.79-4.19-3.33-22.94,2.98-30.69,11.68-5.15,5.78-2.06,8.86-1.05,9.88,.4,.4,.6,.92,.6,1.45s-.2,1.05-.6,1.45c-.8,.8-2.1,.8-2.9,0-1.01-1.01-4.1-4.1-9.88,1.05-8.7,7.75-15.01,26.49-11.68,30.69,1.22,1.54,4.88,.4,9.79-3.05,.93-.65,2.2-.43,2.85,.5,.25,.36,.37,.77,.37,1.18,0,.64-.3,1.28-.87,1.68Z"/></g><g><path class="cls-24" d="M832.92,959.05c-16.09-16.09-42.26,53.08-12.03,31.81-30.23,21.27,22.77,37.85,24.37,7.62-1.6,30.23,57.32-28.7,27.1-27.1,30.23-1.6,13.65-54.6-7.62-24.37,21.27-30.23-47.9-4.05-31.81,12.03Zm16.03,16.03c-5.36,12.24-15.34,16.52-10.25,4.39-12.12,5.08-7.84-4.9,4.39-10.25,5.36-12.24,15.34-16.52,10.25-4.39,12.12-5.08,7.84,4.9-4.39,10.25Z"/><path class="cls-11" d="M827.75,1017.04c-7.79,0-15.15-3.76-17.45-9.34-.93-2.27-1.54-6.07,1.42-10.7-2.47,.09-4.03-.96-5.02-2.21-5.37-6.77,2.91-28.05,12.16-36.3,3.25-2.9,6.56-4.2,9.61-3.88-.32-3.05,.98-6.36,3.88-9.61,8.25-9.26,29.52-17.53,36.3-12.16,1.25,.99,2.29,2.56,2.21,5.02,4.64-2.96,8.44-2.36,10.7-1.42,6.52,2.69,10.56,12.3,9.01,21.42-1.08,6.31-4.58,11.02-9.81,13.54,.71,.61,1.26,1.36,1.65,2.24,2.73,6.14-4.12,16.15-11.44,23.47-7.32,7.32-17.34,14.17-23.47,11.44-.88-.39-1.63-.95-2.24-1.65-2.52,5.23-7.23,8.73-13.54,9.81-1.32,.23-2.66,.33-3.98,.33Zm-5.69-24.51c-6.79,4.78-9.62,9.61-7.97,13.6,1.93,4.69,9.86,7.74,16.94,6.53,4.3-.73,11.6-3.57,12.17-14.29,.06-1.13,1.03-2.01,2.15-1.94,1.09,.06,1.94,.96,1.94,2.05,0,.04,0,.07,0,.11-.13,2.4,.1,5.43,1.88,6.22,3.27,1.46,11.4-3.09,18.9-10.59,7.5-7.5,12.05-15.63,10.59-18.9-.8-1.79-3.82-2.01-6.22-1.88-1.14,.07-2.09-.81-2.15-1.94,0-.04,0-.07,0-.11,0-1.08,.85-1.99,1.94-2.05,10.73-.57,13.56-7.87,14.29-12.17,1.21-7.09-1.84-15.01-6.53-16.94-3.99-1.65-8.83,1.18-13.6,7.97-.65,.93-1.93,1.15-2.85,.5-.57-.4-.87-1.03-.87-1.68,0-.41,.12-.82,.37-1.18,3.45-4.91,4.59-8.57,3.05-9.79-4.2-3.33-22.94,2.98-30.69,11.68-5.15,5.77-2.06,8.86-1.05,9.88,.4,.4,.6,.92,.6,1.45s-.2,1.05-.6,1.45c-.8,.8-2.1,.8-2.9,0-1.01-1.01-4.1-4.1-9.88,1.05-8.7,7.75-15.01,26.49-11.68,30.69,1.22,1.54,4.88,.4,9.79-3.05,.93-.65,2.2-.43,2.85,.5,.25,.36,.37,.77,.37,1.18,0,.64-.3,1.28-.87,1.68Zm16.68-3.78c-.49,0-.96-.09-1.4-.28-1.89-.81-2.51-2.75-1.86-5.79-3.04,.65-4.98,.03-5.79-1.86-1.72-4.02,4.7-9.83,11.84-13.15,3.32-7.15,9.13-13.57,13.15-11.84,1.89,.81,2.51,2.75,1.86,5.79,3.04-.65,4.98-.03,5.79,1.86,1.72,4.02-4.7,9.83-11.84,13.15-2.95,6.35-7.87,12.13-11.75,12.13Zm-.05-11.33c.53,0,1.06,.21,1.45,.6,.59,.59,.76,1.47,.44,2.24-.92,2.2-1.18,3.48-1.23,4.16,1.61-.84,5.07-4.12,7.72-10.17,.21-.47,.58-.85,1.06-1.06,6.05-2.65,9.33-6.11,10.17-7.72-.68,.05-1.96,.31-4.16,1.23-.77,.32-1.65,.15-2.24-.44s-.76-1.47-.44-2.24c.92-2.2,1.18-3.48,1.23-4.16-1.61,.84-5.07,4.12-7.72,10.17-.21,.47-.58,.85-1.06,1.06-6.05,2.65-9.33,6.11-10.17,7.72,.68-.05,1.96-.31,4.16-1.23,.26-.11,.52-.16,.79-.16Z"/></g><g><path class="cls-22" d="M832.92,959.05c-16.09-16.09-42.26,53.08-12.03,31.81-30.23,21.27,22.77,37.85,24.37,7.62-1.6,30.23,57.32-28.7,27.1-27.1,30.23-1.6,13.65-54.6-7.62-24.37,21.27-30.23-47.9-4.05-31.81,12.03Zm16.03,16.03c-5.36,12.24-15.34,16.52-10.25,4.39-12.12,5.08-7.84-4.9,4.39-10.25,5.36-12.24,15.34-16.52,10.25-4.39,12.12-5.08,7.84,4.9-4.39,10.25Z"/><path class="cls-11" d="M827.75,1017.04c-7.79,0-15.15-3.76-17.45-9.34-.93-2.27-1.54-6.07,1.42-10.7-2.47,.09-4.03-.96-5.02-2.21-5.37-6.77,2.91-28.05,12.16-36.3,3.25-2.9,6.56-4.2,9.61-3.88-.32-3.05,.98-6.36,3.88-9.61,8.25-9.26,29.52-17.53,36.3-12.16,1.25,.99,2.29,2.56,2.21,5.02,4.64-2.96,8.44-2.36,10.7-1.42,6.52,2.69,10.56,12.3,9.01,21.42-1.08,6.31-4.58,11.02-9.81,13.54,.71,.61,1.26,1.36,1.65,2.24,2.73,6.14-4.12,16.15-11.44,23.47-7.32,7.32-17.34,14.17-23.47,11.44-.88-.39-1.63-.95-2.24-1.65-2.52,5.23-7.23,8.73-13.54,9.81-1.32,.23-2.66,.33-3.98,.33Zm-5.69-24.51c-6.79,4.78-9.62,9.61-7.97,13.6,1.93,4.69,9.86,7.74,16.94,6.53,4.3-.73,11.6-3.57,12.17-14.29,.06-1.13,1.03-2.01,2.15-1.94,1.09,.06,1.94,.96,1.94,2.05,0,.04,0,.07,0,.11-.13,2.4,.1,5.43,1.88,6.22,3.27,1.46,11.4-3.09,18.9-10.59,7.5-7.5,12.05-15.63,10.59-18.9-.8-1.79-3.82-2.01-6.22-1.88-1.14,.07-2.09-.81-2.15-1.94,0-.04,0-.07,0-.11,0-1.08,.85-1.99,1.94-2.05,10.73-.57,13.56-7.87,14.29-12.17,1.21-7.09-1.84-15.01-6.53-16.94-3.99-1.65-8.83,1.18-13.6,7.97-.65,.93-1.93,1.15-2.85,.5-.57-.4-.87-1.03-.87-1.68,0-.41,.12-.82,.37-1.18,3.45-4.91,4.59-8.57,3.05-9.79-4.2-3.33-22.94,2.98-30.69,11.68-5.15,5.77-2.06,8.86-1.05,9.88,.4,.4,.6,.92,.6,1.45s-.2,1.05-.6,1.45c-.8,.8-2.1,.8-2.9,0-1.01-1.01-4.1-4.1-9.88,1.05-8.7,7.75-15.01,26.49-11.68,30.69,1.22,1.54,4.88,.4,9.79-3.05,.93-.65,2.2-.43,2.85,.5,.25,.36,.37,.77,.37,1.18,0,.64-.3,1.28-.87,1.68Zm16.68-3.78c-.49,0-.96-.09-1.4-.28-1.89-.81-2.51-2.75-1.86-5.79-3.04,.65-4.98,.03-5.79-1.86-1.72-4.02,4.7-9.83,11.84-13.15,3.32-7.15,9.13-13.57,13.15-11.84,1.89,.81,2.51,2.75,1.86,5.79,3.04-.65,4.98-.03,5.79,1.86,1.72,4.02-4.7,9.83-11.84,13.15-2.95,6.35-7.87,12.13-11.75,12.13Zm-.05-11.33c.53,0,1.06,.21,1.45,.6,.59,.59,.76,1.47,.44,2.24-.92,2.2-1.18,3.48-1.23,4.16,1.61-.84,5.07-4.12,7.72-10.17,.21-.47,.58-.85,1.06-1.06,6.05-2.65,9.33-6.11,10.17-7.72-.68,.05-1.96,.31-4.16,1.23-.77,.32-1.65,.15-2.24-.44s-.76-1.47-.44-2.24c.92-2.2,1.18-3.48,1.23-4.16-1.61,.84-5.07,4.12-7.72,10.17-.21,.47-.58,.85-1.06,1.06-6.05,2.65-9.33,6.11-10.17,7.72,.68-.05,1.96-.31,4.16-1.23,.26-.11,.52-.16,.79-.16Z"/></g></g></g></g><g><rect class="cls-27" x="952.43" y="972.33" width="7.83" height="219.98" transform="translate(1045.42 -359.23) rotate(45)"/><path class="cls-11" d="M881.34,1165.76l-8.44-8.44,1.45-1.45,157-157,8.44,8.44-158.45,158.45Zm-2.64-8.44l2.64,2.64,152.65-152.65-2.64-2.64-152.65,152.65Z"/></g></g><g><g><g><rect class="cls-27" x="953.17" y="868.15" width="7.7" height="426.2"/><path class="cls-11" d="M962.92,1296.39h-11.8v-430.29h11.8v430.29Zm-7.7-4.1h3.61v-422.1h-3.61v422.1Z"/></g><g><g><path class="cls-27" d="M957.02,890.96h0c-7.19,0-13.02-5.83-13.02-13.02l-4.29-40.22c0-7.19,10.12-13.02,17.3-13.02h0c7.19,0,17.3,5.83,17.3,13.02l-4.29,40.22c0,7.19-5.83,13.02-13.02,13.02Z"/><path class="cls-11" d="M957.02,893.01c-8.27,0-15-6.7-15.06-14.95l-4.29-40.33c0-8.74,11.56-15.06,19.35-15.06s19.35,6.33,19.35,15.06v.22s-4.29,40.11-4.29,40.11c-.06,8.26-6.79,14.95-15.06,14.95Zm-15.25-55.38l4.29,40.32c0,6.05,4.92,10.97,10.97,10.97s10.97-4.92,10.97-10.97v-.22s4.29-40.1,4.29-40.1c-.1-5.51-8.77-10.87-15.25-10.87s-15.15,5.36-15.25,10.87Z"/></g><g><path class="cls-2" d="M957.02,794.6c0-30.67-63.16-9.41-27.07,9.11-36.09-18.52-51.69,29.25-6.69,20.48-45.01,8.78-1.3,47.09,18.73,16.42-20.03,30.67,50.08,30.67,30.05,0,20.03,30.67,63.74-7.64,18.73-16.42,45.01,8.78,29.41-39-6.69-20.48,36.09-18.52-27.07-39.78-27.07-9.11Z"/><path class="cls-11" d="M957.02,865.63c-6.14,0-12.27-1.72-16.21-5.15-1.82-1.58-4.88-5.14-4.43-10.83-7.22,5.32-15.43,5.56-21.72,3.46-8.1-2.7-13.47-9.06-13.06-15.48,.18-2.77,1.55-6.96,7.32-10.52-9.09-1.03-12.66-5.44-13.95-7.83-2.67-4.96-1.45-11.16,3.1-15.8,4.2-4.28,11.45-7.31,20.92-5.71-2.71-3.72-2.45-6.99-1.77-9.06,2.73-8.35,16.63-12.94,26.78-11.32,6.15,.98,10.61,3.91,13.02,8.38,2.41-4.46,6.87-7.4,13.02-8.38,10.15-1.62,24.05,2.98,26.78,11.32,.68,2.07,.93,5.34-1.77,9.06,9.47-1.6,16.72,1.43,20.92,5.71,4.55,4.64,5.77,10.84,3.1,15.8-1.29,2.39-4.86,6.8-13.95,7.83,5.77,3.56,7.15,7.76,7.32,10.52,.41,6.42-4.96,12.78-13.06,15.48-6.3,2.1-14.51,1.85-21.72-3.46,.45,5.69-2.61,9.24-4.43,10.83-3.94,3.43-10.08,5.15-16.21,5.15Zm-13.31-23.9c-3.01,4.61-5.49,11.07-.21,15.66,6.44,5.61,20.6,5.61,27.04,0,5.28-4.6,2.8-11.05-.21-15.66-.23-.35-.33-.74-.33-1.12,0-.67,.33-1.32,.93-1.72,.95-.62,2.22-.35,2.84,.59,8.88,13.6,20.87,10.9,24.33,9.74,6.24-2.08,10.55-6.84,10.26-11.33-.34-5.28-6.89-9.54-17.97-11.7-.98-.19-1.66-1.05-1.66-2.01,0-.13,.01-.26,.04-.39,.22-1.11,1.3-1.83,2.4-1.62,12.29,2.4,21.37,.59,24.29-4.83,1.8-3.34,.85-7.66-2.42-10.99-4.79-4.89-14.67-7.67-28.02-.82-1.01,.52-2.24,.12-2.76-.89-.15-.3-.23-.62-.23-.93,0-.74,.41-1.46,1.11-1.83,7.54-3.87,11.01-8.1,9.77-11.89-1.86-5.69-13.08-10.01-22.24-8.55-5.3,.84-11.62,3.81-11.62,13.15,0,1.13-.92,2.05-2.05,2.05s-2.05-.92-2.05-2.05c0-9.34-6.32-12.31-11.62-13.15-9.15-1.46-20.38,2.86-22.24,8.55-1.24,3.8,2.23,8.02,9.77,11.89,.71,.36,1.11,1.08,1.11,1.83,0,.31-.07,.63-.23,.93-.52,1.01-1.76,1.4-2.76,.89-13.35-6.85-23.22-4.07-28.02,.82-3.27,3.33-4.22,7.65-2.42,10.99,2.92,5.42,12,7.23,24.29,4.83,1.1-.21,2.19,.51,2.4,1.62,.03,.13,.04,.26,.04,.39,0,.96-.68,1.82-1.66,2.01-11.08,2.16-17.63,6.43-17.97,11.7-.29,4.49,4.03,9.25,10.26,11.33,3.46,1.15,15.44,3.86,24.33-9.74,.62-.95,1.89-1.21,2.84-.59,.6,.39,.93,1.05,.93,1.72,0,.38-.11,.77-.33,1.12Z"/></g><g><path class="cls-9" d="M957.02,787.42c0-30.67-63.16-9.41-27.07,9.11-36.09-18.52-51.69,29.25-6.69,20.48-45.01,8.78-1.3,47.09,18.73,16.42-20.03,30.67,50.08,30.67,30.05,0,20.03,30.67,63.74-7.64,18.73-16.42,45.01,8.78,29.41-39-6.69-20.48,36.09-18.52-27.07-39.78-27.07-9.11Z"/><path class="cls-11" d="M957.02,858.45c-6.14,0-12.27-1.72-16.21-5.15-1.82-1.58-4.88-5.14-4.43-10.83-7.22,5.32-15.43,5.56-21.72,3.46-8.1-2.7-13.47-9.06-13.06-15.48,.18-2.77,1.55-6.96,7.32-10.52-9.09-1.03-12.66-5.44-13.95-7.83-2.67-4.96-1.45-11.16,3.1-15.8,4.2-4.28,11.45-7.31,20.92-5.71-2.71-3.72-2.45-6.99-1.77-9.06,2.73-8.34,16.63-12.94,26.78-11.32,6.15,.98,10.61,3.91,13.02,8.38,2.41-4.46,6.87-7.4,13.02-8.38,10.14-1.61,24.05,2.98,26.78,11.32,.68,2.07,.93,5.34-1.77,9.06,9.47-1.6,16.72,1.43,20.92,5.71,4.55,4.64,5.77,10.84,3.1,15.8-1.29,2.39-4.86,6.8-13.95,7.83,5.77,3.56,7.15,7.76,7.32,10.52,.41,6.42-4.96,12.78-13.06,15.48-6.3,2.1-14.51,1.85-21.72-3.46,.45,5.69-2.61,9.24-4.43,10.82-3.94,3.43-10.08,5.15-16.21,5.15Zm-13.31-23.9c-3.01,4.61-5.49,11.07-.21,15.66,6.44,5.61,20.6,5.61,27.04,0,5.28-4.6,2.8-11.05-.21-15.66-.23-.35-.33-.74-.33-1.12,0-.67,.33-1.32,.93-1.72,.95-.62,2.22-.35,2.84,.59,8.88,13.6,20.87,10.9,24.33,9.74,6.24-2.08,10.55-6.84,10.26-11.33-.34-5.28-6.89-9.54-17.97-11.7-.98-.19-1.66-1.05-1.66-2.01,0-.13,.01-.26,.04-.39,.22-1.11,1.3-1.83,2.4-1.62,12.29,2.4,21.37,.59,24.29-4.83,1.8-3.34,.85-7.66-2.42-10.99-4.79-4.89-14.67-7.67-28.02-.82-1.01,.52-2.24,.12-2.76-.89-.15-.3-.23-.62-.23-.93,0-.74,.41-1.46,1.11-1.83,7.54-3.87,11.01-8.1,9.77-11.89-1.86-5.69-13.09-10.01-22.24-8.55-5.3,.84-11.62,3.81-11.62,13.15,0,1.13-.92,2.05-2.05,2.05s-2.05-.92-2.05-2.05c0-9.34-6.32-12.31-11.62-13.15-9.15-1.46-20.38,2.86-22.24,8.55-1.24,3.8,2.23,8.02,9.77,11.89,.71,.36,1.11,1.08,1.11,1.83,0,.31-.07,.63-.23,.93-.52,1.01-1.76,1.4-2.76,.89-13.35-6.85-23.22-4.07-28.02,.82-3.27,3.33-4.22,7.65-2.42,10.99,2.92,5.42,12,7.23,24.29,4.83,1.1-.21,2.19,.51,2.4,1.62,.03,.13,.04,.26,.04,.39,0,.96-.68,1.82-1.66,2.01-11.08,2.16-17.63,6.43-17.97,11.7-.29,4.49,4.03,9.25,10.26,11.33,3.46,1.15,15.45,3.86,24.33-9.74,.62-.95,1.89-1.21,2.84-.59,.6,.39,.93,1.05,.93,1.72,0,.38-.11,.77-.33,1.12Z"/></g><g><ellipse class="cls-18" cx="957.02" cy="809.64" rx="16.51" ry="7.93"/><path class="cls-11" d="M957.02,819.62c-10.58,0-18.56-4.29-18.56-9.98s7.98-9.98,18.56-9.98,18.56,4.29,18.56,9.98-7.98,9.98-18.56,9.98Zm0-15.87c-8.96,0-14.46,3.43-14.46,5.88s5.5,5.88,14.46,5.88,14.46-3.43,14.46-5.88-5.5-5.88-14.46-5.88Z"/></g></g></g><g><g><rect class="cls-27" x="954.32" y="869.3" width="7.7" height="426.2" transform="translate(2040.57 124.23) rotate(90)"/><path class="cls-11" d="M1173.32,1088.3h-430.29v-11.8h430.29v11.8Zm-426.2-4.1h422.1v-3.6h-422.1v3.6Z"/></g><g><g><path class="cls-27" d="M765.58,1082.4h0c0-7.19-5.83-13.02-13.02-13.02l-40.22-4.29c-7.19,0-13.02,10.12-13.02,17.3h0c0,7.19,5.83,17.3,13.02,17.3l40.22-4.29c7.19,0,13.02-5.83,13.02-13.02Z"/><path class="cls-11" d="M712.46,1101.75h-.11c-8.74,0-15.06-11.56-15.06-19.35s6.33-19.35,15.06-19.35h.22s40.12,4.29,40.12,4.29c8.26,.06,14.95,6.79,14.95,15.06s-6.7,15-14.95,15.06l-40.22,4.29Zm-.21-34.61c-5.51,.1-10.87,8.77-10.87,15.25s5.36,15.15,10.87,15.25l40.32-4.29c6.05,0,10.97-4.92,10.97-10.97s-4.92-10.97-10.97-10.97h-.22s-40.1-4.29-40.1-4.29Z"/></g><g><path class="cls-2" d="M669.23,1082.4c-30.67,0-9.41-63.16,9.11-27.07-18.52-36.09,29.25-51.69,20.48-6.69,8.78-45.01,47.09-1.3,16.42,18.73,30.67-20.03,30.67,50.08,0,30.05,30.67,20.03-7.64,63.74-16.42,18.73,8.78,45.01-39,29.41-20.48-6.69-18.52,36.09-39.78-27.07-9.11-27.07Z"/><path class="cls-11" d="M688.33,1145.85c-3.55,0-7.21-1.55-10.22-4.5-4.28-4.2-7.31-11.45-5.71-20.92-3.72,2.71-6.99,2.45-9.06,1.77-8.35-2.73-12.94-16.64-11.32-26.78,.98-6.15,3.91-10.61,8.38-13.02-4.46-2.41-7.4-6.88-8.38-13.02-1.62-10.14,2.98-24.05,11.32-26.78,2.07-.68,5.34-.93,9.06,1.77-1.6-9.47,1.43-16.72,5.71-20.92,4.64-4.55,10.84-5.77,15.8-3.1,2.39,1.29,6.8,4.86,7.83,13.95,3.56-5.77,7.76-7.15,10.52-7.32,6.39-.41,12.78,4.96,15.48,13.06,2.1,6.3,1.85,14.51-3.46,21.72,5.7-.46,9.24,2.61,10.83,4.43,6.86,7.88,6.86,24.54,0,32.42-1.58,1.82-5.13,4.88-10.83,4.43,5.32,7.22,5.56,15.43,3.46,21.72-2.7,8.1-9.06,13.46-15.48,13.06-2.77-.18-6.96-1.55-10.52-7.32-1.03,9.09-5.44,12.66-7.83,13.95-1.75,.94-3.65,1.4-5.58,1.4Zm-7.95-36.37c0,.31-.07,.63-.23,.93-6.85,13.35-4.07,23.23,.82,28.02,3.33,3.27,7.65,4.22,10.99,2.42,5.42-2.92,7.23-12,4.83-24.29-.03-.13-.04-.26-.04-.39,0-.96,.68-1.82,1.66-2.01,1.1-.21,2.19,.51,2.4,1.62,2.16,11.08,6.43,17.63,11.7,17.97,4.47,.3,9.25-4.03,11.33-10.26,1.15-3.46,3.86-15.45-9.74-24.33-.6-.39-.93-1.05-.93-1.72,0-.38,.11-.77,.33-1.12,.62-.95,1.89-1.21,2.84-.59,4.61,3.01,11.07,5.49,15.66,.21,5.61-6.44,5.61-20.6,0-27.04-4.6-5.28-11.05-2.8-15.66,.21-.95,.62-2.22,.35-2.84-.59-.23-.35-.33-.74-.33-1.12,0-.67,.33-1.32,.93-1.72,13.6-8.88,10.9-20.87,9.74-24.33-2.08-6.24-6.84-10.58-11.33-10.26-5.28,.34-9.54,6.89-11.7,17.97-.22,1.11-1.3,1.84-2.4,1.62-.98-.19-1.66-1.05-1.66-2.01,0-.13,.01-.26,.04-.39,2.4-12.29,.59-21.37-4.83-24.29-3.34-1.8-7.66-.85-10.99,2.42-4.89,4.79-7.67,14.67-.82,28.02,.15,.3,.23,.62,.23,.93,0,.74-.41,1.46-1.11,1.83-1.01,.52-2.24,.12-2.76-.89-3.87-7.54-8.09-11.01-11.89-9.77-5.69,1.86-10.01,13.09-8.55,22.24,.85,5.3,3.81,11.62,13.15,11.62,1.13,0,2.05,.92,2.05,2.05s-.92,2.05-2.05,2.05c-9.34,0-12.31,6.32-13.15,11.62-1.46,9.15,2.86,20.38,8.55,22.24,3.8,1.24,8.02-2.23,11.89-9.77,.52-1.01,1.75-1.4,2.76-.89,.71,.36,1.11,1.08,1.11,1.83Z"/></g><g><path class="cls-9" d="M662.04,1082.4c-30.67,0-9.41-63.16,9.11-27.07-18.52-36.09,29.25-51.69,20.48-6.69,8.78-45.01,47.09-1.3,16.42,18.73,30.67-20.03,30.67,50.08,0,30.05,30.67,20.03-7.64,63.74-16.42,18.73,8.78,45.01-39,29.41-20.48-6.69-18.52,36.09-39.78-27.07-9.11-27.07Z"/><path class="cls-11" d="M681.15,1145.85c-3.55,0-7.21-1.55-10.22-4.5-4.28-4.2-7.31-11.45-5.71-20.92-3.72,2.71-6.99,2.45-9.06,1.77-8.34-2.73-12.94-16.64-11.32-26.78,.98-6.15,3.91-10.61,8.38-13.02-4.46-2.41-7.4-6.87-8.38-13.02-1.62-10.14,2.98-24.05,11.32-26.78,2.07-.68,5.34-.93,9.06,1.77-1.6-9.47,1.43-16.72,5.71-20.92,4.64-4.55,10.85-5.77,15.8-3.1,2.39,1.29,6.8,4.86,7.83,13.95,3.56-5.77,7.76-7.15,10.52-7.32,6.41-.4,12.78,4.96,15.48,13.06,2.1,6.3,1.85,14.51-3.46,21.72,5.7-.46,9.24,2.61,10.83,4.43,6.86,7.88,6.86,24.54,0,32.42-1.58,1.82-5.14,4.88-10.83,4.43,5.31,7.22,5.56,15.43,3.46,21.72-2.7,8.1-9.09,13.46-15.48,13.06-2.77-.18-6.96-1.55-10.52-7.32-1.03,9.09-5.44,12.66-7.83,13.95-1.75,.94-3.65,1.4-5.58,1.4Zm-7.95-36.37c0,.31-.07,.63-.23,.93-6.85,13.35-4.07,23.23,.82,28.02,3.33,3.27,7.65,4.22,10.99,2.42,5.42-2.92,7.23-12,4.83-24.29-.03-.13-.04-.26-.04-.39,0-.96,.68-1.82,1.66-2.01,1.11-.21,2.19,.51,2.4,1.62,2.16,11.08,6.43,17.63,11.7,17.97,4.49,.29,9.25-4.03,11.33-10.26,1.15-3.46,3.86-15.45-9.74-24.33-.6-.39-.93-1.05-.93-1.72,0-.38,.11-.77,.33-1.12,.62-.95,1.89-1.21,2.84-.59,4.61,3.01,11.07,5.49,15.66,.21,5.61-6.44,5.61-20.6,0-27.04-4.6-5.28-11.05-2.8-15.66,.21-.95,.62-2.22,.35-2.84-.59-.23-.35-.33-.74-.33-1.12,0-.67,.33-1.32,.93-1.72,13.6-8.88,10.9-20.87,9.74-24.33-2.08-6.24-6.86-10.57-11.33-10.26-5.28,.34-9.54,6.89-11.7,17.97-.22,1.11-1.3,1.84-2.4,1.62-.98-.19-1.66-1.05-1.66-2.01,0-.13,.01-.26,.04-.39,2.4-12.29,.59-21.37-4.83-24.29-3.34-1.8-7.66-.85-10.99,2.42-4.89,4.79-7.67,14.67-.82,28.02,.15,.3,.23,.62,.23,.93,0,.74-.41,1.46-1.11,1.83-1.01,.52-2.24,.12-2.76-.89-3.87-7.54-8.1-11.01-11.89-9.77-5.69,1.86-10.01,13.09-8.55,22.24,.84,5.3,3.81,11.62,13.15,11.62,1.13,0,2.05,.92,2.05,2.05s-.92,2.05-2.05,2.05c-9.34,0-12.31,6.32-13.15,11.62-1.46,9.15,2.86,20.38,8.55,22.24,3.8,1.24,8.02-2.23,11.89-9.77,.52-1.01,1.75-1.4,2.76-.89,.71,.36,1.11,1.08,1.11,1.83Z"/></g><g><ellipse class="cls-18" cx="684.26" cy="1082.4" rx="7.93" ry="16.51"/><path class="cls-11" d="M684.26,1100.96c-5.69,0-9.98-7.98-9.98-18.56s4.29-18.56,9.98-18.56,9.98,7.98,9.98,18.56-4.29,18.56-9.98,18.56Zm0-33.02c-2.46,0-5.88,5.5-5.88,14.46s3.43,14.46,5.88,14.46,5.88-5.5,5.88-14.46-3.43-14.46-5.88-14.46Z"/></g></g></g></g><g><g><g><rect class="cls-27" x="954.34" y="902.24" width="5.36" height="360.31" transform="translate(-409.22 1552.36) rotate(-67.5)"/><path class="cls-11" d="M1123.55,1156.49l-1.89-.78-334.78-138.67,3.62-8.74,336.67,139.45-3.62,8.74Zm-331.31-141.67l329.1,136.32,.48-1.17-329.1-136.32-.48,1.17Z"/></g><g><g><path class="cls-27" d="M801.18,1017.85h0c2.1-5.06-.31-10.87-5.37-12.97l-27.08-14.76c-5.06-2.1-12.12,3.33-14.22,8.39h0c-2.1,5.06-.94,13.89,4.12,15.99l29.59,8.72c5.06,2.1,10.87-.31,12.97-5.37Z"/><path class="cls-11" d="M792.01,1026.03c-1.51,0-3.03-.29-4.48-.87l-29.69-8.76c-6.42-2.66-7.58-13-5.23-18.67,1.21-2.93,3.74-5.85,6.77-7.82,3.56-2.32,7.16-2.91,10.12-1.69l.2,.09,26.99,14.71c6.03,2.56,8.89,9.54,6.38,15.6-1.22,2.95-3.53,5.26-6.48,6.48-1.48,.61-3.03,.92-4.58,.92Zm-32.69-13.46l29.68,8.75c1.94,.81,4.08,.81,6.03,0s3.46-2.32,4.26-4.26c.81-1.94,.81-4.08,0-6.03-.81-1.94-2.32-3.46-4.26-4.26l-.2-.09-26.98-14.7c-3.68-1.42-9.64,2.95-11.45,7.32-1.81,4.36-.69,11.67,2.92,13.27Z"/></g><g><ellipse class="cls-2" cx="761.75" cy="1001.52" rx="28.45" ry="14.67" transform="translate(-455.04 1322.02) rotate(-67.5)"/><path class="cls-11" d="M753.93,1030.44c-1.33,0-2.62-.24-3.85-.75h0c-8.66-3.59-10.32-18.78-3.78-34.58,6.54-15.8,18.45-25.37,27.12-21.78,8.66,3.59,10.32,18.78,3.78,34.58-5.62,13.56-15.19,22.53-23.27,22.53Zm-2.28-4.54c6.31,2.62,16.29-6.34,21.77-19.56s4.76-26.6-1.56-29.22c-6.32-2.62-16.29,6.34-21.77,19.56-5.48,13.22-4.76,26.6,1.56,29.22h0Z"/></g><g><ellipse class="cls-2" cx="758.73" cy="1000.26" rx="28.45" ry="14.67" transform="translate(-455.75 1318.46) rotate(-67.5)"/><path class="cls-11" d="M750.94,1029.2c-1.35,0-2.66-.25-3.88-.76h0c-4.36-1.81-7.08-6.56-7.65-13.39-.53-6.34,.85-13.87,3.88-21.18,6.54-15.8,18.45-25.37,27.12-21.78,8.66,3.59,10.32,18.78,3.78,34.58-3.03,7.32-7.38,13.61-12.24,17.72-3.76,3.18-7.55,4.82-11,4.82Zm15.52-53.78c-6.24,0-14.57,8.35-19.4,20.01-2.79,6.72-4.06,13.57-3.58,19.27,.43,5.15,2.3,8.77,5.14,9.95h0c2.84,1.17,6.72-.06,10.67-3.4,4.37-3.7,8.31-9.43,11.1-16.16,5.48-13.22,4.76-26.6-1.56-29.22-.74-.31-1.54-.46-2.37-.46Z"/></g><g><ellipse class="cls-1" cx="758.73" cy="1000.26" rx="14.06" ry="4.9" transform="translate(-455.75 1318.46) rotate(-67.5)"/><path class="cls-11" d="M754.07,1015.44c-.58,0-1.08-.12-1.5-.3-1.47-.61-3.16-2.34-2.89-7.14,.17-3.03,1.11-6.73,2.63-10.4,1.52-3.68,3.47-6.95,5.5-9.21,3.2-3.59,5.63-3.61,7.09-3.01,1.47,.61,3.16,2.34,2.89,7.14-.17,3.03-1.11,6.73-2.63,10.4-1.52,3.68-3.47,6.95-5.5,9.22-2.28,2.55-4.16,3.3-5.59,3.3Zm9.25-26.25c-1.01,.15-4.38,3.12-7.23,9.98-2.84,6.86-2.56,11.34-1.95,12.17,1.01-.15,4.38-3.12,7.23-9.98,2.84-6.86,2.56-11.34,1.95-12.17Z"/></g></g></g><g><g><rect class="cls-27" x="954.34" y="902.24" width="5.36" height="360.31" transform="translate(-341.37 448.63) rotate(-22.5)"/><path class="cls-11" d="M1022.38,1252.54l-.78-1.89-138.67-334.78,8.74-3.62,.78,1.89,138.67,334.78-8.74,3.62Zm-134.1-334.45l136.32,329.1,1.17-.48-136.32-329.1-1.17,.48Z"/></g><g><g><path class="cls-27" d="M892.47,926.56h0c5.06-2.1,7.47-7.9,5.37-12.97l-8.72-29.59c-2.1-5.06-10.92-6.22-15.99-4.12h0c-5.06,2.1-10.49,9.15-8.39,14.22l14.76,27.08c2.1,5.06,7.9,7.47,12.97,5.37Z"/><path class="cls-11" d="M888.67,929.37c-1.55,0-3.1-.31-4.58-.92-2.92-1.21-5.2-3.47-6.44-6.38l-14.8-27.19c-1.23-2.96-.63-6.56,1.69-10.12,1.97-3.03,4.89-5.56,7.82-6.77,2.93-1.21,6.78-1.49,10.32-.74,4.16,.88,7.12,3,8.35,5.97l.07,.21,8.69,29.49c1.18,2.93,1.17,6.14-.04,9.06-1.22,2.95-3.53,5.26-6.48,6.48-1.48,.61-3.03,.92-4.58,.92Zm-22.07-36.14l14.79,27.17c.81,1.94,2.32,3.46,4.26,4.26,1.94,.8,4.08,.8,6.03,0h0c1.94-.81,3.46-2.32,4.26-4.26,.81-1.94,.81-4.08,0-6.03l-.07-.21-8.68-29.47c-.72-1.61-2.67-2.86-5.38-3.44-2.72-.58-5.74-.38-7.9,.51-2.16,.89-4.44,2.89-5.95,5.22-1.51,2.32-2,4.58-1.37,6.23Z"/></g><g><ellipse class="cls-2" cx="876.14" cy="887.13" rx="28.45" ry="14.67" transform="translate(-272.8 402.81) rotate(-22.5)"/><path class="cls-11" d="M864.09,906.57c-.93,0-1.85-.04-2.74-.11-6.83-.57-11.58-3.29-13.39-7.65-3.59-8.66,5.98-20.58,21.78-27.12,7.32-3.03,14.84-4.41,21.18-3.88,6.83,.57,11.58,3.29,13.39,7.65,1.81,4.36,.37,9.65-4.06,14.88-4.11,4.86-10.4,9.21-17.72,12.24-6.29,2.6-12.73,3.99-18.44,3.99Zm24.07-34.78c-5.17,0-11.06,1.27-16.85,3.68-13.22,5.48-22.18,15.44-19.56,21.77,1.17,2.84,4.8,4.71,9.95,5.14,5.7,.48,12.55-.79,19.27-3.58,6.72-2.79,12.46-6.73,16.16-11.1,3.33-3.94,4.57-7.83,3.4-10.67-1.17-2.84-4.8-4.71-9.95-5.14-.79-.07-1.59-.1-2.42-.1Z"/></g><g><ellipse class="cls-2" cx="874.89" cy="884.11" rx="28.45" ry="14.67" transform="translate(-271.74 402.1) rotate(-22.5)"/><path class="cls-11" d="M862.84,903.54c-.93,0-1.85-.04-2.74-.11-6.83-.57-11.58-3.29-13.39-7.65h0c-1.81-4.36-.37-9.65,4.06-14.88,4.11-4.86,10.4-9.21,17.72-12.24,7.32-3.03,14.84-4.4,21.18-3.88,6.83,.57,11.58,3.29,13.39,7.65,1.81,4.36,.37,9.65-4.06,14.88-4.11,4.86-10.4,9.21-17.72,12.24-6.29,2.6-12.73,3.99-18.45,3.99Zm24.07-34.78c-5.17,0-11.06,1.28-16.85,3.68-6.72,2.79-12.46,6.73-16.16,11.1-3.33,3.94-4.57,7.83-3.4,10.67h0c1.17,2.84,4.8,4.71,9.95,5.14,5.7,.48,12.55-.79,19.27-3.58,6.72-2.79,12.46-6.73,16.16-11.1,3.33-3.94,4.57-7.83,3.4-10.67-1.17-2.84-4.8-4.71-9.95-5.14-.79-.07-1.59-.1-2.42-.1Z"/></g><g><ellipse class="cls-1" cx="874.89" cy="884.11" rx="14.06" ry="4.9" transform="translate(-271.74 402.1) rotate(-22.5)"/><path class="cls-11" d="M866.18,893.18c-2.98,0-5.32-.84-6.17-2.91h0c-1.83-4.41,5.05-9.62,12.22-12.59,3.68-1.52,7.37-2.46,10.4-2.63,4.81-.27,6.53,1.42,7.14,2.89,1.83,4.41-5.05,9.62-12.22,12.59-3.81,1.58-8,2.65-11.37,2.65Zm-2.36-4.49c.82,.61,5.3,.9,12.17-1.95,6.86-2.84,9.83-6.21,9.98-7.23-.82-.61-5.3-.9-12.16,1.95-6.86,2.84-9.83,6.21-9.98,7.23Z"/></g></g></g><g><rect class="cls-27" x="954.34" y="902.24" width="5.36" height="360.31" transform="translate(487.07 -283.84) rotate(22.5)"/><path class="cls-11" d="M891.66,1252.54l-8.74-3.62,.78-1.89,138.67-334.78,8.74,3.62-.78,1.89-138.67,334.78Zm-3.38-5.84l1.17,.48,136.32-329.1-1.17-.48-136.32,329.1Z"/></g><g><rect class="cls-27" x="954.34" y="902.24" width="5.36" height="360.31" transform="translate(1590.79 -215.99) rotate(67.5)"/><path class="cls-11" d="M790.5,1156.49l-3.62-8.74,1.89-.78,334.78-138.67,3.62,8.74-1.89,.78-334.78,138.67Zm1.74-6.52l.48,1.17,329.1-136.32-.48-1.17-329.1,136.32Z"/></g></g><g><g><rect class="cls-27" x="931.29" y="947.18" width="4.71" height="58.41"/><path class="cls-11" d="M938.05,1007.64h-8.8v-62.51h8.8v62.51Zm-4.71-4.1h.61v-54.31h-.61v54.31Z"/></g><g><g><path class="cls-27" d="M933.65,955.74h0c2.92,0,5.29-2.37,5.29-5.29l1.74-16.35c0-2.92-4.11-5.29-7.03-5.29h0c-2.92,0-7.03,2.37-7.03,5.29l1.74,16.35c0,2.92,2.37,5.29,5.29,5.29Z"/><path class="cls-11" d="M933.65,957.79c-4.01,0-7.27-3.23-7.34-7.22l-1.74-16.46c0-4.41,5.47-7.34,9.08-7.34s9.08,2.93,9.08,7.34v.22s-1.74,16.25-1.74,16.25c-.06,3.99-3.33,7.22-7.34,7.22Zm-4.98-23.77l1.74,16.43c0,1.79,1.45,3.24,3.24,3.24s3.24-1.45,3.24-3.24v-.22s1.74-16.21,1.74-16.21c-.1-1.41-2.83-3.16-4.98-3.16s-4.88,1.75-4.98,3.16Z"/></g><g><g><circle class="cls-14" cx="933.65" cy="921.75" r="20.36"/><path class="cls-11" d="M933.65,944.16c-12.36,0-22.41-10.05-22.41-22.41s10.05-22.41,22.41-22.41,22.41,10.05,22.41,22.41-10.05,22.41-22.41,22.41Zm0-40.72c-10.1,0-18.31,8.21-18.31,18.31s8.21,18.31,18.31,18.31,18.31-8.21,18.31-18.31-8.21-18.31-18.31-18.31Z"/></g><g><ellipse class="cls-4" cx="933.65" cy="907.3" rx="8.51" ry="4.57"/><path class="cls-11" d="M933.65,903.15c4.47,0,8.1,1.86,8.1,4.16s-3.63,4.16-8.1,4.16-8.1-1.86-8.1-4.16,3.63-4.16,8.1-4.16m0-.82c-5,0-8.92,2.19-8.92,4.98s3.92,4.98,8.92,4.98,8.92-2.19,8.92-4.98-3.92-4.98-8.92-4.98h0Z"/></g><g><path class="cls-11" d="M933.63,912.69c-5.32,0-9.33-2.32-9.33-5.39s4.01-5.39,9.33-5.39,9.33,2.32,9.33,5.39-4.01,5.39-9.33,5.39Zm0-8.32c-4.26,0-6.87,1.71-6.87,2.93s2.61,2.93,6.87,2.93,6.87-1.71,6.87-2.93-2.61-2.93-6.87-2.93Z"/><g class="cls-19"><g><ellipse class="cls-10" cx="933.65" cy="909.49" rx="8.1" ry="4.16"/><path class="cls-11" d="M933.65,914.88c-5.32,0-9.33-2.32-9.33-5.39s4.01-5.39,9.33-5.39,9.33,2.32,9.33,5.39-4.01,5.39-9.33,5.39Zm0-8.32c-4.26,0-6.87,1.71-6.87,2.93s2.61,2.93,6.87,2.93,6.87-1.71,6.87-2.93-2.61-2.93-6.87-2.93Z"/></g></g></g></g></g></g><g><g><g><rect class="cls-27" x="821.8" y="1056.67" width="58.41" height="4.71"/><path class="cls-11" d="M882.26,1063.43h-62.51v-8.8h62.51v8.8Zm-58.41-4.1h54.31v-.61h-54.31v.61Z"/></g><g><g><path class="cls-27" d="M830.36,1059.03h0c0,2.92-2.37,5.29-5.29,5.29l-16.35,1.74c-2.92,0-5.29-4.11-5.29-7.03h0c0-2.92,2.37-7.03,5.29-7.03l16.35,1.74c2.92,0,5.29,2.37,5.29,5.29Z"/><path class="cls-11" d="M808.83,1068.11h-.11c-4.41,0-7.34-5.47-7.34-9.08s2.93-9.08,7.34-9.08h.22s16.25,1.74,16.25,1.74c3.99,.06,7.22,3.33,7.22,7.34s-3.23,7.27-7.22,7.34l-16.36,1.74Zm-.19-14.06c-1.41,.1-3.16,2.83-3.16,4.98s1.75,4.88,3.16,4.98l16.43-1.74c1.79,0,3.24-1.45,3.24-3.24s-1.45-3.24-3.24-3.24h-.22s-16.21-1.74-16.21-1.74Z"/></g><g><g><circle class="cls-3" cx="796.38" cy="1059.03" r="20.36"/><path class="cls-11" d="M796.38,1080.61c-11.9,0-21.59-9.68-21.59-21.59s9.68-21.59,21.59-21.59,21.59,9.68,21.59,21.59-9.68,21.59-21.59,21.59Zm0-40.72c-10.55,0-19.13,8.58-19.13,19.13s8.58,19.13,19.13,19.13,19.13-8.58,19.13-19.13-8.58-19.13-19.13-19.13Z"/></g><g><ellipse class="cls-15" cx="781.93" cy="1059.03" rx="4.57" ry="8.51"/><path class="cls-11" d="M781.93,1050.93c2.3,0,4.16,3.63,4.16,8.1s-1.86,8.1-4.16,8.1-4.16-3.63-4.16-8.1,1.86-8.1,4.16-8.1m0-.82c-2.79,0-4.98,3.92-4.98,8.92s2.19,8.92,4.98,8.92,4.98-3.92,4.98-8.92-2.19-8.92-4.98-8.92h0Z"/></g><g><path class="cls-11" d="M781.93,1068.34c-3.07,0-5.39-4.01-5.39-9.33s2.32-9.33,5.39-9.33,5.39,4.01,5.39,9.33-2.32,9.33-5.39,9.33Zm0-16.2c-1.22,0-2.93,2.61-2.93,6.87s1.71,6.87,2.93,6.87,2.93-2.61,2.93-6.87-1.71-6.87-2.93-6.87Z"/><g class="cls-8"><g><ellipse class="cls-28" cx="784.12" cy="1059.03" rx="4.16" ry="8.1"/><path class="cls-11" d="M784.12,1068.35c-3.07,0-5.39-4.01-5.39-9.33s2.32-9.33,5.39-9.33,5.39,4.01,5.39,9.33-2.32,9.33-5.39,9.33Zm0-16.2c-1.22,0-2.93,2.61-2.93,6.87s1.71,6.87,2.93,6.87,2.93-2.61,2.93-6.87-1.71-6.87-2.93-6.87Z"/></g></g></g></g></g></g><g><g><rect class="cls-27" x="821.8" y="1056.59" width="58.41" height="4.71"/><path class="cls-11" d="M882.26,1063.35h-62.51v-8.8h62.51v8.8Zm-58.41-4.1h54.31v-.61h-54.31v.61Z"/></g><g><g><path class="cls-27" d="M830.36,1058.95h0c0,2.92-2.37,5.29-5.29,5.29l-16.35,1.74c-2.92,0-5.29-4.11-5.29-7.03h0c0-2.92,2.37-7.03,5.29-7.03l16.35,1.74c2.92,0,5.29,2.37,5.29,5.29Z"/><path class="cls-11" d="M808.83,1068.03h-.11c-4.41,0-7.34-5.47-7.34-9.08s2.93-9.08,7.34-9.08h.22s16.25,1.74,16.25,1.74c3.99,.06,7.22,3.33,7.22,7.34s-3.23,7.27-7.22,7.34l-16.36,1.74Zm-.19-14.06c-1.41,.1-3.16,2.83-3.16,4.98s1.75,4.88,3.16,4.98l16.43-1.74c1.79,0,3.24-1.45,3.24-3.24s-1.45-3.24-3.24-3.24h-.22s-16.21-1.74-16.21-1.74Z"/></g><g><g><circle class="cls-14" cx="796.38" cy="1058.95" r="20.36"/><path class="cls-11" d="M796.38,1081.36c-12.36,0-22.41-10.05-22.41-22.41s10.05-22.41,22.41-22.41,22.41,10.05,22.41,22.41-10.05,22.41-22.41,22.41Zm0-40.72c-10.1,0-18.31,8.21-18.31,18.31s8.21,18.31,18.31,18.31,18.31-8.21,18.31-18.31-8.21-18.31-18.31-18.31Z"/></g><g><path class="cls-4" d="M781.93,1067.46c-2.56,0-4.57-3.74-4.57-8.51s2.01-8.51,4.57-8.51,4.57,3.74,4.57,8.51-2.01,8.51-4.57,8.51Z"/><path class="cls-11" d="M781.93,1050.85c2.3,0,4.16,3.63,4.16,8.1s-1.86,8.1-4.16,8.1-4.16-3.63-4.16-8.1,1.86-8.1,4.16-8.1m0-.82c-2.79,0-4.98,3.92-4.98,8.92s2.19,8.92,4.98,8.92,4.98-3.92,4.98-8.92-2.19-8.92-4.98-8.92h0Z"/></g><g><path class="cls-11" d="M781.93,1068.26c-3.07,0-5.39-4.01-5.39-9.33s2.32-9.33,5.39-9.33,5.39,4.01,5.39,9.33-2.32,9.33-5.39,9.33Zm0-16.2c-1.22,0-2.93,2.61-2.93,6.87s1.71,6.87,2.93,6.87,2.93-2.61,2.93-6.87-1.71-6.87-2.93-6.87Z"/><g class="cls-23"><g><ellipse class="cls-10" cx="784.12" cy="1058.95" rx="4.16" ry="8.1"/><path class="cls-11" d="M784.12,1068.28c-3.07,0-5.39-4.01-5.39-9.33s2.32-9.33,5.39-9.33,5.39,4.01,5.39,9.33-2.32,9.33-5.39,9.33Zm0-16.2c-1.22,0-2.93,2.61-2.93,6.87s1.71,6.87,2.93,6.87,2.93-2.61,2.93-6.87-1.71-6.87-2.93-6.87Z"/></g></g></g></g></g></g></g><g><polygon class="cls-6" points="995.53 1077.91 961.51 1077.91 961.51 1043.89 952.53 1043.89 952.53 1077.91 918.51 1077.91 918.51 1086.89 952.53 1086.89 952.53 1120.91 961.51 1120.91 961.51 1086.89 995.53 1086.89 995.53 1077.91"/><path class="cls-11" d="M961.51,1122.96h-8.99c-1.13,0-2.05-.92-2.05-2.05v-31.97h-31.97c-1.13,0-2.05-.92-2.05-2.05v-8.99c0-1.13,.92-2.05,2.05-2.05h31.97v-31.97c0-1.13,.92-2.05,2.05-2.05h8.99c1.13,0,2.05,.92,2.05,2.05v31.97h31.97c1.13,0,2.05,.92,2.05,2.05v8.99c0,1.13-.92,2.05-2.05,2.05h-31.97v31.97c0,1.13-.92,2.05-2.05,2.05Zm-6.94-4.1h4.89v-31.97c0-1.13,.92-2.05,2.05-2.05h31.97v-4.89h-31.97c-1.13,0-2.05-.92-2.05-2.05v-31.97h-4.89v31.97c0,1.13-.92,2.05-2.05,2.05h-31.97v4.89h31.97c1.13,0,2.05,.92,2.05,2.05v31.97Z"/></g><g><g><g><path class="cls-27" d="M957.02,1060.84h0c-5.94,0-10.76-4.82-10.76-10.76l-3.54-33.24c0-5.94,8.36-10.76,14.3-10.76h0c5.94,0,14.3,4.82,14.3,10.76l-3.54,33.24c0,5.94-4.82,10.76-10.76,10.76Z"/><path class="cls-11" d="M957.02,1062.89c-7.02,0-12.75-5.68-12.81-12.69l-3.54-33.36c0-7.43,9.77-12.81,16.35-12.81s16.35,5.38,16.35,12.81v.22s-3.55,33.14-3.55,33.14c-.06,7.01-5.78,12.69-12.81,12.69Zm-12.25-46.15l3.54,33.34c0,4.8,3.91,8.71,8.71,8.71s8.71-3.91,8.71-8.71v-.22s3.54-33.12,3.54-33.12c-.1-4.37-7.05-8.61-12.25-8.61s-12.15,4.24-12.25,8.61Z"/></g><g><path class="cls-25" d="M995.86,1006c21.91,20.72-5.29,37.51-38.84,23.98-33.55,13.53-60.75-3.27-38.84-23.98-21.91-20.72,5.29-37.51,38.84-23.98,33.55-13.53,60.75,3.27,38.84,23.98Z"/><path class="cls-11" d="M980.31,1036.95c-6.85,0-14.76-1.42-23.29-4.76-22.67,8.88-40.95,4.22-46.72-4.77-4-6.23-2.17-13.96,4.97-21.42-7.14-7.46-8.96-15.19-4.97-21.42,5.77-8.99,24.04-13.64,46.72-4.77,22.67-8.87,40.95-4.22,46.72,4.77,4,6.23,2.17,13.96-4.97,21.42,7.14,7.46,8.96,15.19,4.97,21.42-3.6,5.61-12.07,9.53-23.43,9.53Zm-23.29-9.02c.26,0,.52,.05,.77,.15,20.22,8.15,37.49,4.94,42.5-2.87,3.14-4.9,1.07-11.19-5.83-17.72-.41-.39-.64-.93-.64-1.49s.23-1.1,.64-1.49c6.9-6.53,8.98-12.82,5.83-17.72-5.01-7.82-22.28-11.02-42.5-2.87-.49,.2-1.04,.2-1.53,0-20.22-8.15-37.49-4.94-42.5,2.87-3.14,4.9-1.07,11.19,5.83,17.72,.41,.39,.64,.93,.64,1.49s-.23,1.1-.64,1.49c-6.9,6.53-8.98,12.82-5.83,17.72,5.01,7.82,22.28,11.03,42.5,2.87,.25-.1,.51-.15,.77-.15Z"/></g><g><path class="cls-26" d="M995.86,1000.06c21.91,20.72-5.29,37.51-38.84,23.98-33.55,13.53-60.75-3.27-38.84-23.98-21.91-20.72,5.29-37.51,38.84-23.98,33.55-13.53,60.75,3.27,38.84,23.98Z"/><path class="cls-11" d="M980.31,1031.01c-6.85,0-14.76-1.42-23.29-4.76-22.67,8.88-40.95,4.23-46.72-4.77-4-6.23-2.17-13.96,4.97-21.42-7.14-7.46-8.96-15.19-4.97-21.42,5.77-8.99,24.04-13.64,46.72-4.77,22.67-8.87,40.95-4.22,46.72,4.77,4,6.23,2.17,13.96-4.97,21.42,7.14,7.46,8.96,15.19,4.97,21.42-3.6,5.61-12.07,9.53-23.43,9.53Zm-23.29-9.02c.26,0,.52,.05,.77,.15,20.22,8.15,37.49,4.94,42.5-2.87,3.14-4.9,1.07-11.19-5.83-17.72-.41-.39-.64-.93-.64-1.49s.23-1.1,.64-1.49c6.9-6.53,8.98-12.82,5.83-17.72-5.01-7.82-22.28-11.02-42.5-2.87-.49,.2-1.04,.2-1.53,0-20.22-8.15-37.49-4.94-42.5,2.87-3.14,4.9-1.07,11.19,5.83,17.72,.41,.39,.64,.93,.64,1.49s-.23,1.1-.64,1.49c-6.9,6.53-8.98,12.82-5.83,17.72,5.01,7.81,22.28,11.03,42.5,2.87,.25-.1,.51-.15,.77-.15Z"/></g><g><ellipse class="cls-22" cx="957.02" cy="998.47" rx="19.94" ry="7.62"/><path class="cls-11" d="M957.02,1008.13c-10.93,0-21.99-3.32-21.99-9.67s11.06-9.67,21.99-9.67,21.99,3.32,21.99,9.67-11.06,9.67-21.99,9.67Zm0-15.24c-10.75,0-17.89,3.35-17.89,5.57s7.13,5.57,17.89,5.57,17.89-3.35,17.89-5.57-7.13-5.57-17.89-5.57Z"/></g></g><g><g><path class="cls-27" d="M934.95,1082.4h0c0,5.94-4.82,10.76-10.76,10.76l-33.24,3.54c-5.94,0-10.76-8.36-10.76-14.3h0c0-5.94,4.82-14.3,10.76-14.3l33.24,3.54c5.94,0,10.76,4.82,10.76,10.76Z"/><path class="cls-11" d="M891.06,1098.75h-.11c-7.43,0-12.81-9.77-12.81-16.35s5.38-16.35,12.81-16.35h.22s33.14,3.55,33.14,3.55c7.01,.06,12.69,5.78,12.69,12.81s-5.68,12.74-12.69,12.81l-33.25,3.55Zm-.21-28.6c-4.37,.1-8.61,7.05-8.61,12.25s4.24,12.15,8.61,12.25l33.34-3.54c4.8,0,8.71-3.91,8.71-8.71s-3.91-8.71-8.71-8.71h-.22s-33.12-3.54-33.12-3.54Z"/></g><g><path class="cls-25" d="M880.1,1043.56c20.72-21.91,37.51,5.29,23.98,38.84,13.53,33.55-3.27,60.75-23.98,38.84-20.72,21.91-37.51-5.29-23.98-38.84-13.53-33.55,3.27-60.75,23.98-38.84Z"/><path class="cls-11" d="M894.54,1131.19c-4.6,0-9.57-2.39-14.44-7.05-7.46,7.14-15.19,8.96-21.42,4.97-8.99-5.77-13.64-24.04-4.77-46.72-8.88-22.67-4.22-40.95,4.77-46.72,6.23-4,13.96-2.17,21.42,4.97,7.46-7.14,15.19-8.96,21.42-4.97,8.99,5.77,13.64,24.04,4.77,46.72,8.88,22.67,4.23,40.95-4.77,46.72-2.17,1.39-4.52,2.08-6.99,2.08Zm-14.44-12c.56,0,1.1,.23,1.49,.64,6.53,6.9,12.82,8.98,17.72,5.83,7.81-5.01,11.03-22.28,2.87-42.5-.2-.49-.2-1.04,0-1.53,8.15-20.22,4.94-37.49-2.87-42.5-4.9-3.14-11.19-1.07-17.72,5.83-.77,.82-2.2,.82-2.98,0-6.53-6.9-12.82-8.98-17.72-5.83-7.81,5.01-11.03,22.28-2.87,42.5,.2,.49,.2,1.04,0,1.53-8.15,20.22-4.94,37.49,2.87,42.5,4.9,3.14,11.19,1.07,17.72-5.83,.39-.41,.93-.64,1.49-.64Z"/></g><g><path class="cls-26" d="M874.16,1043.56c20.72-21.91,37.51,5.29,23.98,38.84,13.53,33.55-3.27,60.75-23.98,38.84-20.72,21.91-37.51-5.29-23.98-38.84-13.53-33.55,3.27-60.75,23.98-38.84Z"/><path class="cls-11" d="M888.6,1131.19c-4.6,0-9.57-2.39-14.44-7.05-7.46,7.14-15.19,8.96-21.42,4.97-8.99-5.77-13.64-24.04-4.77-46.72-8.88-22.67-4.22-40.95,4.77-46.72,6.23-4,13.96-2.17,21.42,4.97,7.46-7.14,15.19-8.96,21.42-4.97,8.99,5.77,13.64,24.04,4.77,46.72,8.88,22.67,4.23,40.95-4.77,46.72-2.17,1.39-4.52,2.08-6.99,2.08Zm-14.44-12c.56,0,1.1,.23,1.49,.64,6.53,6.9,12.82,8.98,17.72,5.83,7.81-5.01,11.03-22.28,2.87-42.5-.2-.49-.2-1.04,0-1.53,8.15-20.22,4.94-37.49-2.87-42.5-4.9-3.14-11.19-1.07-17.72,5.83-.77,.82-2.2,.82-2.98,0-6.53-6.9-12.82-8.98-17.72-5.83-7.81,5.01-11.03,22.28-2.87,42.5,.2,.49,.2,1.04,0,1.53-8.15,20.22-4.94,37.49,2.87,42.5,4.9,3.15,11.19,1.07,17.72-5.83,.39-.41,.93-.64,1.49-.64Z"/></g><g><ellipse class="cls-22" cx="872.57" cy="1082.4" rx="7.62" ry="19.94"/><path class="cls-11" d="M872.57,1104.38c-6.35,0-9.67-11.06-9.67-21.99s3.32-21.99,9.67-21.99,9.67,11.06,9.67,21.99-3.32,21.99-9.67,21.99Zm0-39.87c-2.22,0-5.57,7.13-5.57,17.89s3.35,17.89,5.57,17.89,5.57-7.13,5.57-17.89-3.35-17.89-5.57-17.89Z"/></g></g></g><g><g><path class="cls-22" d="M984.51,1082.4c7.5,19.32-8.17,34.99-27.49,27.49-19.32,7.5-34.99-8.17-27.49-27.49-7.5-19.32,8.17-34.99,27.49-27.49,19.32-7.5,34.99,8.17,27.49,27.49Z"/><path class="cls-11" d="M947.27,1113.86c-5.96,0-11.4-2.11-15.5-6.21-6.26-6.26-7.89-15.65-4.43-25.25-3.47-9.6-1.83-18.99,4.43-25.25,6.26-6.26,15.65-7.89,25.25-4.43,9.6-3.47,18.99-1.83,25.25,4.42,6.26,6.26,7.89,15.65,4.43,25.25,3.47,9.6,1.83,18.99-4.43,25.25-6.26,6.26-15.65,7.89-25.25,4.42-3.31,1.2-6.61,1.79-9.75,1.79Zm.03-58.82c-4.9,0-9.33,1.7-12.63,5-5.24,5.24-6.44,13.32-3.23,21.61,.18,.48,.18,1.01,0,1.48-3.22,8.29-2.01,16.37,3.23,21.61,5.24,5.24,13.32,6.45,21.61,3.23,.48-.18,1.01-.18,1.48,0,8.29,3.22,16.37,2.01,21.61-3.23,5.24-5.24,6.44-13.32,3.23-21.61-.18-.48-.18-1.01,0-1.48,3.22-8.3,2.01-16.37-3.23-21.61-5.24-5.24-13.32-6.44-21.61-3.23-.48,.18-1.01,.18-1.48,0-3.07-1.19-6.1-1.78-8.98-1.78Z"/></g><g><circle class="cls-12" cx="957.02" cy="1082.4" r="8.99"/><path class="cls-11" d="M957.02,1093.43c-6.08,0-11.04-4.95-11.04-11.03s4.95-11.03,11.04-11.03,11.03,4.95,11.03,11.03-4.95,11.03-11.03,11.03Zm0-17.97c-3.83,0-6.94,3.11-6.94,6.94s3.11,6.94,6.94,6.94,6.94-3.11,6.94-6.94-3.11-6.94-6.94-6.94Z"/></g></g></g><g><path class="cls-21" d="M708.02,875.66c-7.4-10.06-13.79-20.87-18.67-32.38l.88,2.09c-4.08-9.72-7.04-19.89-8.45-30.35l.31,2.33c-1.07-8.21-1.19-16.51-.09-24.72l-.31,2.33c1.05-7.6,3.08-15.02,6.05-22.09l-.88,2.09c2.64-6.2,6.01-12.07,10.11-17.43l-1.37,1.77c3.64-4.71,7.81-8.96,12.52-12.6l-1.77,1.37c4.17-3.19,8.69-5.88,13.53-7.94l-2.09,.88c3.81-1.58,7.76-2.74,11.85-3.33l-2.33,.31c3.18-.42,6.38-.47,9.56-.07l-2.33-.31c2.54,.35,5,.99,7.38,1.96l-2.09-.88c2.33,.99,4.51,2.26,6.51,3.8l-1.77-1.37c1.68,1.33,3.2,2.84,4.52,4.53l-1.37-1.77c1.14,1.5,2.1,3.11,2.86,4.84l-.88-2.09c.55,1.31,.97,2.66,1.26,4.05,.94,4.49,6.46,7.5,10.76,6.11,4.75-1.54,7.11-5.96,6.11-10.76-1.77-8.48-7.69-15.63-14.87-20.2-7.38-4.7-16.6-6.45-25.23-5.39-9.21,1.13-17.94,4.35-25.76,9.37-6.27,4.02-12.02,8.99-16.81,14.7-9.74,11.61-16.49,25.63-19.46,40.5-3.27,16.36-2.22,33.21,2.17,49.27s12.07,31.54,21.54,45.33c1.13,1.65,2.3,3.28,3.49,4.9,1.39,1.9,2.88,3.37,5.23,4.02,2.09,.58,4.88,.32,6.74-.88s3.51-3,4.02-5.23,.49-4.88-.88-6.74h0Z"/><path class="cls-21" d="M659.79,908.2c-15.05-9.16-33.37-12.3-50.66-9.42-7.43,1.24-15.02,3.99-21.15,8.44-7.11,5.16-12.44,11.86-15.19,20.28-1.97,6.02-2.28,12.48-1.5,18.8-18.28,.53-35.74,11.94-48.24,24.73-3.67,3.75-7.02,7.82-10.09,12.07-2.17,3.01-4.18,6.18-5.67,9.58-4.87,11.07-7.9,23.2-9.55,35.16-1.63,11.81-2.08,23.66-.68,35.52,1.33,11.28,3.8,22.32,7.89,32.93,7.9,20.52,20.43,39.07,36.68,53.92,16.42,15,36.08,26.26,57.33,32.82,2.45,.76,4.93,1.44,7.42,2.07,4.43,1.11,9.7-1.43,10.76-6.11,1.03-4.54-1.36-9.57-6.11-10.76-6.75-1.7-13.35-3.9-19.78-6.55-10.4-4.52-20.23-10.26-29.27-17.1-8.62-6.78-16.44-14.55-23.23-23.18-6.32-8.35-11.65-17.41-15.82-27.02-3.96-9.66-6.74-19.76-8.24-30.09-1.35-10.85-1.29-21.83,.06-32.68,1.5-10.44,4.04-21.01,7.98-30.8,1.61-3.5,3.75-6.75,6.05-9.83,4.6-5.83,9.89-11.12,15.71-15.73,4.41-3.3,9.13-6.2,14.17-8.44,3.15-1.24,6.41-2.2,9.75-2.77,2.58-.28,5.16-.3,7.74-.06,1.41,.24,2.8,.54,4.18,.95,6.14,1.82,12.93-4.42,10.76-10.76-1.06-3.11-1.89-6.29-2.42-9.53-.29-2.71-.33-5.43-.06-8.15,.34-1.91,.84-3.79,1.53-5.61,.74-1.56,1.61-3.04,2.6-4.45,1.24-1.48,2.6-2.83,4.08-4.07,2.17-1.57,4.5-2.89,6.94-3.98,3.4-1.31,6.94-2.22,10.54-2.79,4.92-.56,9.88-.53,14.8,.04,5.07,.78,10.03,2.11,14.79,4.01,2.43,1.08,4.78,2.3,7.05,3.68,3.91,2.38,9.79,.99,11.97-3.14,2.25-4.26,1.04-9.43-3.14-11.97Z"/><path class="cls-21" d="M793.95,808.43c16.41-1.07,32.25-5.45,47-12.72,13.99-6.9,26.86-16.62,37.28-28.24,6.07-6.77,11.48-14.22,15.88-22.18,2.21-4.01,1.11-9.73-3.14-11.97s-9.61-1.14-11.97,3.14c-2.72,4.93-5.81,9.63-9.24,14.08l1.37-1.77c-5.97,7.71-12.92,14.61-20.62,20.6l1.77-1.37c-8.12,6.27-17.02,11.48-26.47,15.48l2.09-.88c-9.22,3.87-18.9,6.56-28.81,7.9l2.33-.31c-2.48,.33-4.97,.57-7.46,.74-2.33,.15-4.5,.87-6.19,2.56-1.52,1.52-2.66,4.01-2.56,6.19,.2,4.49,3.86,9.07,8.75,8.75h0Z"/><path class="cls-21" d="M612.42,849.55c5.88,0,11.52-5.17,11.25-11.25s-4.94-11.25-11.25-11.25c-5.88,0-11.52,5.17-11.25,11.25s4.94,11.25,11.25,11.25h0Z"/></g></g></svg>