<?xml version="1.0" encoding="UTF-8"?><svg id="_레이어_2" xmlns="http://www.w3.org/2000/svg" viewBox="0 0 469.42 192.63"><defs><style>.cls-1{fill:#f2f6fb;}.cls-2{fill:#305c9b;}</style></defs><g id="_레이어_1-2"><g><g><path class="cls-2" d="M90.75,124.32c.99-.1,1.98-.22,2.97-.36,17.93-2.67,34.27-13.85,43.15-29.7,1.49-2.66,.55-6.02-2.1-7.51-2.65-1.49-6-.55-7.49,2.1-6.85,12.23-19.16,21.04-32.85,23.78,14.39-25.38,31.38-46.91,46.14-63.26,2.04-2.26,1.87-5.75-.39-7.79-2.25-2.05-5.73-1.88-7.77,.38-19,21.04-35.13,43.25-47.93,66-1.01,1.79-1.99,3.59-2.96,5.38-9.86-.97-18.63-5.53-25.23-13.25-.07-.1-.13-.19-.2-.29,12.05-8.82,24.87-21.17,35.51-34.28,6.69-8.23,18.09-23.69,19.78-35.22,2.13-8.95-1.59-17.38-9.11-20.56-6.12-2.59-14.77-1.13-20.31,7.96-1.58,2.6-.76,6,1.83,7.59,2.59,1.59,5.98,.77,7.56-1.83,1.93-3.17,4.42-4.5,6.66-3.55,2.09,.89,3.72,3.7,2.64,7.98-.05,.21-.09,.42-.12,.63-1.71,12.94-26.75,45.32-52.59,63.57-7.71-5.32-17.99-8.76-26.58-8.3-7.23,.39-12.8,3.59-15.68,9.02-2.13,4.01-2.25,8.7-.35,12.86,1.94,4.24,5.82,7.39,10.38,8.41,8.5,1.92,18.98-.83,31.22-8.16,.16,.21,.31,.42,.46,.63,.11,.16,.23,.32,.35,.47,7.59,8.99,17.4,14.69,28.46,16.73-9.86,20.19-16.87,40.39-20.89,60.25-.6,2.99,1.32,5.9,4.3,6.51,.65,.13,1.29,.14,1.91,.05,2.22-.33,4.1-2.02,4.58-4.36,4.46-22.09,12.36-42.81,21.96-61.68,.9-.04,1.8-.1,2.71-.19ZM18.11,103.31c-1.25-.28-2.26-1.1-2.79-2.25-.27-.59-.62-1.77,.06-3.07,.87-1.65,2.6-2.67,5.14-3.05,.45-.07,.92-.11,1.42-.14,4.59-.25,10.37,1.33,15.4,3.84-7.83,4.1-14.47,5.74-19.24,4.67Z"/><path class="cls-2" d="M321.53,146.04c-2.9-.91-5.98,.71-6.88,3.62-4.98,16.03-12.22,26.42-21.52,30.89-6.3,2.16-9.39,.13-11.38-1.89-6.82-6.94-10.25-25.87-9.41-51.94,.02-.65,.05-1.3,.07-1.95,6.01-.04,12.09-.49,18.08-2.29,9.16-2.76,17.3-8.55,22.92-16.3,1.79-2.46,1.24-5.91-1.22-7.71-2.46-1.79-5.9-1.25-7.68,1.21-4.22,5.82-10.32,10.16-17.19,12.23-4.51,1.36-9.28,1.76-14.25,1.82,1.39-17.3,4.19-32.91,6.56-39.34,1.05-2.86-.4-6.03-3.25-7.09-2.85-1.06-6.01,.39-7.06,3.25-2.72,7.37-5.81,24.29-7.27,43.02-8.89-.17-17.55,.07-25.83,3.22-10.75,4.1-18.45,13.05-19.62,22.82-.36,3.03,1.79,5.77,4.8,6.14,.5,.06,.99,.05,1.47-.02,2.39-.36,4.34-2.27,4.64-4.79,.69-5.74,5.64-11.17,12.62-13.83,6.35-2.42,13.66-2.65,21.26-2.51-.02,.58-.05,1.17-.06,1.75-.43,13.15,.17,24.64,1.77,34.17,2.01,11.92,5.64,20.63,10.8,25.88,3.51,3.57,9.24,7.11,17.67,5.86,1.71-.25,3.53-.71,5.47-1.4,.16-.06,.33-.13,.48-.2,12.33-5.77,21.62-18.46,27.6-37.71,.9-2.91-.71-6-3.61-6.91Z"/><path class="cls-2" d="M354.32,10.09c-6.01-6.34-13.61-7.95-19.83-4.2-4.8,2.89-10.61,10.07-11.06,27.82-.38,15.29,3.31,34.71,10.97,57.71,.96,2.89,4.08,4.46,6.96,3.49,2.88-.96,4.43-4.09,3.47-6.98-9.03-27.13-10.64-44.3-10.4-53.93,.28-11.37,3.15-17.09,5.73-18.65,2.2-1.33,4.82,.9,6.19,2.34,5.22,5.51,10.17,18.56,8.41,38.68-1.43,16.39-7.97,43.15-31,77.56-1.69,2.53-1.02,5.96,1.5,7.66,1.23,.83,2.68,1.1,4.03,.86s2.73-1.06,3.6-2.35c19.27-28.78,30.62-57.4,32.83-82.75,1.76-20.2-2.5-37.86-11.4-47.25Z"/><path class="cls-2" d="M358.97,115.69c-1.23-2.79-4.48-4.05-7.25-2.82-2.78,1.23-4.03,4.49-2.8,7.28,4.63,10.48,10.39,21.38,21.13,30.07,1.29,1.04,2.9,1.41,4.42,1.14,1.26-.22,2.45-.89,3.31-1.97,1.9-2.37,1.53-5.84-.83-7.76-8.92-7.21-13.91-16.73-17.97-25.94Z"/><path class="cls-2" d="M462.31,91.15c-3.02,.3-5.23,3-4.93,6.03,1.94,19.69,2.46,44.28-10.87,59.93-2.9,2.94-7.43,5.94-12.79,3.84-6.32-2.47-11.08-10.68-11.34-19.51-.63-22.02-3.32-39.56-7.98-52.13-4.41-11.89-10.49-19.18-18.07-21.66-8.06-2.64-16.72,.79-23.17,9.17-9.86,12.82-13.47,35.77-1.27,54.84,1.64,2.57,5.04,3.31,7.6,1.67,2.55-1.64,3.3-5.06,1.65-7.62-9.34-14.6-6.6-32.61,.73-42.13,1.67-2.17,6.1-7.05,11.06-5.43,4.11,1.34,8.07,6.67,11.17,15.01,4.24,11.43,6.7,27.78,7.3,48.6,.38,13.28,7.92,25.4,18.34,29.49,3.69,1.45,7.48,1.81,11.19,1.16,4.82-.86,9.49-3.46,13.59-7.68,.08-.08,.15-.16,.22-.25,16.17-18.82,15.76-46.41,13.59-68.34-.3-3.03-2.99-5.25-6.01-4.95Z"/><g><path class="cls-2" d="M125.02,173.12c-15.49,2.31-28.57,.41-38-5.55-2.57-1.63-3.34-5.03-1.73-7.61,1.62-2.58,5.01-3.35,7.58-1.72,15.38,9.72,47.35,4.12,76.04-13.32,11.38-6.92,20.84-14.9,27.36-23.07,6.62-8.3,9.82-16.41,9.25-23.45-.52-6.38-3.09-11.13-7.64-14.12-5.68-3.74-14.3-4.45-21.96-1.83-11.86,4.07-23.47,16.14-28.22,29.36-2.9,8.06-4.7,20.37,3.15,33.28,1.58,2.6,.76,6-1.83,7.58-2.59,1.58-5.98,.76-7.56-1.84-10.12-16.65-7.82-32.45-4.11-42.77,5.89-16.4,19.96-30.88,34.99-36.04,10.91-3.74,23-2.58,31.55,3.04,5.18,3.4,11.57,10.06,12.58,22.45,.81,9.89-3.21,20.69-11.62,31.24-7.31,9.17-17.77,18.02-30.24,25.61-14.65,8.91-30.95,15.35-45.9,18.15-1.24,.23-2.48,.44-3.69,.62Z"/><path class="cls-2" d="M186.87,179.16c-10.36,1.54-19.92-.33-27.04-5.33-2.49-1.75-3.1-5.19-1.36-7.68,1.74-2.5,5.17-3.1,7.66-1.35,5.07,3.56,12.31,4.71,20.39,3.25,10.2-1.85,20.24-7.77,24.99-14.72,1.72-2.51,5.14-3.15,7.64-1.42,2.5,1.73,3.14,5.16,1.43,7.67-6.5,9.51-18.79,16.91-32.09,19.33-.54,.1-1.08,.19-1.61,.27Z"/></g></g><g><g><path class="cls-1" d="M58.73,189.72c-.44,0-.87-.04-1.3-.13-3.51-.72-5.79-4.17-5.08-7.69,3.94-19.5,10.8-39.45,20.4-59.32-10.81-2.28-20.38-8.07-27.76-16.81-.11-.13-.22-.27-.32-.42-9.53,5.59-18.09,8.43-25.44,8.43-1.98,0-3.91-.21-5.73-.62-4.86-1.1-8.99-4.45-11.07-8.97-2.04-4.45-1.9-9.45,.37-13.74,3.05-5.75,8.91-9.14,16.51-9.55,.53-.03,1.07-.04,1.62-.04,7.96,0,17.48,3.1,25.01,8.12,25.4-18.14,49.95-49.91,51.61-62.48,.03-.25,.08-.5,.14-.74,.94-3.71-.36-6.1-2.06-6.82-.35-.15-.71-.22-1.07-.22-1.46,0-3.05,1.23-4.35,3.37-1.19,1.95-3.26,3.12-5.55,3.12-1.19,0-2.37-.33-3.39-.96-3.06-1.88-4.02-5.89-2.16-8.96,3.71-6.09,9.34-9.58,15.46-9.58,2.09,0,4.2,.42,6.09,1.22,7.95,3.36,11.94,12.29,9.7,21.71-1.71,11.69-13.25,27.34-19.98,35.62-10.36,12.75-23.01,25.03-34.85,33.83,6.15,6.97,14.25,11.23,23.44,12.29,.87-1.6,1.75-3.21,2.65-4.81,12.84-22.82,29.01-45.08,48.06-66.18,1.23-1.36,2.98-2.14,4.81-2.14,1.62,0,3.17,.6,4.37,1.69,2.65,2.41,2.86,6.54,.45,9.2-17.72,19.62-32.82,40.18-44.89,61.12,12.6-3.17,23.7-11.57,29.98-22.8,1.15-2.05,3.32-3.32,5.67-3.32,1.11,0,2.21,.29,3.18,.84,3.12,1.76,4.24,5.74,2.48,8.87-9.05,16.16-25.45,27.45-43.87,30.2-.99,.15-2,.27-3.02,.37-.73,.07-1.45,.12-2.17,.16-10.28,20.32-17.54,40.81-21.61,60.91-.54,2.68-2.71,4.75-5.41,5.15-.31,.05-.63,.07-.95,.07ZM20.93,93.89c-.31,0-.61,0-.91,.02-.47,.02-.91,.07-1.33,.13-2.21,.33-3.69,1.18-4.41,2.53-.46,.87-.28,1.67-.04,2.18,.39,.86,1.16,1.48,2.1,1.69,.87,.2,1.84,.3,2.86,.3,3.76,0,8.53-1.36,13.87-3.95-4.23-1.85-8.57-2.9-12.15-2.9Z"/><path class="cls-2" d="M94.58,6.71c2.02,0,3.96,.41,5.7,1.15,7.52,3.18,11.24,11.61,9.11,20.56-1.69,11.53-13.09,26.99-19.78,35.22-10.64,13.1-23.45,25.46-35.51,34.28,.07,.1,.14,.19,.2,.29,6.61,7.73,15.37,12.28,25.23,13.25,.96-1.8,1.95-3.59,2.96-5.38,12.8-22.75,28.93-44.96,47.93-66,1.08-1.2,2.57-1.81,4.07-1.81,1.32,0,2.64,.47,3.69,1.43,2.25,2.05,2.42,5.54,.39,7.79-14.77,16.35-31.76,37.88-46.15,63.26,13.7-2.75,26-11.56,32.85-23.78,1.01-1.8,2.87-2.81,4.79-2.81,.91,0,1.84,.23,2.69,.71,2.65,1.49,3.59,4.86,2.1,7.51-8.87,15.85-25.22,27.03-43.15,29.7-.99,.15-1.97,.27-2.97,.36-.91,.09-1.81,.15-2.71,.19-9.59,18.87-17.49,39.59-21.96,61.68-.47,2.34-2.35,4.03-4.58,4.36-.26,.04-.53,.06-.8,.06-.36,0-.73-.04-1.1-.11-2.98-.61-4.9-3.52-4.3-6.51,4.01-19.86,11.02-40.06,20.89-60.25-11.05-2.03-20.87-7.73-28.46-16.73-.13-.15-.24-.3-.35-.47-.14-.21-.3-.42-.46-.63-9.72,5.82-18.33,8.75-25.72,8.75-1.92,0-3.75-.2-5.51-.59-4.56-1.03-8.43-4.17-10.38-8.41-1.91-4.16-1.78-8.85,.35-12.86,2.88-5.43,8.45-8.63,15.68-9.02,.51-.03,1.04-.04,1.56-.04,8.25,0,17.77,3.34,25.02,8.34,25.84-18.24,50.88-50.63,52.59-63.57,.03-.21,.07-.42,.12-.63,1.08-4.29-.55-7.1-2.64-7.98-.48-.2-.96-.3-1.46-.3-1.82,0-3.69,1.35-5.21,3.85-1.03,1.7-2.84,2.64-4.69,2.64-.98,0-1.97-.26-2.87-.81-2.59-1.59-3.41-4.99-1.83-7.59,3.96-6.51,9.52-9.1,14.6-9.1M19.2,101.74c4.39,0,9.9-1.71,16.16-4.99-4.68-2.33-10.02-3.86-14.44-3.86-.32,0-.65,0-.96,.03-.5,.03-.97,.07-1.42,.14-2.54,.38-4.27,1.4-5.14,3.05-.69,1.29-.33,2.48-.06,3.07,.53,1.15,1.54,1.97,2.79,2.25,.95,.22,1.98,.32,3.08,.32M94.58,4.71v2s0-2,0-2c-6.47,0-12.42,3.67-16.31,10.06-2.15,3.53-1.04,8.17,2.49,10.33,1.18,.72,2.53,1.11,3.91,1.11,2.64,0,5.03-1.35,6.4-3.6,1.1-1.81,2.41-2.89,3.5-2.89,.23,0,.45,.05,.68,.14,1.31,.55,2.27,2.52,1.48,5.65-.07,.28-.13,.57-.16,.86-.78,5.9-7.22,16.94-16.82,28.8-10.13,12.53-22.4,24.34-33.83,32.6-7.59-4.9-17.03-7.91-24.98-7.91-.56,0-1.12,.01-1.67,.04-7.96,.43-14.12,4-17.34,10.08-2.42,4.56-2.56,9.89-.4,14.63,2.2,4.8,6.59,8.37,11.75,9.53,1.89,.43,3.89,.64,5.95,.64,7.34,0,15.81-2.73,25.2-8.13,7.21,8.44,16.45,14.16,26.87,16.63-9.35,19.57-16.05,39.21-19.93,58.42-.82,4.06,1.81,8.04,5.86,8.86,.5,.1,1,.15,1.5,.15,.37,0,.73-.03,1.1-.08,3.11-.46,5.62-2.85,6.24-5.94,4.01-19.84,11.16-40.07,21.26-60.14,.56-.04,1.1-.08,1.63-.13,1.03-.1,2.06-.22,3.07-.38,18.73-2.79,35.4-14.27,44.6-30.7,2.02-3.61,.74-8.2-2.86-10.23-1.12-.63-2.39-.97-3.68-.97-2.71,0-5.21,1.47-6.54,3.83-5.76,10.29-15.65,18.15-27.01,21.66,11.83-20.14,26.45-39.91,43.53-58.82,2.77-3.07,2.54-7.83-.52-10.61-1.38-1.26-3.17-1.95-5.04-1.95-2.11,0-4.14,.9-5.56,2.47-19.1,21.15-35.31,43.48-48.19,66.36-.77,1.36-1.55,2.78-2.33,4.22-8.28-1.11-15.62-4.91-21.4-11.07,11.65-8.8,23.99-20.84,34.14-33.34,6.77-8.34,18.38-24.1,20.19-36.11,2.31-9.87-1.92-19.23-10.3-22.78-2.02-.85-4.26-1.3-6.48-1.3h0ZM19.2,99.74c-.95,0-1.84-.09-2.64-.27-.64-.14-1.14-.55-1.41-1.13-.21-.45-.2-.89,.01-1.3,.56-1.05,1.79-1.73,3.67-2.01,.39-.06,.8-.1,1.23-.12,.28-.02,.56-.02,.85-.02,2.8,0,6.22,.71,9.62,1.96-4.35,1.9-8.22,2.89-11.34,2.89h0Z"/></g><g><path class="cls-1" d="M286.22,191.63c-5.68,0-10.86-2.22-14.99-6.41-5.31-5.4-9.03-14.29-11.07-26.42-1.61-9.59-2.21-21.15-1.79-34.37,0-.25,.02-.49,.03-.74-.69,0-1.38-.01-2.06-.01-5.59,0-12.08,.29-17.81,2.48-6.63,2.53-11.34,7.64-11.98,13.01-.35,2.91-2.6,5.24-5.49,5.67-.31,.05-.63,.07-.95,.07-.26,0-.53-.02-.79-.05-3.55-.43-6.1-3.68-5.67-7.25,1.21-10.13,9.16-19.4,20.26-23.63,7.7-2.93,15.62-3.33,22.36-3.33,.96,0,1.93,0,2.9,.02,1.39-17.17,4.35-34.48,7.26-42.35,.94-2.54,3.39-4.25,6.09-4.25,.77,0,1.53,.14,2.26,.41,3.36,1.25,5.08,5.01,3.84,8.38-2.48,6.72-5.09,22.22-6.41,37.97,5.27-.13,9.27-.68,12.87-1.76,6.66-2,12.58-6.22,16.67-11.86,1.22-1.68,3.18-2.68,5.25-2.68,1.38,0,2.7,.43,3.82,1.25,2.9,2.12,3.54,6.2,1.44,9.1-5.75,7.93-14.08,13.86-23.44,16.67-6.26,1.88-12.5,2.26-17.41,2.33-.01,.33-.02,.66-.03,.99-.83,25.79,2.49,44.46,9.12,51.2,1.15,1.17,2.85,2.52,5.75,2.52,1.34,0,2.87-.29,4.54-.86,9.01-4.36,16.06-14.54,20.94-30.26,.85-2.74,3.34-4.58,6.2-4.58,.66,0,1.31,.1,1.94,.3,3.42,1.07,5.33,4.73,4.27,8.16-6.07,19.53-15.53,32.42-28.13,38.32-.19,.09-.38,.17-.57,.24-1.92,.68-3.83,1.17-5.65,1.44-1.2,.18-2.39,.27-3.54,.27Z"/><path class="cls-2" d="M272.5,65.07c.64,0,1.28,.11,1.91,.35,2.85,1.06,4.3,4.24,3.25,7.09-2.37,6.43-5.18,22.04-6.56,39.34,4.97-.06,9.74-.47,14.25-1.82,6.87-2.07,12.98-6.41,17.19-12.23,1.07-1.48,2.75-2.27,4.45-2.27,1.12,0,2.26,.34,3.23,1.06,2.46,1.79,3,5.24,1.22,7.71-5.62,7.76-13.76,13.55-22.92,16.3-6,1.8-12.08,2.26-18.08,2.29-.03,.65-.05,1.3-.07,1.95-.84,26.07,2.59,45,9.41,51.94,1.38,1.41,3.3,2.82,6.46,2.82,1.38,0,3-.27,4.92-.93,9.3-4.47,16.54-14.86,21.52-30.89,.73-2.36,2.9-3.87,5.24-3.87,.54,0,1.1,.08,1.64,.25,2.9,.91,4.52,4,3.61,6.91-5.98,19.25-15.26,31.94-27.6,37.71-.16,.07-.32,.14-.48,.2-1.94,.69-3.76,1.14-5.47,1.4-1.19,.18-2.32,.26-3.4,.26-6.6,0-11.26-3.05-14.27-6.12-5.16-5.25-8.79-13.96-10.8-25.88-1.6-9.52-2.2-21.02-1.77-34.17,.02-.59,.04-1.17,.06-1.75-1.04-.02-2.07-.03-3.1-.03-6.48,0-12.68,.45-18.16,2.54-6.98,2.66-11.93,8.09-12.62,13.83-.3,2.52-2.25,4.44-4.64,4.79-.26,.04-.53,.06-.8,.06-.22,0-.44-.01-.67-.04-3.01-.37-5.17-3.12-4.8-6.14,1.17-9.76,8.87-18.72,19.62-22.82,7.08-2.7,14.45-3.26,22-3.26,1.27,0,2.54,.02,3.82,.04,1.46-18.73,4.55-35.65,7.27-43.02,.82-2.22,2.92-3.6,5.15-3.6m0-2h0c-3.12,0-5.94,1.97-7.03,4.9-2.88,7.8-5.81,24.74-7.24,41.68-.7,0-1.35-.01-1.98-.01-6.83,0-14.87,.4-22.72,3.4-11.44,4.36-19.64,13.96-20.89,24.45-.49,4.11,2.45,7.86,6.55,8.36,.3,.04,.61,.06,.91,.06,.37,0,.74-.03,1.1-.08,3.33-.5,5.93-3.18,6.33-6.54,.6-5.01,5.05-9.8,11.34-12.2,5.58-2.13,11.95-2.41,17.45-2.41,.34,0,.69,0,1.03,0-.41,13.16,.2,24.69,1.81,34.28,2.07,12.34,5.89,21.41,11.35,26.95,4.32,4.39,9.75,6.71,15.7,6.71,1.2,0,2.44-.09,3.69-.28,1.89-.28,3.86-.78,5.84-1.49,.22-.08,.45-.17,.66-.27,12.86-6.02,22.51-19.12,28.66-38.93,1.23-3.95-.98-8.18-4.92-9.41-.73-.23-1.48-.34-2.24-.34-3.3,0-6.17,2.12-7.15,5.28-4.79,15.41-11.64,25.38-20.37,29.63-1.54,.52-2.94,.78-4.16,.78-2.51,0-3.95-1.12-5.03-2.22-6.34-6.45-9.65-25.32-8.83-50.47,0-.01,0-.03,0-.04,4.82-.1,10.75-.55,16.73-2.35,9.57-2.88,18.08-8.93,23.96-17.05,2.43-3.35,1.68-8.06-1.66-10.5-1.29-.94-2.82-1.44-4.41-1.44-2.39,0-4.66,1.16-6.07,3.1-3.96,5.47-9.7,9.55-16.15,11.49-3.25,.98-6.86,1.51-11.49,1.68,1.54-17.65,4.29-31.25,6.26-36.59,1.43-3.88-.55-8.22-4.43-9.66-.84-.31-1.72-.47-2.61-.47h0Z"/></g><g><path class="cls-1" d="M326.34,141.64c-1.29,0-2.55-.38-3.62-1.11-2.97-2.01-3.77-6.06-1.77-9.04,9.61-14.36,16.34-27.37,21.01-38.84-.64,.57-1.4,1.03-2.27,1.32-.67,.22-1.36,.34-2.06,.34-2.8,0-5.28-1.79-6.17-4.46-7.7-23.11-11.4-42.64-11.02-58.05,.46-18.2,6.53-25.63,11.54-28.65,2.35-1.42,4.9-2.14,7.57-2.14,4.72,0,9.52,2.31,13.49,6.51,9.09,9.6,13.46,27.55,11.67,48.03-2.22,25.52-13.63,54.3-32.99,83.22-.99,1.48-2.5,2.47-4.26,2.78-.38,.07-.76,.1-1.14,.1h0Zm13.29-127.59c-.34,0-.65,.09-.94,.26-2.25,1.36-4.98,6.84-5.25,17.81-.24,9.55,1.36,26.6,10.35,53.59,.15,.46,.25,.93,.3,1.4,4.91-13.37,6.96-24.4,7.69-32.73,1.73-19.79-3.07-32.56-8.14-37.91-1.47-1.55-2.93-2.43-4-2.43Z"/><path class="cls-2" d="M339.57,2c4.39,0,8.91,2.12,12.77,6.2,8.9,9.39,13.16,27.06,11.4,47.25-2.21,25.35-13.56,53.97-32.83,82.75-.87,1.29-2.18,2.1-3.6,2.35-.32,.06-.64,.09-.96,.09-1.06,0-2.12-.3-3.06-.94-2.52-1.7-3.19-5.13-1.5-7.66,23.04-34.42,29.57-61.17,31-77.56,1.75-20.12-3.19-33.18-8.41-38.68-1.07-1.13-2.92-2.75-4.73-2.75-.5,0-.99,.12-1.46,.41-2.59,1.56-5.45,7.28-5.73,18.65-.24,9.63,1.37,26.8,10.4,53.93,.96,2.89-.59,6.02-3.47,6.98-.58,.19-1.16,.29-1.74,.29-2.3,0-4.45-1.46-5.22-3.78-7.66-23-11.35-42.41-10.97-57.71,.44-17.75,6.26-24.92,11.06-27.82,2.22-1.34,4.62-1.99,7.06-1.99m0-2c-2.86,0-5.58,.77-8.09,2.28-5.23,3.15-11.56,10.82-12.03,29.48-.39,15.53,3.34,35.17,11.07,58.39,1.02,3.08,3.88,5.14,7.12,5.14,.77,0,1.54-.12,2.28-.36-4.59,10.75-10.97,22.8-19.8,35.99-2.3,3.44-1.38,8.11,2.04,10.43,1.24,.84,2.69,1.28,4.18,1.28,.44,0,.88-.04,1.31-.12,2.02-.36,3.77-1.5,4.91-3.21,19.45-29.06,30.92-58,33.16-83.69,1.81-20.76-2.65-39-11.94-48.8-4.17-4.4-9.22-6.82-14.22-6.82h0Zm4.65,83.8c-8.48-25.93-10.01-42.37-9.77-51.65,.28-11.31,3.13-16,4.77-16.98,.14-.08,.27-.12,.43-.12,.61,0,1.8,.56,3.28,2.12,4.92,5.19,9.57,17.67,7.87,37.13-.67,7.63-2.46,17.56-6.57,29.5h0Z"/></g><g><path class="cls-1" d="M371.51,150.56c-1.48,0-2.93-.51-4.08-1.45-10.91-8.82-16.74-19.85-21.41-30.44-1.45-3.29,.03-7.14,3.31-8.59,.83-.37,1.72-.56,2.62-.56,2.57,0,4.91,1.53,5.95,3.89,4.01,9.09,8.93,18.49,17.68,25.57,2.79,2.26,3.23,6.37,.98,9.16-.98,1.23-2.38,2.05-3.92,2.33-.38,.07-.76,.1-1.14,.1h0Z"/><path class="cls-2" d="M351.95,110.51c2.11,0,4.13,1.23,5.04,3.29,4.06,9.21,9.05,18.73,17.97,25.94,2.36,1.91,2.74,5.39,.83,7.76-.87,1.08-2.05,1.74-3.31,1.97-.32,.06-.64,.09-.97,.09-1.21,0-2.43-.4-3.45-1.22-10.74-8.69-16.5-19.59-21.13-30.07-1.23-2.79,.02-6.04,2.8-7.28,.72-.32,1.48-.47,2.22-.47m0-2c-1.05,0-2.07,.22-3.03,.64-3.78,1.68-5.49,6.12-3.82,9.91,4.73,10.71,10.63,21.86,21.7,30.82,1.33,1.08,3,1.67,4.71,1.67,.44,0,.88-.04,1.32-.12,1.78-.32,3.39-1.27,4.52-2.68,2.59-3.22,2.08-7.96-1.14-10.57-8.58-6.95-13.44-16.21-17.4-25.19-1.2-2.72-3.9-4.48-6.87-4.48h0Z"/></g><g><path class="cls-1" d="M435.37,171.8c-2.7,0-5.39-.52-7.99-1.54-10.78-4.22-18.58-16.72-18.97-30.39-.6-20.7-3.03-36.95-7.23-48.28-2.98-8.04-6.73-13.16-10.54-14.41-.56-.18-1.14-.28-1.72-.28-3.72,0-7.01,3.75-8.24,5.36-7.12,9.26-9.78,26.77-.68,40.99,1.94,3.03,1.06,7.06-1.96,9-1.05,.67-2.26,1.03-3.5,1.03-2.23,0-4.28-1.12-5.48-3-12.44-19.45-8.75-42.88,1.32-55.98,5.17-6.73,11.76-10.43,18.54-10.43,1.94,0,3.87,.31,5.74,.92,7.88,2.58,14.18,10.07,18.7,22.26,4.7,12.67,7.41,30.32,8.04,52.45,.24,8.45,4.74,16.28,10.7,18.61,1.08,.42,2.17,.63,3.25,.63,3.55,0,6.56-2.31,8.47-4.24,13.04-15.31,12.51-39.65,10.59-59.13-.35-3.57,2.26-6.76,5.82-7.12,.22-.02,.43-.03,.64-.03,3.35,0,6.13,2.53,6.46,5.88,2.18,22.13,2.59,49.99-13.83,69.09-.08,.1-.17,.19-.26,.29-4.19,4.32-9.08,7.08-14.14,7.98-1.23,.22-2.49,.33-3.73,.33h0Z"/><path class="cls-2" d="M388.92,64.88c1.82,0,3.64,.29,5.42,.87,7.58,2.48,13.66,9.77,18.07,21.66,4.66,12.57,7.35,30.11,7.98,52.13,.25,8.83,5.02,17.04,11.34,19.51,1.25,.49,2.46,.7,3.61,.7,3.78,0,6.96-2.29,9.18-4.54,13.33-15.65,12.81-40.24,10.87-59.93-.3-3.03,1.91-5.73,4.93-6.03,.18-.02,.36-.03,.54-.03,2.8,0,5.19,2.13,5.47,4.98,2.16,21.93,2.58,49.53-13.59,68.34-.07,.08-.15,.17-.22,.25-4.1,4.23-8.77,6.83-13.59,7.68-1.18,.21-2.37,.32-3.56,.32-2.55,0-5.11-.48-7.63-1.47-10.42-4.08-17.96-16.21-18.34-29.49-.6-20.81-3.05-37.16-7.3-48.6-3.09-8.33-7.06-13.66-11.17-15.01-.69-.23-1.37-.33-2.03-.33-4.11,0-7.6,3.88-9.04,5.75-7.33,9.53-10.07,27.53-.73,42.13,1.64,2.57,.9,5.98-1.65,7.62-.92,.59-1.95,.87-2.96,.87-1.81,0-3.58-.9-4.64-2.54-12.19-19.06-8.59-42.01,1.27-54.84,5.02-6.52,11.37-10.04,17.74-10.04m0-2h0c-7.1,0-13.96,3.84-19.33,10.82-10.29,13.38-14.06,37.29-1.37,57.13,1.39,2.17,3.75,3.46,6.32,3.46,1.43,0,2.83-.41,4.04-1.19,3.48-2.24,4.49-6.89,2.26-10.38-8.85-13.84-6.28-30.85,.63-39.84,.9-1.17,4.09-4.97,7.45-4.97,.48,0,.94,.07,1.4,.23,3.47,1.13,7.08,6.16,9.91,13.8,4.17,11.23,6.58,27.36,7.17,47.96,.4,14.06,8.47,26.93,19.61,31.29,2.72,1.07,5.54,1.61,8.36,1.61,1.3,0,2.62-.12,3.91-.35,5.27-.94,10.35-3.79,14.68-8.26,.11-.11,.21-.22,.3-.33,16.66-19.39,16.27-47.51,14.07-69.84-.38-3.87-3.59-6.78-7.46-6.78-.25,0-.49,.01-.74,.04-4.12,.41-7.13,4.1-6.72,8.22,1.9,19.26,2.44,43.29-10.35,58.38-1.77,1.79-4.53,3.89-7.7,3.89-.96,0-1.93-.19-2.89-.57-5.51-2.16-9.84-9.77-10.07-17.71-.64-22.24-3.37-40-8.11-52.77-4.64-12.49-11.14-20.19-19.33-22.86-1.97-.64-4-.97-6.05-.97h0Z"/></g><g><g><path class="cls-1" d="M110.8,173.18c-10.47,0-19.32-2.24-26.31-6.66-3.03-1.92-3.95-5.95-2.04-8.99,1.2-1.91,3.25-3.04,5.5-3.04,1.22,0,2.42,.35,3.46,1,4.75,3,11.44,4.59,19.36,4.59,16.37,0,37.17-6.7,55.62-17.92,11.28-6.86,20.65-14.76,27.1-22.84,6.46-8.1,9.59-15.97,9.03-22.74-.49-6.05-2.91-10.55-7.19-13.36-3.17-2.08-7.43-3.23-12-3.23-3.06,0-6.2,.52-9.09,1.51-11.6,3.98-22.95,15.8-27.6,28.75-2.82,7.85-4.58,19.85,3.07,32.42,1.87,3.07,.9,7.08-2.16,8.96-1.02,.62-2.19,.95-3.38,.95-2.29,0-4.37-1.17-5.56-3.13-10.33-16.98-7.98-33.1-4.2-43.63,5.99-16.67,20.3-31.4,35.61-36.65,4.3-1.47,8.77-2.22,13.29-2.22,7.06,0,13.86,1.91,19.13,5.37,5.36,3.53,11.98,10.42,13.02,23.21,.83,10.15-3.26,21.2-11.83,31.94-7.38,9.26-17.93,18.19-30.5,25.84-14.75,8.97-31.17,15.46-46.24,18.28-1.24,.23-2.5,.44-3.73,.63-4.29,.64-8.46,.96-12.38,.96Z"/><path class="cls-2" d="M183.33,67.95c6.8,0,13.35,1.77,18.58,5.21,5.18,3.4,11.57,10.06,12.58,22.45,.81,9.89-3.21,20.69-11.62,31.24-7.31,9.17-17.77,18.02-30.24,25.6-14.65,8.91-30.95,15.35-45.9,18.15-1.24,.23-2.48,.44-3.69,.62-4.27,.64-8.35,.95-12.23,.95-10.2,0-18.94-2.19-25.77-6.51-2.57-1.63-3.34-5.03-1.73-7.61,1.04-1.66,2.83-2.58,4.65-2.58,1,0,2.02,.27,2.93,.85,5.07,3.2,11.94,4.74,19.9,4.74,16.2,0,36.91-6.37,56.14-18.07,11.38-6.92,20.84-14.9,27.36-23.07,6.62-8.3,9.82-16.41,9.25-23.45-.52-6.38-3.09-11.13-7.64-14.12-3.41-2.24-7.87-3.39-12.55-3.4-3.13,0-6.35,.52-9.41,1.57-11.86,4.07-23.47,16.14-28.22,29.36-2.9,8.06-4.7,20.37,3.15,33.28,1.58,2.6,.76,6-1.83,7.58-.89,.55-1.88,.81-2.85,.81-1.85,0-3.67-.94-4.7-2.65-10.12-16.65-7.82-32.45-4.11-42.77,5.89-16.4,19.96-30.88,34.99-36.04,4.24-1.45,8.65-2.17,12.97-2.17m0-2h0c-4.64,0-9.22,.77-13.62,2.28-15.58,5.35-30.14,20.32-36.22,37.26-3.86,10.74-6.25,27.17,4.28,44.49,.87,1.42,2.14,2.49,3.62,3.08-10.81,3.89-21.42,6.03-30.61,6.03-7.73,0-14.24-1.53-18.83-4.43-1.2-.76-2.58-1.16-4-1.16-2.6,0-4.97,1.31-6.35,3.51-2.2,3.5-1.14,8.15,2.35,10.36,7.15,4.52,16.19,6.82,26.84,6.82,3.97,0,8.19-.33,12.52-.97,1.23-.18,2.5-.4,3.76-.63,15.18-2.84,31.72-9.38,46.57-18.41,12.67-7.7,23.31-16.72,30.77-26.07,8.73-10.95,12.9-22.24,12.05-32.65-1.08-13.19-7.92-20.31-13.47-23.96-5.43-3.57-12.42-5.54-19.68-5.54h0Zm-32.32,83.2c.98-2.18,.9-4.8-.44-6.99-7.44-12.24-5.73-23.92-2.98-31.56,4.56-12.68,15.65-24.25,26.98-28.14,2.78-.96,5.81-1.46,8.76-1.46,4.37,0,8.44,1.09,11.45,3.07,4.01,2.63,6.27,6.88,6.74,12.61,.53,6.52-2.52,14.14-8.82,22.04-6.37,7.99-15.65,15.81-26.84,22.61-4.84,2.94-9.83,5.57-14.87,7.84h0Z"/></g><g><path class="cls-1" d="M177.94,178.8c-7.89,0-15.04-2.09-20.67-6.04-2.93-2.06-3.65-6.13-1.6-9.07,1.21-1.74,3.2-2.78,5.33-2.78,1.34,0,2.63,.41,3.72,1.18,3.43,2.41,7.99,3.69,13.18,3.69,2.07,0,4.24-.2,6.45-.61,9.95-1.81,19.73-7.55,24.34-14.3,1.21-1.77,3.21-2.83,5.36-2.83,1.32,0,2.59,.4,3.68,1.15,2.95,2.03,3.71,6.1,1.69,9.06-6.64,9.72-19.18,17.29-32.73,19.75-.55,.1-1.1,.19-1.64,.27-2.39,.36-4.78,.54-7.09,.54Z"/><path class="cls-2" d="M214.05,149.03c1.07,0,2.16,.31,3.11,.97,2.5,1.73,3.14,5.16,1.43,7.67-6.5,9.51-18.79,16.91-32.09,19.33-.54,.1-1.08,.19-1.61,.27-2.36,.35-4.69,.53-6.95,.53-7.65,0-14.59-2-20.09-5.86-2.49-1.75-3.1-5.19-1.36-7.68,1.07-1.53,2.77-2.35,4.51-2.35,1.09,0,2.19,.32,3.15,1,3.63,2.55,8.39,3.87,13.76,3.87,2.12,0,4.34-.21,6.63-.62,10.2-1.85,20.24-7.77,24.99-14.72,1.06-1.56,2.78-2.39,4.53-2.39m0-2h0c-2.48,0-4.79,1.22-6.19,3.27-4.47,6.54-13.99,12.12-23.69,13.88-2.15,.39-4.26,.59-6.27,.59-4.98,0-9.34-1.21-12.61-3.5-1.27-.89-2.76-1.36-4.3-1.36-2.45,0-4.75,1.2-6.15,3.21-2.36,3.39-1.53,8.09,1.85,10.46,5.8,4.07,13.14,6.22,21.24,6.22,2.36,0,4.8-.18,7.24-.55,.56-.08,1.11-.18,1.68-.28,13.8-2.51,26.59-10.24,33.38-20.17,2.33-3.41,1.46-8.1-1.94-10.45-1.26-.87-2.72-1.32-4.24-1.32h0Z"/></g></g></g></g></g></svg>