<?xml version="1.0" encoding="UTF-8"?><svg id="_레이어_1" xmlns="http://www.w3.org/2000/svg" xmlns:xlink="http://www.w3.org/1999/xlink" viewBox="0 0 1565.27 1565.27"><defs><style>.cls-1{clip-path:url(#clippath-11);}.cls-2,.cls-3,.cls-4,.cls-5,.cls-6,.cls-7,.cls-8,.cls-9,.cls-10,.cls-11,.cls-12,.cls-13{stroke:#13519c;}.cls-2,.cls-5,.cls-6,.cls-7,.cls-11,.cls-12,.cls-13{stroke-miterlimit:10;}.cls-2,.cls-5,.cls-9,.cls-10{stroke-width:3px;}.cls-2,.cls-8{fill:none;}.cls-14{fill:#43499c;}.cls-15{clip-path:url(#clippath-2);}.cls-3{fill:#fce7e7;}.cls-3,.cls-4,.cls-6,.cls-7,.cls-8,.cls-11,.cls-12,.cls-13{stroke-width:5px;}.cls-3,.cls-4,.cls-8,.cls-9,.cls-10{stroke-linecap:round;stroke-linejoin:round;}.cls-4{fill:#9ac5e9;}.cls-16{clip-path:url(#clippath-6);}.cls-5{fill:#f18d3c;}.cls-6{fill:#2a99d7;}.cls-17{clip-path:url(#clippath-7);}.cls-18{clip-path:url(#clippath-1);}.cls-19{clip-path:url(#clippath-4);}.cls-7{fill:#9cc9e6;}.cls-9{fill:#bbc8e7;}.cls-10{fill:#f29966;}.cls-20{fill:#13519c;}.cls-21{fill:#c14393;}.cls-22{clip-path:url(#clippath-9);}.cls-11{fill:#058b8a;}.cls-23{clip-path:url(#clippath);}.cls-12{fill:#ed6d00;}.cls-13,.cls-24{fill:#fff4b5;}.cls-25{clip-path:url(#clippath-3);}.cls-26{clip-path:url(#clippath-8);}.cls-27{clip-path:url(#clippath-5);}.cls-28{fill:#ead66b;}.cls-29{clip-path:url(#clippath-10);}.cls-30{fill:#6ca4ca;}.cls-31{fill:#b1d9e1;}</style><clipPath id="clippath"><ellipse class="cls-2" cx="723.85" cy="1222.61" rx="20.35" ry="10.45"/></clipPath><clipPath id="clippath-1"><ellipse class="cls-2" cx="841.42" cy="1222.61" rx="20.35" ry="10.45"/></clipPath><clipPath id="clippath-2"><ellipse class="cls-2" cx="723.85" cy="342.66" rx="20.35" ry="10.45"/></clipPath><clipPath id="clippath-3"><ellipse class="cls-2" cx="841.42" cy="342.66" rx="20.35" ry="10.45"/></clipPath><clipPath id="clippath-4"><ellipse class="cls-2" cx="723.85" cy="1222.61" rx="20.35" ry="10.45"/></clipPath><clipPath id="clippath-5"><ellipse class="cls-2" cx="841.42" cy="1222.61" rx="20.35" ry="10.45"/></clipPath><clipPath id="clippath-6"><ellipse class="cls-2" cx="342.66" cy="723.85" rx="10.45" ry="20.35"/></clipPath><clipPath id="clippath-7"><ellipse class="cls-2" cx="342.66" cy="841.42" rx="10.45" ry="20.35"/></clipPath><clipPath id="clippath-8"><ellipse class="cls-2" cx="1222.61" cy="723.85" rx="10.45" ry="20.35"/></clipPath><clipPath id="clippath-9"><ellipse class="cls-2" cx="1222.61" cy="841.42" rx="10.45" ry="20.35"/></clipPath><clipPath id="clippath-10"><ellipse class="cls-2" cx="342.66" cy="723.66" rx="10.45" ry="20.35"/></clipPath><clipPath id="clippath-11"><ellipse class="cls-2" cx="342.66" cy="841.22" rx="10.45" ry="20.35"/></clipPath></defs><g><g><rect class="cls-11" x="772.99" y="504.54" width="19.69" height="552.77" transform="translate(1888.57 779.59) rotate(135)"/><g><path class="cls-11" d="M949.35,947.43h0c9.78-9.78,25.64-9.78,35.42,0l60.56,48.89c9.78,9.78,3.95,31.48-5.83,41.26h0c-9.78,9.78-31.48,15.62-41.26,5.83l-48.89-60.56c-9.78-9.78-9.78-25.64,0-35.42Z"/><g><path class="cls-28" d="M1083.17,1081.27c40.43,40.43,106.19-133.38,30.24-79.93,75.95-53.45-57.21-95.11-61.24-19.16,4.02-75.95-144.04,72.11-68.09,68.09-75.95,4.02-34.3,137.19,19.16,61.24-53.45,75.95,120.35,10.19,79.93-30.24Z"/><path class="cls-8" d="M1083.17,1081.27c40.43,40.43,106.19-133.38,30.24-79.93,75.95-53.45-57.21-95.11-61.24-19.16,4.02-75.95-144.04,72.11-68.09,68.09-75.95,4.02-34.3,137.19,19.16,61.24-53.45,75.95,120.35,10.19,79.93-30.24Z"/></g><g><path class="cls-28" d="M1094.48,1092.58c40.43,40.43,106.19-133.38,30.24-79.93,75.95-53.45-57.21-95.11-61.24-19.16,4.02-75.95-144.04,72.11-68.09,68.09-75.95,4.02-34.3,137.19,19.16,61.24-53.45,75.95,120.35,10.19,79.93-30.24Zm-40.27-40.27c13.46-30.75,38.55-41.51,25.77-11.04,30.46-12.78,19.71,12.31-11.04,25.77-13.46,30.75-38.55,41.51-25.77,11.04-30.46,12.78-19.71-12.31,11.04-25.77Z"/><path class="cls-8" d="M1094.48,1092.58c40.43,40.43,106.19-133.38,30.24-79.93,75.95-53.45-57.21-95.11-61.24-19.16,4.02-75.95-144.04,72.11-68.09,68.09-75.95,4.02-34.3,137.19,19.16,61.24-53.45,75.95,120.35,10.19,79.93-30.24Zm-40.27-40.27c13.46-30.75,38.55-41.51,25.77-11.04,30.46-12.78,19.71,12.31-11.04,25.77-13.46,30.75-38.55,41.51-25.77,11.04-30.46,12.78-19.71-12.31,11.04-25.77Z"/></g><g><path class="cls-24" d="M1094.48,1092.58c40.43,40.43,106.19-133.38,30.24-79.93,75.95-53.45-57.21-95.11-61.24-19.16,4.02-75.95-144.04,72.11-68.09,68.09-75.95,4.02-34.3,137.19,19.16,61.24-53.45,75.95,120.35,10.19,79.93-30.24Zm-40.27-40.27c13.46-30.75,38.55-41.51,25.77-11.04,30.46-12.78,19.71,12.31-11.04,25.77-13.46,30.75-38.55,41.51-25.77,11.04-30.46,12.78-19.71-12.31,11.04-25.77Z"/><path class="cls-8" d="M1094.48,1092.58c40.43,40.43,106.19-133.38,30.24-79.93,75.95-53.45-57.21-95.11-61.24-19.16,4.02-75.95-144.04,72.11-68.09,68.09-75.95,4.02-34.3,137.19,19.16,61.24-53.45,75.95,120.35,10.19,79.93-30.24Zm-40.27-40.27c13.46-30.75,38.55-41.51,25.77-11.04,30.46-12.78,19.71,12.31-11.04,25.77-13.46,30.75-38.55,41.51-25.77,11.04-30.46,12.78-19.71-12.31,11.04-25.77Z"/></g></g><g><path class="cls-11" d="M615.92,617.84h0c-9.78,9.78-25.64,9.78-35.42,0l-60.56-48.89c-9.78-9.78-3.95-31.48,5.83-41.26h0c9.78-9.78,31.48-15.62,41.26-5.83l48.89,60.56c9.78,9.78,9.78,25.64,0,35.42Z"/><g><path class="cls-28" d="M482.1,484c-40.43-40.43-106.19,133.38-30.24,79.93-75.95,53.45,57.21,95.11,61.24,19.16-4.02,75.95,144.04-72.11,68.09-68.09,75.95-4.02,34.3-137.19-19.16-61.24,53.45-75.95-120.35-10.19-79.93,30.24Z"/><path class="cls-8" d="M482.1,484c-40.43-40.43-106.19,133.38-30.24,79.93-75.95,53.45,57.21,95.11,61.24,19.16-4.02,75.95,144.04-72.11,68.09-68.09,75.95-4.02,34.3-137.19-19.16-61.24,53.45-75.95-120.35-10.19-79.93,30.24Z"/></g><g><path class="cls-28" d="M470.79,472.69c-40.43-40.43-106.19,133.38-30.24,79.93-75.95,53.45,57.21,95.11,61.24,19.16-4.02,75.95,144.04-72.11,68.09-68.09,75.95-4.02,34.3-137.19-19.16-61.24,53.45-75.95-120.35-10.19-79.93,30.24Zm40.27,40.27c-13.46,30.75-38.55,41.51-25.77,11.04-30.46,12.78-19.71-12.31,11.04-25.77,13.46-30.75,38.55-41.51,25.77-11.04,30.46-12.78,19.71,12.31-11.04,25.77Z"/><path class="cls-8" d="M470.79,472.69c-40.43-40.43-106.19,133.38-30.24,79.93-75.95,53.45,57.21,95.11,61.24,19.16-4.02,75.95,144.04-72.11,68.09-68.09,75.95-4.02,34.3-137.19-19.16-61.24,53.45-75.95-120.35-10.19-79.93,30.24Zm40.27,40.27c-13.46,30.75-38.55,41.51-25.77,11.04-30.46,12.78-19.71-12.31,11.04-25.77,13.46-30.75,38.55-41.51,25.77-11.04,30.46-12.78,19.71,12.31-11.04,25.77Z"/></g><g><path class="cls-24" d="M470.79,472.69c-40.43-40.43-106.19,133.38-30.24,79.93-75.95,53.45,57.21,95.11,61.24,19.16-4.02,75.95,144.04-72.11,68.09-68.09,75.95-4.02,34.3-137.19-19.16-61.24,53.45-75.95-120.35-10.19-79.93,30.24Zm40.27,40.27c-13.46,30.75-38.55,41.51-25.77,11.04-30.46,12.78-19.71-12.31,11.04-25.77,13.46-30.75,38.55-41.51,25.77-11.04,30.46-12.78,19.71,12.31-11.04,25.77Z"/><path class="cls-8" d="M470.79,472.69c-40.43-40.43-106.19,133.38-30.24,79.93-75.95,53.45,57.21,95.11,61.24,19.16-4.02,75.95,144.04-72.11,68.09-68.09,75.95-4.02,34.3-137.19-19.16-61.24,53.45-75.95-120.35-10.19-79.93,30.24Zm40.27,40.27c-13.46,30.75-38.55,41.51-25.77,11.04-30.46,12.78-19.71-12.31,11.04-25.77,13.46-30.75,38.55-41.51,25.77-11.04,30.46-12.78,19.71,12.31-11.04,25.77Z"/></g></g></g><g><rect class="cls-11" x="771.09" y="506.06" width="19.69" height="552.77" transform="translate(782 -323.03) rotate(45)"/><g><path class="cls-11" d="M947.43,615.92h0c-9.78-9.78-9.78-25.64,0-35.42l48.89-60.56c9.78-9.78,31.48-3.95,41.26,5.83h0c9.78,9.78,15.62,31.48,5.83,41.26l-60.56,48.89c-9.78,9.78-25.64,9.78-35.42,0Z"/><g><path class="cls-28" d="M1081.27,482.1c40.43-40.43-133.38-106.19-79.93-30.24-53.45-75.95-95.11,57.21-19.16,61.24-75.95-4.02,72.11,144.04,68.09,68.09,4.02,75.95,137.19,34.3,61.24-19.16,75.95,53.45,10.19-120.35-30.24-79.93Z"/><path class="cls-8" d="M1081.27,482.1c40.43-40.43-133.38-106.19-79.93-30.24-53.45-75.95-95.11,57.21-19.16,61.24-75.95-4.02,72.11,144.04,68.09,68.09,4.02,75.95,137.19,34.3,61.24-19.16,75.95,53.45,10.19-120.35-30.24-79.93Z"/></g><g><path class="cls-24" d="M1092.58,470.79c40.43-40.43-133.38-106.19-79.93-30.24-53.45-75.95-95.11,57.21-19.16,61.24-75.95-4.02,72.11,144.04,68.09,68.09,4.02,75.95,137.19,34.3,61.24-19.16,75.95,53.45,10.19-120.35-30.24-79.93Zm-40.27,40.27c-30.75-13.46-41.51-38.55-11.04-25.77-12.78-30.46,12.31-19.71,25.77,11.04,30.75,13.46,41.51,38.55,11.04,25.77,12.78,30.46-12.31,19.71-25.77-11.04Z"/><path class="cls-8" d="M1092.58,470.79c40.43-40.43-133.38-106.19-79.93-30.24-53.45-75.95-95.11,57.21-19.16,61.24-75.95-4.02,72.11,144.04,68.09,68.09,4.02,75.95,137.19,34.3,61.24-19.16,75.95,53.45,10.19-120.35-30.24-79.93Zm-40.27,40.27c-30.75-13.46-41.51-38.55-11.04-25.77-12.78-30.46,12.31-19.71,25.77,11.04,30.75,13.46,41.51,38.55,11.04,25.77,12.78,30.46-12.31,19.71-25.77-11.04Z"/></g></g><g><path class="cls-11" d="M617.84,949.35h0c9.78,9.78,9.78,25.64,0,35.42l-48.89,60.56c-9.78,9.78-31.48,3.95-41.26-5.83h0c-9.78-9.78-15.62-31.48-5.83-41.26l60.56-48.89c9.78-9.78,25.64-9.78,35.42,0Z"/><g><path class="cls-28" d="M484,1083.17c-40.43,40.43,133.38,106.19,79.93,30.24,53.45,75.95,95.11-57.21,19.16-61.24,75.95,4.02-72.11-144.04-68.09-68.09-4.02-75.95-137.19-34.3-61.24,19.16-75.95-53.45-10.19,120.35,30.24,79.93Z"/><path class="cls-8" d="M484,1083.17c-40.43,40.43,133.38,106.19,79.93,30.24,53.45,75.95,95.11-57.21,19.16-61.24,75.95,4.02-72.11-144.04-68.09-68.09-4.02-75.95-137.19-34.3-61.24,19.16-75.95-53.45-10.19,120.35,30.24,79.93Z"/></g><g><path class="cls-28" d="M472.69,1094.48c-40.43,40.43,133.38,106.19,79.93,30.24,53.45,75.95,95.11-57.21,19.16-61.24,75.95,4.02-72.11-144.04-68.09-68.09-4.02-75.95-137.19-34.3-61.24,19.16-75.95-53.45-10.19,120.35,30.24,79.93Zm40.27-40.27c30.75,13.46,41.51,38.55,11.04,25.77,12.78,30.46-12.31,19.71-25.77-11.04-30.75-13.46-41.51-38.55-11.04-25.77-12.78-30.46,12.31-19.71,25.77,11.04Z"/><path class="cls-8" d="M472.69,1094.48c-40.43,40.43,133.38,106.19,79.93,30.24,53.45,75.95,95.11-57.21,19.16-61.24,75.95,4.02-72.11-144.04-68.09-68.09-4.02-75.95-137.19-34.3-61.24,19.16-75.95-53.45-10.19,120.35,30.24,79.93Zm40.27-40.27c30.75,13.46,41.51,38.55,11.04,25.77,12.78,30.46-12.31,19.71-25.77-11.04-30.75-13.46-41.51-38.55-11.04-25.77-12.78-30.46,12.31-19.71,25.77,11.04Z"/></g><g><path class="cls-24" d="M472.69,1094.48c-40.43,40.43,133.38,106.19,79.93,30.24,53.45,75.95,95.11-57.21,19.16-61.24,75.95,4.02-72.11-144.04-68.09-68.09-4.02-75.95-137.19-34.3-61.24,19.16-75.95-53.45-10.19,120.35,30.24,79.93Zm40.27-40.27c30.75,13.46,41.51,38.55,11.04,25.77,12.78,30.46-12.31,19.71-25.77-11.04-30.75-13.46-41.51-38.55-11.04-25.77-12.78-30.46,12.31-19.71,25.77,11.04Z"/><path class="cls-8" d="M472.69,1094.48c-40.43,40.43,133.38,106.19,79.93,30.24,53.45,75.95,95.11-57.21,19.16-61.24,75.95,4.02-72.11-144.04-68.09-68.09-4.02-75.95-137.19-34.3-61.24,19.16-75.95-53.45-10.19,120.35,30.24,79.93Zm40.27-40.27c30.75,13.46,41.51,38.55,11.04,25.77,12.78,30.46-12.31,19.71-25.77-11.04-30.75-13.46-41.51-38.55-11.04-25.77-12.78-30.46,12.31-19.71,25.77,11.04Z"/></g></g></g></g><g><g><rect class="cls-11" x="775.9" y="329.94" width="13.47" height="905.38" transform="translate(-239.93 1206.19) rotate(-67.5)"/><g><g><path class="cls-11" d="M391.05,620.43h0c5.27-12.73-.77-27.31-13.5-32.59l-68.06-37.08c-12.73-5.27-30.46,8.36-35.73,21.09h0c-5.27,12.73-2.37,34.91,10.35,40.18l74.34,21.9c12.73,5.27,27.31-.77,32.59-13.5Z"/><ellipse class="cls-3" cx="291.96" cy="579.39" rx="71.48" ry="36.87" transform="translate(-355.06 627.4) rotate(-67.5)"/><ellipse class="cls-3" cx="284.37" cy="576.25" rx="71.48" ry="36.87" transform="translate(-356.84 618.45) rotate(-67.5)"/><ellipse class="cls-12" cx="284.37" cy="576.25" rx="35.33" ry="12.32" transform="translate(-356.84 618.45) rotate(-67.5)"/></g><g><path class="cls-11" d="M1174.22,944.84h0c5.27-12.73,19.86-18.77,32.59-13.5l74.34,21.9c12.73,5.27,15.62,27.45,10.35,40.18h0c-5.27,12.73-23,26.36-35.73,21.09l-68.06-37.08c-12.73-5.27-18.77-19.86-13.5-32.59Z"/><ellipse class="cls-3" cx="1273.31" cy="985.88" rx="71.48" ry="36.87" transform="translate(-124.8 1784.98) rotate(-67.5)"/><ellipse class="cls-3" cx="1280.9" cy="989.02" rx="71.48" ry="36.87" transform="translate(-123.02 1793.94) rotate(-67.5)"/><ellipse class="cls-12" cx="1280.9" cy="989.02" rx="35.33" ry="12.32" transform="translate(-123.02 1793.94) rotate(-67.5)"/></g></g></g><g><rect class="cls-11" x="775.9" y="329.94" width="13.47" height="905.38" transform="translate(-239.93 359.08) rotate(-22.5)"/><g><g><path class="cls-11" d="M620.43,391.05h0c12.73-5.27,18.77-19.86,13.5-32.59l-21.9-74.34c-5.27-12.73-27.45-15.62-40.18-10.35h0c-12.73,5.27-26.36,23-21.09,35.73l37.08,68.06c5.27,12.73,19.86,18.77,32.59,13.5Z"/><ellipse class="cls-3" cx="579.39" cy="291.96" rx="71.48" ry="36.87" transform="translate(-67.63 243.95) rotate(-22.5)"/><ellipse class="cls-3" cx="576.25" cy="284.37" rx="71.48" ry="36.87" transform="translate(-64.96 242.17) rotate(-22.5)"/><ellipse class="cls-12" cx="576.25" cy="284.37" rx="35.33" ry="12.32" transform="translate(-64.96 242.17) rotate(-22.5)"/></g><g><path class="cls-11" d="M944.84,1174.22h0c12.73-5.27,27.31,.77,32.59,13.5l37.08,68.06c5.27,12.73-8.36,30.46-21.09,35.73h0c-12.73,5.27-34.91,2.37-40.18-10.35l-21.9-74.34c-5.27-12.73,.77-27.31,13.5-32.59Z"/><ellipse class="cls-3" cx="985.88" cy="1273.31" rx="71.48" ry="36.87" transform="translate(-412.23 474.2) rotate(-22.5)"/><ellipse class="cls-3" cx="989.02" cy="1280.9" rx="71.48" ry="36.87" transform="translate(-414.89 475.98) rotate(-22.5)"/><ellipse class="cls-12" cx="989.02" cy="1280.9" rx="35.33" ry="12.32" transform="translate(-414.89 475.98) rotate(-22.5)"/></g></g></g><g><rect class="cls-11" x="775.9" y="329.94" width="13.47" height="905.38" transform="translate(359.08 -239.93) rotate(22.5)"/><g><g><path class="cls-11" d="M944.84,391.05h0c12.73,5.27,27.31-.77,32.59-13.5l37.08-68.06c5.27-12.73-8.36-30.46-21.09-35.73h0c-12.73-5.27-34.91-2.37-40.18,10.35l-21.9,74.34c-5.27,12.73,.77,27.31,13.5,32.59Z"/><ellipse class="cls-3" cx="985.88" cy="291.96" rx="36.87" ry="71.48" transform="translate(338.86 1091.07) rotate(-67.5)"/><ellipse class="cls-3" cx="989.02" cy="284.37" rx="36.87" ry="71.48" transform="translate(347.82 1089.28) rotate(-67.5)"/><ellipse class="cls-12" cx="989.02" cy="284.37" rx="12.32" ry="35.33" transform="translate(347.82 1089.28) rotate(-67.5)"/></g><g><path class="cls-11" d="M620.43,1174.22h0c12.73,5.27,18.77,19.86,13.5,32.59l-21.9,74.34c-5.27,12.73-27.45,15.62-40.18,10.35h0c-12.73-5.27-26.36-23-21.09-35.73l37.08-68.06c5.27-12.73,19.86-18.77,32.59-13.5Z"/><ellipse class="cls-3" cx="579.39" cy="1273.31" rx="36.87" ry="71.48" transform="translate(-818.72 1321.32) rotate(-67.5)"/><ellipse class="cls-3" cx="576.25" cy="1280.9" rx="36.87" ry="71.48" transform="translate(-827.67 1323.1) rotate(-67.5)"/><ellipse class="cls-12" cx="576.25" cy="1280.9" rx="12.32" ry="35.33" transform="translate(-827.67 1323.1) rotate(-67.5)"/></g></g></g><g><rect class="cls-11" x="775.9" y="329.94" width="13.47" height="905.38" transform="translate(1206.19 -239.93) rotate(67.5)"/><g><g><path class="cls-11" d="M1174.22,620.43h0c5.27,12.73,19.86,18.77,32.59,13.5l74.34-21.9c12.73-5.27,15.62-27.45,10.35-40.18h0c-5.27-12.73-23-26.36-35.73-21.09l-68.06,37.08c-12.73,5.27-18.77,19.86-13.5,32.59Z"/><ellipse class="cls-3" cx="1273.31" cy="579.39" rx="36.87" ry="71.48" transform="translate(-124.8 531.38) rotate(-22.5)"/><ellipse class="cls-3" cx="1280.9" cy="576.25" rx="36.87" ry="71.48" transform="translate(-123.02 534.04) rotate(-22.5)"/><ellipse class="cls-12" cx="1280.9" cy="576.25" rx="12.32" ry="35.33" transform="translate(-123.02 534.04) rotate(-22.5)"/></g><g><path class="cls-11" d="M391.05,944.84h0c5.27,12.73-.77,27.31-13.5,32.59l-68.06,37.08c-12.73,5.27-30.46-8.36-35.73-21.09h0c-5.27-12.73-2.37-34.91,10.35-40.18l74.34-21.9c12.73-5.27,27.31,.77,32.59,13.5Z"/><ellipse class="cls-3" cx="291.96" cy="985.88" rx="36.87" ry="71.48" transform="translate(-355.05 186.77) rotate(-22.5)"/><ellipse class="cls-3" cx="284.37" cy="989.02" rx="36.87" ry="71.48" transform="translate(-356.84 184.11) rotate(-22.5)"/><ellipse class="cls-12" cx="284.37" cy="989.02" rx="12.32" ry="35.33" transform="translate(-356.84 184.11) rotate(-22.5)"/></g></g></g></g><g><g><g><rect class="cls-11" x="717.99" y="975.64" width="11.83" height="146.77"/><g><path class="cls-11" d="M723.9,1100.91h0c7.34,0,13.29,5.95,13.29,13.29l4.38,41.08c0,7.34-10.33,13.29-17.67,13.29h0c-7.34,0-17.67-5.95-17.67-13.29l4.38-41.08c0-7.34,5.95-13.29,13.29-13.29Z"/><g><circle class="cls-5" cx="723.9" cy="1186.3" r="51.16"/><g><ellipse class="cls-21" cx="723.9" cy="1222.61" rx="20.85" ry="10.95"/><path class="cls-20" d="M723.9,1212.16c11.24,0,20.35,4.68,20.35,10.45s-9.11,10.45-20.35,10.45-20.35-4.68-20.35-10.45,9.11-10.45,20.35-10.45m0-1c-11.97,0-21.35,5.03-21.35,11.45s9.38,11.45,21.35,11.45,21.35-5.03,21.35-11.45-9.38-11.45-21.35-11.45h0Z"/></g><g><g class="cls-23"><ellipse class="cls-10" cx="723.9" cy="1217.11" rx="20.35" ry="10.45"/></g><ellipse class="cls-2" cx="723.85" cy="1222.61" rx="20.35" ry="10.45"/></g></g></g></g><g><rect class="cls-11" x="835.45" y="975.64" width="11.83" height="146.77"/><g><path class="cls-11" d="M841.37,1100.91h0c-7.34,0-13.29,5.95-13.29,13.29l-4.38,41.08c0,7.34,10.33,13.29,17.67,13.29h0c7.34,0,17.67-5.95,17.67-13.29l-4.38-41.08c0-7.34-5.95-13.29-13.29-13.29Z"/><g><circle class="cls-5" cx="841.37" cy="1186.3" r="51.16"/><g><path class="cls-21" d="M841.37,1233.56c-11.5,0-20.85-4.91-20.85-10.95s9.35-10.95,20.85-10.95,20.85,4.91,20.85,10.95-9.35,10.95-20.85,10.95Z"/><path class="cls-20" d="M841.37,1212.16c11.24,0,20.35,4.68,20.35,10.45s-9.11,10.45-20.35,10.45-20.35-4.68-20.35-10.45,9.11-10.45,20.35-10.45m0-1c-11.97,0-21.35,5.03-21.35,11.45s9.38,11.45,21.35,11.45,21.35-5.03,21.35-11.45-9.38-11.45-21.35-11.45h0Z"/></g><g><g class="cls-18"><ellipse class="cls-10" cx="841.37" cy="1217.11" rx="20.35" ry="10.45"/></g><ellipse class="cls-2" cx="841.42" cy="1222.61" rx="20.35" ry="10.45"/></g></g></g></g></g><g><g><rect class="cls-11" x="717.99" y="442.86" width="11.83" height="146.77"/><g><path class="cls-11" d="M723.9,464.36h0c7.34,0,13.29-5.95,13.29-13.29l4.38-41.08c0-7.34-10.33-13.29-17.67-13.29h0c-7.34,0-17.67,5.95-17.67,13.29l4.38,41.08c0,7.34,5.95,13.29,13.29,13.29Z"/><g><circle class="cls-6" cx="723.9" cy="378.97" r="51.16"/><g><ellipse class="cls-14" cx="723.9" cy="342.66" rx="20.85" ry="10.95"/><path class="cls-20" d="M723.9,332.21c11.24,0,20.35,4.68,20.35,10.45s-9.11,10.45-20.35,10.45-20.35-4.68-20.35-10.45,9.11-10.45,20.35-10.45m0-1c-11.97,0-21.35,5.03-21.35,11.45s9.38,11.45,21.35,11.45,21.35-5.03,21.35-11.45-9.38-11.45-21.35-11.45h0Z"/></g><g><g class="cls-15"><ellipse class="cls-9" cx="723.9" cy="348.16" rx="20.35" ry="10.45"/></g><ellipse class="cls-2" cx="723.85" cy="342.66" rx="20.35" ry="10.45"/></g></g></g></g><g><rect class="cls-11" x="835.45" y="442.86" width="11.83" height="146.77"/><g><path class="cls-11" d="M841.37,464.36h0c-7.34,0-13.29-5.95-13.29-13.29l-4.38-41.08c0-7.34,10.33-13.29,17.67-13.29h0c7.34,0,17.67,5.95,17.67,13.29l-4.38,41.08c0,7.34-5.95,13.29-13.29,13.29Z"/><g><circle class="cls-6" cx="841.37" cy="378.97" r="51.16"/><g><ellipse class="cls-14" cx="841.42" cy="342.66" rx="20.85" ry="10.95"/><path class="cls-20" d="M841.42,332.21c11.24,0,20.35,4.68,20.35,10.45s-9.11,10.45-20.35,10.45-20.35-4.68-20.35-10.45,9.11-10.45,20.35-10.45m0-1c-11.97,0-21.35,5.03-21.35,11.45s9.38,11.45,21.35,11.45,21.35-5.03,21.35-11.45-9.38-11.45-21.35-11.45h0Z"/></g><g><g class="cls-25"><ellipse class="cls-9" cx="841.37" cy="348.16" rx="20.35" ry="10.45"/></g><ellipse class="cls-2" cx="841.42" cy="342.66" rx="20.35" ry="10.45"/></g></g></g></g></g><g><g><rect class="cls-11" x="717.99" y="975.64" width="11.83" height="146.77"/><g><path class="cls-11" d="M723.9,1100.91h0c7.34,0,13.29,5.95,13.29,13.29l4.38,41.08c0,7.34-10.33,13.29-17.67,13.29h0c-7.34,0-17.67-5.95-17.67-13.29l4.38-41.08c0-7.34,5.95-13.29,13.29-13.29Z"/><g><circle class="cls-6" cx="723.9" cy="1186.3" r="51.16"/><g><ellipse class="cls-14" cx="723.9" cy="1222.61" rx="20.85" ry="10.95"/><path class="cls-20" d="M723.9,1212.16c11.24,0,20.35,4.68,20.35,10.45s-9.11,10.45-20.35,10.45-20.35-4.68-20.35-10.45,9.11-10.45,20.35-10.45m0-1c-11.97,0-21.35,5.03-21.35,11.45s9.38,11.45,21.35,11.45,21.35-5.03,21.35-11.45-9.38-11.45-21.35-11.45h0Z"/></g><g><g class="cls-19"><ellipse class="cls-9" cx="723.9" cy="1217.11" rx="20.35" ry="10.45"/></g><ellipse class="cls-2" cx="723.85" cy="1222.61" rx="20.35" ry="10.45"/></g></g></g></g><g><rect class="cls-11" x="835.45" y="975.64" width="11.83" height="146.77"/><g><path class="cls-11" d="M841.37,1100.91h0c-7.34,0-13.29,5.95-13.29,13.29l-4.38,41.08c0,7.34,10.33,13.29,17.67,13.29h0c7.34,0,17.67-5.95,17.67-13.29l-4.38-41.08c0-7.34-5.95-13.29-13.29-13.29Z"/><g><circle class="cls-6" cx="841.37" cy="1186.3" r="51.16"/><g><ellipse class="cls-14" cx="841.42" cy="1222.61" rx="20.85" ry="10.95"/><path class="cls-20" d="M841.42,1212.16c11.24,0,20.35,4.68,20.35,10.45s-9.11,10.45-20.35,10.45-20.35-4.68-20.35-10.45,9.11-10.45,20.35-10.45m0-1c-11.97,0-21.35,5.03-21.35,11.45s9.38,11.45,21.35,11.45,21.35-5.03,21.35-11.45-9.38-11.45-21.35-11.45h0Z"/></g><g><g class="cls-27"><ellipse class="cls-9" cx="841.37" cy="1217.11" rx="20.35" ry="10.45"/></g><ellipse class="cls-2" cx="841.42" cy="1222.61" rx="20.35" ry="10.45"/></g></g></g></g></g></g><g><g><g><rect class="cls-11" x="442.86" y="717.99" width="146.77" height="11.83"/><g><path class="cls-11" d="M464.36,723.9h0c0,7.34-5.95,13.29-13.29,13.29l-41.08,4.38c-7.34,0-13.29-10.33-13.29-17.67h0c0-7.34,5.95-17.67,13.29-17.67l41.08,4.38c7.34,0,13.29,5.95,13.29,13.29Z"/><g><circle class="cls-5" cx="378.97" cy="723.9" r="51.16"/><g><ellipse class="cls-21" cx="342.66" cy="723.9" rx="10.95" ry="20.85"/><path class="cls-20" d="M342.66,703.55c5.77,0,10.45,9.11,10.45,20.35s-4.68,20.35-10.45,20.35-10.45-9.11-10.45-20.35,4.68-20.35,10.45-20.35m0-1c-6.42,0-11.45,9.38-11.45,21.35s5.03,21.35,11.45,21.35,11.45-9.38,11.45-21.35-5.03-21.35-11.45-21.35h0Z"/></g><g><g class="cls-16"><ellipse class="cls-10" cx="348.16" cy="723.9" rx="10.45" ry="20.35"/></g><ellipse class="cls-2" cx="342.66" cy="723.85" rx="10.45" ry="20.35"/></g></g></g></g><g><rect class="cls-11" x="442.86" y="835.45" width="146.77" height="11.83"/><g><path class="cls-11" d="M464.36,841.37h0c0-7.34-5.95-13.29-13.29-13.29l-41.08-4.38c-7.34,0-13.29,10.33-13.29,17.67h0c0,7.34,5.95,17.67,13.29,17.67l41.08-4.38c7.34,0,13.29-5.95,13.29-13.29Z"/><g><circle class="cls-5" cx="378.97" cy="841.37" r="51.16"/><g><ellipse class="cls-21" cx="342.66" cy="841.37" rx="10.95" ry="20.85"/><path class="cls-20" d="M342.66,821.01c5.77,0,10.45,9.11,10.45,20.35s-4.68,20.35-10.45,20.35-10.45-9.11-10.45-20.35,4.68-20.35,10.45-20.35m0-1c-6.42,0-11.45,9.38-11.45,21.35s5.03,21.35,11.45,21.35,11.45-9.38,11.45-21.35-5.03-21.35-11.45-21.35h0Z"/></g><g><g class="cls-17"><ellipse class="cls-10" cx="348.16" cy="841.37" rx="10.45" ry="20.35"/></g><ellipse class="cls-2" cx="342.66" cy="841.42" rx="10.45" ry="20.35"/></g></g></g></g></g><g><g><rect class="cls-11" x="975.64" y="717.99" width="146.77" height="11.83"/><g><path class="cls-11" d="M1100.91,723.9h0c0,7.34,5.95,13.29,13.29,13.29l41.08,4.38c7.34,0,13.29-10.33,13.29-17.67h0c0-7.34-5.95-17.67-13.29-17.67l-41.08,4.38c-7.34,0-13.29,5.95-13.29,13.29Z"/><g><circle class="cls-6" cx="1186.3" cy="723.9" r="51.16"/><g><ellipse class="cls-14" cx="1222.61" cy="723.9" rx="10.95" ry="20.85"/><path class="cls-20" d="M1222.61,703.55c5.77,0,10.45,9.11,10.45,20.35s-4.68,20.35-10.45,20.35-10.45-9.11-10.45-20.35,4.68-20.35,10.45-20.35m0-1c-6.42,0-11.45,9.38-11.45,21.35s5.03,21.35,11.45,21.35,11.45-9.38,11.45-21.35-5.03-21.35-11.45-21.35h0Z"/></g><g><g class="cls-26"><ellipse class="cls-9" cx="1217.11" cy="723.9" rx="10.45" ry="20.35"/></g><ellipse class="cls-2" cx="1222.61" cy="723.85" rx="10.45" ry="20.35"/></g></g></g></g><g><rect class="cls-11" x="975.64" y="835.45" width="146.77" height="11.83"/><g><path class="cls-11" d="M1100.91,841.37h0c0-7.34,5.95-13.29,13.29-13.29l41.08-4.38c7.34,0,13.29,10.33,13.29,17.67h0c0,7.34-5.95,17.67-13.29,17.67l-41.08-4.38c-7.34,0-13.29-5.95-13.29-13.29Z"/><g><circle class="cls-6" cx="1186.3" cy="841.37" r="51.16"/><g><ellipse class="cls-14" cx="1222.61" cy="841.37" rx="10.95" ry="20.85"/><path class="cls-20" d="M1222.61,821.01c5.77,0,10.45,9.11,10.45,20.35s-4.68,20.35-10.45,20.35-10.45-9.11-10.45-20.35,4.68-20.35,10.45-20.35m0-1c-6.42,0-11.45,9.38-11.45,21.35s5.03,21.35,11.45,21.35,11.45-9.38,11.45-21.35-5.03-21.35-11.45-21.35h0Z"/></g><g><g class="cls-22"><ellipse class="cls-9" cx="1217.11" cy="841.37" rx="10.45" ry="20.35"/></g><ellipse class="cls-2" cx="1222.61" cy="841.42" rx="10.45" ry="20.35"/></g></g></g></g></g><g><g><rect class="cls-11" x="442.86" y="717.79" width="146.77" height="11.83"/><g><path class="cls-11" d="M464.36,723.71h0c0,7.34-5.95,13.29-13.29,13.29l-41.08,4.38c-7.34,0-13.29-10.33-13.29-17.67h0c0-7.34,5.95-17.67,13.29-17.67l41.08,4.38c7.34,0,13.29,5.95,13.29,13.29Z"/><g><circle class="cls-6" cx="378.97" cy="723.71" r="51.16"/><g><path class="cls-14" d="M342.66,744.56c-6.04,0-10.95-9.35-10.95-20.85s4.91-20.85,10.95-20.85,10.95,9.35,10.95,20.85-4.91,20.85-10.95,20.85Z"/><path class="cls-20" d="M342.66,703.36c5.77,0,10.45,9.11,10.45,20.35s-4.68,20.35-10.45,20.35-10.45-9.11-10.45-20.35,4.68-20.35,10.45-20.35m0-1c-6.42,0-11.45,9.38-11.45,21.35s5.03,21.35,11.45,21.35,11.45-9.38,11.45-21.35-5.03-21.35-11.45-21.35h0Z"/></g><g><g class="cls-29"><ellipse class="cls-9" cx="348.16" cy="723.71" rx="10.45" ry="20.35"/></g><ellipse class="cls-2" cx="342.66" cy="723.66" rx="10.45" ry="20.35"/></g></g></g></g><g><rect class="cls-11" x="442.86" y="835.26" width="146.77" height="11.83"/><g><path class="cls-11" d="M464.36,841.17h0c0-7.34-5.95-13.29-13.29-13.29l-41.08-4.38c-7.34,0-13.29,10.33-13.29,17.67h0c0,7.34,5.95,17.67,13.29,17.67l41.08-4.38c7.34,0,13.29-5.95,13.29-13.29Z"/><g><circle class="cls-6" cx="378.97" cy="841.17" r="51.16"/><g><ellipse class="cls-14" cx="342.66" cy="841.17" rx="10.95" ry="20.85"/><path class="cls-20" d="M342.66,820.82c5.77,0,10.45,9.11,10.45,20.35s-4.68,20.35-10.45,20.35-10.45-9.11-10.45-20.35,4.68-20.35,10.45-20.35m0-1c-6.42,0-11.45,9.38-11.45,21.35s5.03,21.35,11.45,21.35,11.45-9.38,11.45-21.35-5.03-21.35-11.45-21.35h0Z"/></g><g><g class="cls-1"><ellipse class="cls-9" cx="348.16" cy="841.17" rx="10.45" ry="20.35"/></g><ellipse class="cls-2" cx="342.66" cy="841.22" rx="10.45" ry="20.35"/></g></g></g></g></g></g><polygon class="cls-4" points="879.41 771.34 793.92 771.34 793.92 685.86 771.34 685.86 771.34 771.34 685.86 771.34 685.86 793.92 771.34 793.92 771.34 879.41 793.92 879.41 793.92 793.92 879.41 793.92 879.41 771.34"/><g><g><path class="cls-11" d="M782.63,728.47h0c-14.93,0-27.03-12.1-27.03-27.03l-8.91-83.53c0-14.93,21.01-27.03,35.94-27.03h0c14.93,0,35.94,12.1,35.94,27.03l-8.91,83.53c0,14.93-12.1,27.03-27.03,27.03Z"/><g><path class="cls-30" d="M880.24,590.65c55.06,52.06-13.29,94.26-97.6,60.26-84.31,33.99-152.66-8.21-97.6-60.26-55.06-52.06,13.29-94.26,97.6-60.26,84.31-33.99,152.66,8.21,97.6,60.26Z"/><path class="cls-8" d="M880.24,590.65c55.06,52.06-13.29,94.26-97.6,60.26-84.31,33.99-152.66-8.21-97.6-60.26-55.06-52.06,13.29-94.26,97.6-60.26,84.31-33.99,152.66,8.21,97.6,60.26Z"/></g><g><path class="cls-31" d="M880.24,575.73c55.06,52.06-13.29,94.26-97.6,60.26-84.31,33.99-152.66-8.21-97.6-60.26-55.06-52.06,13.29-94.26,97.6-60.26,84.31-33.99,152.66,8.21,97.6,60.26Z"/><path class="cls-8" d="M880.24,575.73c55.06,52.06-13.29,94.26-97.6,60.26-84.31,33.99-152.66-8.21-97.6-60.26-55.06-52.06,13.29-94.26,97.6-60.26,84.31-33.99,152.66,8.21,97.6,60.26Z"/></g><ellipse class="cls-13" cx="782.63" cy="571.73" rx="50.1" ry="19.15"/></g><g><path class="cls-11" d="M782.63,836.8h0c14.93,0,27.03,12.1,27.03,27.03l8.91,83.53c0,14.93-21.01,27.03-35.94,27.03h0c-14.93,0-35.94-12.1-35.94-27.03l8.91-83.53c0-14.93,12.1-27.03,27.03-27.03Z"/><g><path class="cls-30" d="M685.03,974.62c-55.06-52.06,13.29-94.26,97.6-60.26,84.31-33.99,152.66,8.21,97.6,60.26,55.06,52.06-13.29,94.26-97.6,60.26-84.31,33.99-152.66-8.21-97.6-60.26Z"/><path class="cls-8" d="M685.03,974.62c-55.06-52.06,13.29-94.26,97.6-60.26,84.31-33.99,152.66,8.21,97.6,60.26,55.06,52.06-13.29,94.26-97.6,60.26-84.31,33.99-152.66-8.21-97.6-60.26Z"/></g><g><path class="cls-31" d="M685.03,989.54c-55.06-52.06,13.29-94.26,97.6-60.26,84.31-33.99,152.66,8.21,97.6,60.26,55.06,52.06-13.29,94.26-97.6,60.26-84.31,33.99-152.66-8.21-97.6-60.26Z"/><path class="cls-8" d="M685.03,989.54c-55.06-52.06,13.29-94.26,97.6-60.26,84.31-33.99,152.66,8.21,97.6,60.26,55.06,52.06-13.29,94.26-97.6,60.26-84.31,33.99-152.66-8.21-97.6-60.26Z"/></g><ellipse class="cls-13" cx="782.63" cy="993.54" rx="50.1" ry="19.15"/></g><g><path class="cls-11" d="M838.1,782.63h0c0-14.93,12.1-27.03,27.03-27.03l83.53-8.91c14.93,0,27.03,21.01,27.03,35.94h0c0,14.93-12.1,35.94-27.03,35.94l-83.53-8.91c-14.93,0-27.03-12.1-27.03-27.03Z"/><g><path class="cls-30" d="M975.92,880.24c-52.06,55.06-94.26-13.29-60.26-97.6-33.99-84.31,8.21-152.66,60.26-97.6,52.06-55.06,94.26,13.29,60.26,97.6,33.99,84.31-8.21,152.66-60.26,97.6Z"/><path class="cls-8" d="M975.92,880.24c-52.06,55.06-94.26-13.29-60.26-97.6-33.99-84.31,8.21-152.66,60.26-97.6,52.06-55.06,94.26,13.29,60.26,97.6,33.99,84.31-8.21,152.66-60.26,97.6Z"/></g><g><path class="cls-31" d="M990.84,880.24c-52.06,55.06-94.26-13.29-60.26-97.6-33.99-84.31,8.21-152.66,60.26-97.6,52.06-55.06,94.26,13.29,60.26,97.6,33.99,84.31-8.21,152.66-60.26,97.6Z"/><path class="cls-8" d="M990.84,880.24c-52.06,55.06-94.26-13.29-60.26-97.6-33.99-84.31,8.21-152.66,60.26-97.6,52.06-55.06,94.26,13.29,60.26,97.6,33.99,84.31-8.21,152.66-60.26,97.6Z"/></g><ellipse class="cls-13" cx="994.85" cy="782.63" rx="19.15" ry="50.1"/></g><g><path class="cls-11" d="M727.17,782.63h0c0,14.93-12.1,27.03-27.03,27.03l-83.53,8.91c-14.93,0-27.03-21.01-27.03-35.94h0c0-14.93,12.1-35.94,27.03-35.94l83.53,8.91c14.93,0,27.03,12.1,27.03,27.03Z"/><g><path class="cls-30" d="M589.35,685.03c52.06-55.06,94.26,13.29,60.26,97.6,33.99,84.31-8.21,152.66-60.26,97.6-52.06,55.06-94.26-13.29-60.26-97.6-33.99-84.31,8.21-152.66,60.26-97.6Z"/><path class="cls-8" d="M589.35,685.03c52.06-55.06,94.26,13.29,60.26,97.6,33.99,84.31-8.21,152.66-60.26,97.6-52.06,55.06-94.26-13.29-60.26-97.6-33.99-84.31,8.21-152.66,60.26-97.6Z"/></g><g><path class="cls-31" d="M574.43,685.03c52.06-55.06,94.26,13.29,60.26,97.6,33.99,84.31-8.21,152.66-60.26,97.6-52.06,55.06-94.26-13.29-60.26-97.6-33.99-84.31,8.21-152.66,60.26-97.6Z"/><path class="cls-8" d="M574.43,685.03c52.06-55.06,94.26,13.29,60.26,97.6,33.99,84.31-8.21,152.66-60.26,97.6-52.06,55.06-94.26-13.29-60.26-97.6-33.99-84.31,8.21-152.66,60.26-97.6Z"/></g><ellipse class="cls-13" cx="570.42" cy="782.63" rx="19.15" ry="50.1"/></g></g><g><g><path class="cls-24" d="M851.71,782.63c18.84,48.55-20.52,87.91-69.07,69.07-48.55,18.84-87.91-20.52-69.07-69.07-18.84-48.55,20.52-87.91,69.07-69.07,48.55-18.84,87.91,20.52,69.07,69.07Z"/><path class="cls-8" d="M851.71,782.63c18.84,48.55-20.52,87.91-69.07,69.07-48.55,18.84-87.91-20.52-69.07-69.07-18.84-48.55,20.52-87.91,69.07-69.07,48.55-18.84,87.91,20.52,69.07,69.07Z"/></g><circle class="cls-7" cx="782.63" cy="782.63" r="22.58"/></g></svg>