<?xml version="1.0" encoding="UTF-8"?><svg id="_레이어_1" xmlns="http://www.w3.org/2000/svg" viewBox="0 0 1565.27 1565.27"><defs><style>.cls-1{fill:#9ac5e9;}.cls-1,.cls-2,.cls-3,.cls-4,.cls-5{stroke:#13519c;stroke-width:5px;}.cls-1,.cls-3{stroke-linecap:round;stroke-linejoin:round;}.cls-2{fill:#9cc9e6;}.cls-2,.cls-4,.cls-5{stroke-miterlimit:10;}.cls-3{fill:none;}.cls-4{fill:#058b8a;}.cls-5,.cls-6{fill:#fff4b5;}.cls-7{fill:#6ca4ca;}.cls-8{fill:#b1d9e1;}</style></defs><polygon class="cls-1" points="879.41 771.34 793.92 771.34 793.92 685.86 771.34 685.86 771.34 771.34 685.86 771.34 685.86 793.92 771.34 793.92 771.34 879.41 793.92 879.41 793.92 793.92 879.41 793.92 879.41 771.34"/><g><g><path class="cls-4" d="M782.63,728.47h0c-14.93,0-27.03-12.1-27.03-27.03l-8.91-83.53c0-14.93,21.01-27.03,35.94-27.03h0c14.93,0,35.94,12.1,35.94,27.03l-8.91,83.53c0,14.93-12.1,27.03-27.03,27.03Z"/><g><path class="cls-7" d="M880.24,590.65c55.06,52.06-13.29,94.26-97.6,60.26-84.31,33.99-152.66-8.21-97.6-60.26-55.06-52.06,13.29-94.26,97.6-60.26,84.31-33.99,152.66,8.21,97.6,60.26Z"/><path class="cls-3" d="M880.24,590.65c55.06,52.06-13.29,94.26-97.6,60.26-84.31,33.99-152.66-8.21-97.6-60.26-55.06-52.06,13.29-94.26,97.6-60.26,84.31-33.99,152.66,8.21,97.6,60.26Z"/></g><g><path class="cls-8" d="M880.24,575.73c55.06,52.06-13.29,94.26-97.6,60.26-84.31,33.99-152.66-8.21-97.6-60.26-55.06-52.06,13.29-94.26,97.6-60.26,84.31-33.99,152.66,8.21,97.6,60.26Z"/><path class="cls-3" d="M880.24,575.73c55.06,52.06-13.29,94.26-97.6,60.26-84.31,33.99-152.66-8.21-97.6-60.26-55.06-52.06,13.29-94.26,97.6-60.26,84.31-33.99,152.66,8.21,97.6,60.26Z"/></g><ellipse class="cls-5" cx="782.63" cy="571.73" rx="50.1" ry="19.15"/></g><g><path class="cls-4" d="M782.63,836.8h0c14.93,0,27.03,12.1,27.03,27.03l8.91,83.53c0,14.93-21.01,27.03-35.94,27.03h0c-14.93,0-35.94-12.1-35.94-27.03l8.91-83.53c0-14.93,12.1-27.03,27.03-27.03Z"/><g><path class="cls-7" d="M685.03,974.62c-55.06-52.06,13.29-94.26,97.6-60.26,84.31-33.99,152.66,8.21,97.6,60.26,55.06,52.06-13.29,94.26-97.6,60.26-84.31,33.99-152.66-8.21-97.6-60.26Z"/><path class="cls-3" d="M685.03,974.62c-55.06-52.06,13.29-94.26,97.6-60.26,84.31-33.99,152.66,8.21,97.6,60.26,55.06,52.06-13.29,94.26-97.6,60.26-84.31,33.99-152.66-8.21-97.6-60.26Z"/></g><g><path class="cls-8" d="M685.03,989.54c-55.06-52.06,13.29-94.26,97.6-60.26,84.31-33.99,152.66,8.21,97.6,60.26,55.06,52.06-13.29,94.26-97.6,60.26-84.31,33.99-152.66-8.21-97.6-60.26Z"/><path class="cls-3" d="M685.03,989.54c-55.06-52.06,13.29-94.26,97.6-60.26,84.31-33.99,152.66,8.21,97.6,60.26,55.06,52.06-13.29,94.26-97.6,60.26-84.31,33.99-152.66-8.21-97.6-60.26Z"/></g><ellipse class="cls-5" cx="782.63" cy="993.54" rx="50.1" ry="19.15"/></g><g><path class="cls-4" d="M838.1,782.63h0c0-14.93,12.1-27.03,27.03-27.03l83.53-8.91c14.93,0,27.03,21.01,27.03,35.94h0c0,14.93-12.1,35.94-27.03,35.94l-83.53-8.91c-14.93,0-27.03-12.1-27.03-27.03Z"/><g><path class="cls-7" d="M975.92,880.24c-52.06,55.06-94.26-13.29-60.26-97.6-33.99-84.31,8.21-152.66,60.26-97.6,52.06-55.06,94.26,13.29,60.26,97.6,33.99,84.31-8.21,152.66-60.26,97.6Z"/><path class="cls-3" d="M975.92,880.24c-52.06,55.06-94.26-13.29-60.26-97.6-33.99-84.31,8.21-152.66,60.26-97.6,52.06-55.06,94.26,13.29,60.26,97.6,33.99,84.31-8.21,152.66-60.26,97.6Z"/></g><g><path class="cls-8" d="M990.84,880.24c-52.06,55.06-94.26-13.29-60.26-97.6-33.99-84.31,8.21-152.66,60.26-97.6,52.06-55.06,94.26,13.29,60.26,97.6,33.99,84.31-8.21,152.66-60.26,97.6Z"/><path class="cls-3" d="M990.84,880.24c-52.06,55.06-94.26-13.29-60.26-97.6-33.99-84.31,8.21-152.66,60.26-97.6,52.06-55.06,94.26,13.29,60.26,97.6,33.99,84.31-8.21,152.66-60.26,97.6Z"/></g><ellipse class="cls-5" cx="994.85" cy="782.63" rx="19.15" ry="50.1"/></g><g><path class="cls-4" d="M727.17,782.63h0c0,14.93-12.1,27.03-27.03,27.03l-83.53,8.91c-14.93,0-27.03-21.01-27.03-35.94h0c0-14.93,12.1-35.94,27.03-35.94l83.53,8.91c14.93,0,27.03,12.1,27.03,27.03Z"/><g><path class="cls-7" d="M589.35,685.03c52.06-55.06,94.26,13.29,60.26,97.6,33.99,84.31-8.21,152.66-60.26,97.6-52.06,55.06-94.26-13.29-60.26-97.6-33.99-84.31,8.21-152.66,60.26-97.6Z"/><path class="cls-3" d="M589.35,685.03c52.06-55.06,94.26,13.29,60.26,97.6,33.99,84.31-8.21,152.66-60.26,97.6-52.06,55.06-94.26-13.29-60.26-97.6-33.99-84.31,8.21-152.66,60.26-97.6Z"/></g><g><path class="cls-8" d="M574.43,685.03c52.06-55.06,94.26,13.29,60.26,97.6,33.99,84.31-8.21,152.66-60.26,97.6-52.06,55.06-94.26-13.29-60.26-97.6-33.99-84.31,8.21-152.66,60.26-97.6Z"/><path class="cls-3" d="M574.43,685.03c52.06-55.06,94.26,13.29,60.26,97.6,33.99,84.31-8.21,152.66-60.26,97.6-52.06,55.06-94.26-13.29-60.26-97.6-33.99-84.31,8.21-152.66,60.26-97.6Z"/></g><ellipse class="cls-5" cx="570.42" cy="782.63" rx="19.15" ry="50.1"/></g></g><g><g><path class="cls-6" d="M851.71,782.63c18.84,48.55-20.52,87.91-69.07,69.07-48.55,18.84-87.91-20.52-69.07-69.07-18.84-48.55,20.52-87.91,69.07-69.07,48.55-18.84,87.91,20.52,69.07,69.07Z"/><path class="cls-3" d="M851.71,782.63c18.84,48.55-20.52,87.91-69.07,69.07-48.55,18.84-87.91-20.52-69.07-69.07-18.84-48.55,20.52-87.91,69.07-69.07,48.55-18.84,87.91,20.52,69.07,69.07Z"/></g><circle class="cls-2" cx="782.63" cy="782.63" r="22.58"/></g></svg>