<?xml version="1.0" encoding="UTF-8"?><svg id="_레이어_1" xmlns="http://www.w3.org/2000/svg" viewBox="0 0 35.02 35.02"><defs><style>.cls-1{fill:#13519c;}</style></defs><path class="cls-1" d="M17.52,26.06c4.71-.01,8.54-3.85,8.53-8.56,0-2.28-.9-4.43-2.52-6.04-1.61-1.61-3.75-2.49-6.03-2.49h-.02c-2.28,0-4.43,.9-6.04,2.51-1.61,1.62-2.5,3.77-2.49,6.05,0,2.28,.9,4.43,2.51,6.04,1.61,1.61,3.75,2.49,6.05,2.49Zm-7.06-8.53c0-3.88,3.14-7.05,7.04-7.06,3.88,0,7.03,3.15,7.04,7.03,0,1.88-.73,3.65-2.05,4.98s-3.1,2.07-4.99,2.07c-1.87,0-3.64-.73-4.97-2.05-1.33-1.33-2.07-3.1-2.07-4.98Z"/><path class="cls-1" d="M35.02,17.48c-.01-4.94-.03-5.59-.12-7.55-.08-1.68-.33-2.96-.8-4.18-.45-1.16-1.05-2.07-1.93-2.95-.87-.87-1.78-1.46-2.95-1.91-1.22-.47-2.51-.71-4.18-.79C23.03,0,22.44-.01,17.48,0c-4.98,.01-5.57,.03-7.56,.13-1.68,.08-2.96,.33-4.18,.8-1.16,.45-2.07,1.05-2.95,1.92-.87,.87-1.46,1.78-1.91,2.95C.41,7.03,.17,8.32,.1,10,.02,11.88,0,12.45,0,17.54c.01,4.98,.03,5.63,.13,7.55,.08,1.68,.33,2.97,.8,4.18,.45,1.16,1.04,2.07,1.93,2.95,.87,.87,1.79,1.46,2.95,1.91,1.22,.47,2.51,.72,4.2,.79,1.6,.07,2.26,.1,5.44,.1,.6,0,1.29,0,2.09,0,4.98-.01,5.57-.03,7.55-.12,1.67-.08,2.96-.33,4.18-.81,1.16-.46,2.07-1.05,2.95-1.92,.87-.87,1.46-1.79,1.91-2.95,.47-1.22,.72-2.51,.79-4.18,.08-1.89,.11-2.46,.1-7.55ZM17.47,1.51c.8,0,1.49,0,2.08,0,3.12,0,3.76,.02,5.4,.1,1.93,.08,2.99,.41,3.7,.69,.97,.37,1.7,.84,2.43,1.58,.74,.73,1.21,1.46,1.59,2.43,.28,.71,.61,1.78,.7,3.7,.1,2,.12,2.59,.12,7.48,.01,4.91,0,5.5-.09,7.48-.08,1.92-.41,2.99-.68,3.71-.38,.97-.85,1.7-1.58,2.43-.73,.74-1.46,1.21-2.43,1.59-.71,.28-1.78,.61-3.7,.7-1.95,.09-2.54,.11-7.48,.12h-1.69c-3.39,0-4.05-.02-5.79-.1-1.92-.08-2.99-.41-3.71-.68-.97-.37-1.69-.84-2.43-1.58-.74-.73-1.21-1.46-1.59-2.43-.28-.71-.61-1.78-.7-3.7-.09-1.94-.11-2.52-.12-7.48-.01-4.92,0-5.5,.09-7.48,.08-1.92,.41-2.99,.68-3.7,.38-.97,.85-1.7,1.58-2.43,.73-.73,1.46-1.21,2.43-1.59,.71-.28,1.77-.61,3.7-.7,1.94-.09,2.52-.11,7.48-.12Z"/><path class="cls-1" d="M27.32,11.04c1.86,0,3.37-1.52,3.37-3.38,0-1.86-1.52-3.37-3.38-3.37-.9,0-1.75,.36-2.39,.99-.64,.64-.99,1.49-.98,2.39,0,1.86,1.52,3.37,3.38,3.37Zm-2.09-3.37c0-1.15,.93-2.08,2.08-2.08,1.15,0,2.08,.93,2.08,2.08,0,1.15-.93,2.08-2.08,2.08-1.15,0-2.08-.93-2.08-2.08Z"/></svg>