<?xml version="1.0" encoding="utf-8"?>
<!-- Generator: Adobe Illustrator 26.5.0, SVG Export Plug-In . SVG Version: 6.00 Build 0)  -->
<svg version="1.1" id="_레이어_1" xmlns="http://www.w3.org/2000/svg" xmlns:xlink="http://www.w3.org/1999/xlink" x="0px"
	 y="0px" viewBox="0 0 230.3 243.6" style="enable-background:new 0 0 230.3 243.6;" xml:space="preserve">
<style type="text/css">
	.st0{fill:#F2F6FB;}
	.st1{fill:#305C9B;}
	.st2{font-family:'SDGothicNeob-cRg-KSCpc-EUC-H';}
	.st3{font-size:93.53px;}
</style>
<g>
	<path class="st0" d="M156.1,51c38.5-66.7-120.3-66.7-81.8,0c-38.5-66.7-117.9,70.8-40.9,70.8c-77,0,2.4,137.5,40.9,70.8
		c-38.5,66.6,120.3,66.6,81.8,0c38.5,66.6,117.9-70.8,40.9-70.8C273.9,121.8,194.5-15.7,156.1,51L156.1,51z"/>
	<path class="st1" d="M115.2,244.6c-15.8,0-30-4.3-38.9-11.8c-5.4-4.5-12.4-13.4-9.3-27.6c-10.7,9.8-21.9,8.2-28.5,5.8
		c-11-4-21.8-14.1-29.7-27.8c-7.9-13.7-11.3-28.1-9.2-39.6c1.2-6.9,5.4-17.5,19.3-21.8C5,117.4,0.8,106.9-0.4,100
		c-2-11.5,1.3-25.9,9.2-39.6c7.9-13.7,18.7-23.8,29.7-27.8c6.6-2.4,17.8-4.1,28.5,5.8c-3.2-14.2,3.9-23.1,9.3-27.6
		C85.2,3.3,99.4-1,115.2-1c15.8,0,30,4.3,38.9,11.8c5.4,4.5,12.4,13.4,9.3,27.6c10.7-9.8,22-8.2,28.6-5.8c11,4,21.8,14.1,29.7,27.8
		s11.3,28.1,9.2,39.6c-1.2,6.9-5.4,17.5-19.3,21.8c13.9,4.4,18.1,14.9,19.3,21.8c2,11.5-1.3,25.9-9.2,39.6
		c-7.9,13.7-18.7,23.8-29.7,27.8c-6.6,2.4-17.8,4.1-28.5-5.8c3.2,14.2-3.9,23.1-9.3,27.6C145.1,240.3,131,244.6,115.2,244.6z
		 M76,193.6c-8.6,14.9-7.6,27.4,2.8,36.1c17.3,14.5,55.3,14.5,72.6,0c10.4-8.8,11.4-21.3,2.8-36.1c-0.2-0.3-0.3-0.7-0.3-1
		c0-0.7,0.4-1.4,1-1.7c1-0.6,2.2-0.2,2.7,0.7c8.6,14.9,19.9,20.3,32.7,15.6c21.2-7.7,40.2-40.7,36.3-62.9
		c-2.4-13.4-12.7-20.5-29.9-20.5c-1.1,0-2-0.9-2-2s0.9-2,2-2c17.2,0,27.5-7.1,29.9-20.5c3.9-22.3-15.1-55.2-36.3-62.9
		c-12.8-4.7-24.1,0.7-32.7,15.6c-0.4,0.6-1,1-1.7,1s-1.4-0.4-1.7-1c-0.4-0.6-0.4-1.4,0-2c8.6-14.9,7.6-27.4-2.8-36.1
		c-17.3-14.5-55.3-14.5-72.6,0C68.4,22.6,67.4,35.1,76,50c0.2,0.3,0.3,0.7,0.3,1c0,0.7-0.4,1.4-1,1.7c-1,0.6-2.2,0.2-2.7-0.7
		c-8.6-14.9-19.9-20.3-32.7-15.6C18.6,44.1-0.4,77,3.5,99.3c2.4,13.4,12.7,20.5,29.9,20.5c1.1,0,2,0.9,2,2s-0.9,2-2,2
		c-17.2,0-27.5,7.1-29.9,20.5c-3.9,22.3,15.1,55.2,36.3,62.9c12.8,4.7,24.1-0.7,32.7-15.6c0.6-1,1.8-1.3,2.7-0.7c0.6,0.4,1,1,1,1.7
		C76.3,193,76.2,193.3,76,193.6z"/>
</g>
<text transform="matrix(1 0 0 1 62.13 149.87)" class="st1 st2 st3">En</text>
</svg>
