<?xml version="1.0" encoding="UTF-8"?><svg id="_레이어_1" xmlns="http://www.w3.org/2000/svg" xmlns:xlink="http://www.w3.org/1999/xlink" viewBox="0 0 41.72 37.5"><defs><style>.cls-1{clip-path:url(#clippath-1);}.cls-2{fill:#13519c;}.cls-3{fill:#13519c;}
.cls-3:hover{fill:#13519c; stroke:1px #13519c; }
.cls-4{fill:#13519c;}.cls-5{fill:#13519c;}.cls-6{clip-path:url(#clippath);}.cls-7{fill:none;}.cls-8{fill:#13519c;}.cls-9{fill:#058b8a;}</style><clipPath id="clippath"><rect class="cls-7" x="-2083.76" y="-920.27" width="1920" height="1080.6"/></clipPath><clipPath id="clippath-1"><path class="cls-3" d="M48.83,3.78c-2.55,0-5.76-1.57-8.62-4.43-4.28-4.28-5.67-9.36-3.23-11.8,1.25-1.25,3.24-1.53,5.6-.77,2.08,.67,4.28,2.09,6.19,4,4.28,4.28,5.67,9.36,3.23,11.8-.81,.81-1.91,1.2-3.18,1.2Zm-8.7-14.96c-.61,0-1.1,.15-1.41,.47-1.2,1.2-.07,5.01,3.23,8.32,3.31,3.3,7.12,4.43,8.32,3.23,1.2-1.2,.07-5.01-3.23-8.32-2.45-2.45-5.17-3.7-6.91-3.7Z"/></clipPath></defs><g class="cls-6"><g><g><rect class="cls-9" x="-12.93" y="12.69" width="6.42" height="73.17" transform="translate(31.99 21.3) rotate(45)"/><path class="cls-3" d="M-33.32,80.31l-7.44-7.44L13.88,18.24l7.44,7.44-54.64,54.64Zm-1.64-7.44l1.64,1.64L15.52,25.67l-1.64-1.64-48.84,48.84Z"/></g><g><g><path class="cls-9" d="M4.71,34.76h0c-2.4-2.4-2.4-6.28,0-8.68l11.98-14.84c2.4-2.4,7.71-.97,10.11,1.43h0c2.4,2.4,3.83,7.71,1.43,10.11l-14.84,11.98c-2.4,2.4-6.28,2.4-8.68,0Z"/><path class="cls-3" d="M9.05,38.6c-2.1,0-4.19-.8-5.79-2.39-3.16-3.16-3.19-8.3-.08-11.49L15.25,9.79c3.48-3.48,10.13-1.44,13.01,1.43,2.87,2.87,4.91,9.53,1.43,13.01l-.16,.15-14.76,11.92c-1.59,1.54-3.65,2.31-5.71,2.31ZM18.21,12.63L6.16,27.53c-1.59,1.59-1.59,4.19,0,5.78s4.19,1.59,5.78,0l.16-.15,14.74-11.9c1.31-1.45,.27-5.39-1.49-7.15-1.76-1.76-5.7-2.79-7.15-1.49Z"/></g><g><g><circle class="cls-8" cx="32.64" cy="6.92" r="23.62"/><path class="cls-3" d="M32.64,32.58c-6.57,0-13.15-2.5-18.15-7.51C4.48,15.06,4.48-1.23,14.48-11.24c10.01-10.01,26.3-10.01,36.3,0,10.01,10.01,10.01,26.29,0,36.3-5,5.01-11.58,7.51-18.15,7.51Zm0-47.22c-5.52,0-11.05,2.1-15.25,6.31C8.97,.07,8.97,13.76,17.38,22.17c8.41,8.41,22.1,8.41,30.51,0,8.41-8.41,8.41-22.1,0-30.51-4.21-4.21-9.73-6.31-15.26-6.31Z"/></g><g><path class="cls-5" d="M48.85,2.94c-2.39,0-5.48-1.6-8.06-4.18-1.82-1.82-3.17-3.9-3.8-5.86-.66-2.05-.46-3.75,.57-4.77,.62-.62,1.51-.95,2.58-.95,2.39,0,5.48,1.6,8.06,4.18,3.89,3.89,5.31,8.56,3.23,10.64-.62,.62-1.51,.95-2.58,.95Z"/><path class="cls-3" d="M40.13-12.41c2.2,0,5.19,1.48,7.77,4.06,3.67,3.67,5.12,8.17,3.23,10.06-.56,.56-1.35,.83-2.29,.83-2.2,0-5.19-1.48-7.77-4.06-3.67-3.67-5.12-8.17-3.23-10.06,.56-.56,1.35-.83,2.29-.83m0-.82h0c-1.18,0-2.17,.37-2.87,1.07-1.14,1.14-1.38,2.98-.67,5.19,.65,2.02,2.03,4.16,3.9,6.03,2.65,2.65,5.85,4.3,8.35,4.3,1.18,0,2.17-.37,2.87-1.07,1.14-1.14,1.38-2.98,.67-5.19-.65-2.02-2.03-4.16-3.9-6.03-2.65-2.65-5.85-4.3-8.35-4.3h0Z"/></g><g><path class="cls-3" d="M48.83,3.78c-2.55,0-5.76-1.57-8.62-4.43-4.28-4.28-5.67-9.36-3.23-11.8,1.25-1.25,3.24-1.53,5.6-.77,2.08,.67,4.28,2.09,6.19,4,4.28,4.28,5.67,9.36,3.23,11.8-.81,.81-1.91,1.2-3.18,1.2Zm-8.7-14.96c-.61,0-1.1,.15-1.41,.47-1.2,1.2-.07,5.01,3.23,8.32,3.31,3.3,7.12,4.43,8.32,3.23,1.2-1.2,.07-5.01-3.23-8.32-2.45-2.45-5.17-3.7-6.91-3.7Z"/><g class="cls-1"><g><ellipse class="cls-4" cx="42.69" cy="-3.14" rx="4.83" ry="9.4" transform="translate(14.73 29.27) rotate(-45)"/><path class="cls-3" d="M47.03,5.57c-2.55,0-5.76-1.57-8.62-4.43-4.28-4.28-5.67-9.36-3.23-11.8,2.44-2.44,7.51-1.05,11.8,3.23,1.91,1.91,3.33,4.11,4,6.19,.76,2.36,.49,4.35-.77,5.6-.81,.81-1.91,1.2-3.18,1.2Zm-8.7-14.96c-.61,0-1.1,.15-1.41,.47-1.2,1.2-.07,5.01,3.23,8.32,3.31,3.3,7.12,4.43,8.32,3.23,1.2-1.2,.07-5.01-3.23-8.32-2.45-2.45-5.17-3.7-6.91-3.7Z"/></g></g></g></g></g></g></g><g><g><path class="cls-2" d="M3.17,34.77c-.11-.12-.25-.23-.41-.32-.16-.09-.35-.18-.55-.26l-.43-.17c-.11-.04-.21-.09-.31-.14-.1-.05-.18-.11-.25-.17-.07-.06-.13-.14-.17-.22-.04-.08-.07-.18-.07-.29,0-.26,.09-.46,.26-.59,.17-.13,.42-.2,.75-.2,.23,0,.44,.02,.62,.06,.18,.04,.34,.09,.48,.14h0c.09-.22,.15-.43,.17-.64h0s0,0,0,0c-.18-.06-.38-.12-.59-.15-.22-.04-.46-.06-.71-.06-.58,0-1.03,.13-1.35,.4-.32,.26-.48,.64-.48,1.1,0,.2,.03,.37,.08,.51,.05,.14,.12,.27,.21,.38,.09,.11,.2,.2,.32,.28,.12,.07,.26,.14,.41,.2l.44,.18,.46,.2c.13,.06,.24,.13,.33,.2,.09,.07,.15,.16,.2,.27,.04,.1,.06,.23,.06,.37,0,.29-.1,.53-.31,.7-.21,.17-.53,.26-.94,.26-.27,0-.49-.02-.68-.07-.19-.05-.37-.1-.53-.16h0s-.12,.35-.12,.35c-.04,.12-.06,.24-.07,.35H0s.31,.1,.31,.1t.33,.08l.36,.05h.44c.66,.01,1.17-.14,1.54-.44,.36-.31,.55-.73,.55-1.26,0-.22-.03-.41-.09-.58-.06-.17-.15-.31-.26-.43Z"/><path class="cls-2" d="M7.72,36.71h-2.33v-1.89h1.81s.03-.17,.03-.17v-.18s0-.17,0-.17c0,0-.02-.14-.02-.17h-1.81v-1.58h2.27s.02-.17,.02-.17v-.18c0-.12,0-.23-.02-.34,0,0,0,0,0,0h-3.06v5.56h3.12s.02-.17,.02-.17v-.18c0-.13,0-.24-.02-.34h0Z"/><path class="cls-2" d="M12.73,32.57c-.19-.25-.44-.45-.73-.6-.29-.14-.64-.22-1.04-.22s-.75,.07-1.04,.22c-.29,.14-.54,.35-.73,.6-.19,.25-.34,.56-.43,.91-.09,.35-.14,.74-.14,1.15s.05,.8,.14,1.15c.1,.35,.24,.66,.43,.91s.44,.45,.73,.6c.29,.14,.65,.21,1.04,.21s.75-.07,1.04-.21c.29-.14,.54-.34,.73-.6,.19-.25,.34-.56,.43-.91,.09-.35,.14-.74,.14-1.15s-.05-.8-.14-1.15c-.09-.35-.24-.66-.43-.91Zm-.37,2.97c-.06,.27-.16,.5-.28,.69-.12,.19-.28,.34-.47,.44-.19,.1-.41,.15-.67,.15s-.48-.05-.67-.15c-.19-.1-.34-.24-.47-.44-.12-.19-.22-.42-.28-.69-.06-.26-.09-.57-.09-.91s.03-.64,.09-.9c.06-.27,.15-.5,.28-.69,.12-.19,.28-.33,.47-.43,.19-.1,.41-.15,.67-.15s.48,.05,.67,.15c.19,.1,.34,.25,.47,.43,.12,.19,.22,.42,.28,.69,.06,.27,.09,.57,.09,.9s-.03,.64-.09,.91Z"/><path class="cls-2" d="M18.01,31.82c-.13,0-.27,0-.39,.02h0v3.15c0,.32-.02,.59-.06,.82s-.11,.41-.2,.55c-.09,.14-.21,.24-.36,.31-.15,.07-.33,.1-.56,.1s-.41-.03-.56-.1c-.15-.07-.27-.17-.37-.31-.09-.14-.16-.32-.2-.55-.04-.23-.06-.5-.06-.82v-3.15h0c-.12-.02-.25-.02-.39-.02s-.28,0-.4,.02h0v3.29c0,.37,.03,.7,.1,1,.07,.29,.18,.54,.34,.74,.16,.2,.36,.35,.61,.46,.25,.11,.56,.16,.92,.16s.67-.05,.92-.16c.25-.11,.46-.26,.61-.46,.16-.2,.27-.45,.34-.74,.07-.29,.1-.63,.1-1v-3.29h0c-.12-.02-.26-.02-.4-.02Z"/><path class="cls-2" d="M22.75,36.71h-2.18v-4.86s-.19-.02-.19-.02h-.2s-.2,0-.2,0c0,0-.15,.02-.19,.02v5.56h2.96s0,0,0,0c.02-.11,.02-.23,.02-.35,0,0,0-.17,0-.17,0,0-.02-.15-.02-.18Z"/><path class="cls-2" d="M27.47,31.86h0s-3.93-.01-3.93-.01h0c-.03,.17-.05,.33-.05,.49,0,.17,.01,.33,.05,.49h0s1.35,.01,1.38,.01v4.58l.32,.03s.28,0,.28,0h.27s.29-.04,.29-.04h0v-4.58h1.38c.03-.17,.05-.33,.05-.5,0-.16-.02-.32-.05-.47Z"/><path class="cls-2" d="M31.73,36.43h0s-2.04-.01-2.08-.01v-1.43h1.61c.03-.17,.05-.34,.05-.5s-.02-.32-.05-.48h0s-1.57-.01-1.6-.01v-1.17h2.02c.03-.17,.05-.33,.05-.5,0-.16-.02-.32-.05-.47h0s-3.18-.01-3.18-.01v5.56h3.24c.03-.17,.04-.33,.04-.5,0-.16-.01-.32-.04-.47Z"/><path class="cls-2" d="M36.58,37.24c-.02-.15-.05-.31-.1-.46-.04-.15-.1-.3-.17-.44h0s-.01,0-.01,0c-.18,.06-.34,.11-.48,.13-.14,.02-.31,.04-.5,.04-1.05,0-1.58-.63-1.58-1.86,0-.62,.13-1.1,.39-1.42,.26-.32,.64-.48,1.13-.48,.19,0,.35,.01,.49,.04,.14,.03,.3,.07,.48,.13h.02s.18-.45,.18-.45c.05-.15,.08-.3,.09-.46h0s0-.02,0-.02c-.24-.1-.47-.16-.68-.19-.21-.03-.44-.05-.69-.05-.42,0-.8,.07-1.12,.22-.33,.14-.61,.35-.83,.6-.23,.26-.4,.56-.52,.92-.12,.35-.18,.74-.18,1.15s.06,.79,.17,1.14c.11,.35,.29,.66,.51,.91,.23,.26,.51,.46,.84,.6,.33,.14,.72,.21,1.16,.21,.24,0,.48-.02,.69-.05,.22-.03,.46-.1,.73-.19h.01s0-.02,0-.02Z"/><path class="cls-2" d="M41.69,31.84c-.2-.03-.39-.05-.58-.05s-.38,.02-.57,.05h-.01v2.17h-1.83v-2.17h-.01c-.2-.03-.39-.05-.57-.05s-.38,.02-.57,.05h-.01v5.56h.01c.19,.03,.38,.05,.57,.05,.18,0,.37-.02,.57-.05h.01v-2.39h1.83v2.39h.01c.19,.03,.38,.05,.58,.05,.18,0,.37-.02,.57-.05h.01v-5.56h-.01Z"/></g><path class="cls-2" d="M41.54,13.41h-13.23V.17c0-.09-.08-.17-.17-.17H13.72c-.09,0-.17,.08-.17,.17V13.4H.31c-.09,0-.17,.08-.17,.17v9.96c0,.1,.08,.17,.17,.17H4.61v4.3c0,.09,.08,.17,.17,.17H14.73c.1,0,.17-.08,.17-.17V14.76h2.95c.09,0,.22-.06,.27-.14,0,0,2.76-3.78,2.78-3.81,0,.01,2.75,3.78,2.75,3.78,.06,.08,.18,.16,.27,.16h3.02v13.24c0,.09,.08,.17,.18,.17h14.41c.09,0,.17-.08,.17-.17v-5.48c0-.09-.08-.17-.17-.17h-4.29v-3.12s4.29,0,4.29,0c.09,0,.17-.08,.17-.17v-5.49c0-.09-.08-.16-.17-.16ZM13.55,26.82H5.96v-4.3c0-.09-.08-.17-.17-.17H1.49v-7.59H13.55v12.06Zm13.41-13.41s-2.53,0-2.53,0c0,0-3.42-4.75-3.42-4.75-.06-.08-.15-.08-.2,0l-3.47,4.75s-2.32,0-2.43,0V1.35h12.06V13.41Zm13.4,4.47h-4.3c-.1,0-.17,.08-.17,.17v5.48c0,.1,.08,.17,.17,.17,0,0,4.28,0,4.29,0v3.11h-12.05V14.76h12.05v3.12Z"/></g></svg>