<?xml version="1.0" encoding="UTF-8"?><svg id="_레이어_1" xmlns="http://www.w3.org/2000/svg" viewBox="0 0 41.65 41.65"><defs><style>.cls-1{fill:#13519c;}.cls-2{fill:#9cc9e6;}.cls-3{fill:#fff4b5;}</style></defs><g><path class="cls-3" d="M39.02,20.83c4.96,12.79-5.41,23.16-18.2,18.2C8.04,43.99-2.33,33.62,2.63,20.83-2.33,8.04,8.04-2.33,20.83,2.63c12.79-4.96,23.16,5.41,18.2,18.2Z"/><path class="cls-1" d="M14.37,41.65c-3.95,0-7.55-1.4-10.26-4.11C-.03,33.4-1.11,27.18,1.18,20.83-1.11,14.47-.03,8.26,4.11,4.11,8.26-.03,14.47-1.11,20.83,1.18,27.18-1.11,33.4-.03,37.54,4.11s5.22,10.36,2.93,16.72c2.29,6.35,1.21,12.57-2.93,16.72-4.14,4.14-10.36,5.22-16.71,2.93-2.19,.79-4.37,1.18-6.46,1.18Zm.02-38.93c-3.24,0-6.18,1.13-8.36,3.31-3.47,3.47-4.27,8.82-2.13,14.31,.12,.32,.12,.67,0,.98-2.13,5.49-1.33,10.84,2.13,14.31,3.47,3.47,8.82,4.27,14.31,2.13,.32-.12,.67-.12,.98,0,5.49,2.13,10.84,1.33,14.31-2.13,3.47-3.47,4.27-8.82,2.14-14.31-.12-.32-.12-.67,0-.98,2.13-5.49,1.33-10.84-2.14-14.31-3.47-3.47-8.81-4.27-14.31-2.13-.32,.12-.67,.12-.98,0-2.03-.79-4.04-1.18-5.94-1.18Z"/></g><g><circle class="cls-2" cx="20.83" cy="20.83" r="5.95"/><path class="cls-1" d="M20.83,28.13c-4.03,0-7.31-3.28-7.31-7.3s3.28-7.3,7.31-7.3,7.3,3.28,7.3,7.3-3.28,7.3-7.3,7.3Zm0-11.9c-2.53,0-4.59,2.06-4.59,4.59s2.06,4.59,4.59,4.59,4.59-2.06,4.59-4.59-2.06-4.59-4.59-4.59Z"/></g></svg>