<?xml version="1.0" encoding="UTF-8"?><svg id="_레이어_1" xmlns="http://www.w3.org/2000/svg" xmlns:xlink="http://www.w3.org/1999/xlink" viewBox="0 0 1565.27 1565.27"><defs><style>.cls-1,.cls-2{fill:#fce7e7;}.cls-3{clip-path:url(#clippath-11);}.cls-4{clip-path:url(#clippath-16);}.cls-5{fill:#cba5cc;}.cls-5,.cls-6,.cls-7,.cls-2,.cls-8,.cls-9,.cls-10,.cls-11,.cls-12,.cls-13,.cls-14,.cls-15,.cls-16,.cls-17,.cls-18{stroke:#13519c;}.cls-5,.cls-6,.cls-7,.cls-9,.cls-10,.cls-11,.cls-15,.cls-16,.cls-17,.cls-18{stroke-miterlimit:10;}.cls-5,.cls-2,.cls-8,.cls-10,.cls-11,.cls-12,.cls-15,.cls-16,.cls-17,.cls-18{stroke-width:5px;}.cls-6{fill:#e1c9e1;}.cls-6,.cls-7,.cls-9,.cls-13,.cls-14{stroke-width:3px;}.cls-7,.cls-12{fill:none;}.cls-19{fill:#43499c;}.cls-20{clip-path:url(#clippath-2);}.cls-21{clip-path:url(#clippath-13);}.cls-2,.cls-8,.cls-12,.cls-13,.cls-14{stroke-linecap:round;stroke-linejoin:round;}.cls-22{clip-path:url(#clippath-15);}.cls-8{fill:#9ac5e9;}.cls-23{clip-path:url(#clippath-6);}.cls-9{fill:#f18d3c;}.cls-10{fill:#2a99d7;}.cls-24{clip-path:url(#clippath-7);}.cls-25{clip-path:url(#clippath-1);}.cls-26{clip-path:url(#clippath-4);}.cls-11{fill:#9cc9e6;}.cls-27{fill:#ef8b9e;}.cls-28{clip-path:url(#clippath-12);}.cls-13{fill:#bbc8e7;}.cls-14{fill:#f29966;}.cls-29{fill:#13519c;}.cls-30{fill:#c14393;}.cls-31{clip-path:url(#clippath-9);}.cls-15{fill:#058b8a;}.cls-32{clip-path:url(#clippath);}.cls-16{fill:#ed6d00;}.cls-17,.cls-33{fill:#fff4b5;}.cls-34{clip-path:url(#clippath-19);}.cls-35{clip-path:url(#clippath-3);}.cls-36{clip-path:url(#clippath-8);}.cls-37{clip-path:url(#clippath-18);}.cls-38{clip-path:url(#clippath-14);}.cls-39{clip-path:url(#clippath-17);}.cls-40{clip-path:url(#clippath-5);}.cls-41{fill:#ead66b;}.cls-18{fill:#e51d1a;}.cls-42{clip-path:url(#clippath-10);}.cls-43{fill:#6ca4ca;}.cls-44{fill:#b1d9e1;}</style><clipPath id="clippath"><ellipse class="cls-7" cx="1298.59" cy="1200.53" rx="23.62" ry="12.13" transform="translate(-468.55 1269.87) rotate(-45)"/></clipPath><clipPath id="clippath-1"><ellipse class="cls-7" cx="1202.43" cy="1296.69" rx="23.62" ry="12.13" transform="translate(-564.71 1230.04) rotate(-45)"/></clipPath><clipPath id="clippath-2"><ellipse class="cls-7" cx="266.68" cy="364.74" rx="23.62" ry="12.13" transform="translate(-179.8 295.4) rotate(-45)"/></clipPath><clipPath id="clippath-3"><ellipse class="cls-7" cx="362.84" cy="268.58" rx="23.62" ry="12.13" transform="translate(-83.64 335.23) rotate(-45)"/></clipPath><clipPath id="clippath-4"><ellipse class="cls-7" cx="1200.53" cy="266.68" rx="12.13" ry="23.62" transform="translate(163.05 927.01) rotate(-45)"/></clipPath><clipPath id="clippath-5"><ellipse class="cls-7" cx="1296.69" cy="362.84" rx="12.13" ry="23.62" transform="translate(123.22 1023.17) rotate(-45)"/></clipPath><clipPath id="clippath-6"><ellipse class="cls-7" cx="364.74" cy="1298.59" rx="12.13" ry="23.62" transform="translate(-811.41 638.26) rotate(-45)"/></clipPath><clipPath id="clippath-7"><ellipse class="cls-7" cx="268.58" cy="1202.43" rx="12.13" ry="23.62" transform="translate(-771.58 542.1) rotate(-45)"/></clipPath><clipPath id="clippath-8"><ellipse class="cls-7" cx="723.85" cy="1222.61" rx="20.35" ry="10.45"/></clipPath><clipPath id="clippath-9"><ellipse class="cls-7" cx="841.42" cy="1222.61" rx="20.35" ry="10.45"/></clipPath><clipPath id="clippath-10"><ellipse class="cls-7" cx="723.85" cy="342.66" rx="20.35" ry="10.45"/></clipPath><clipPath id="clippath-11"><ellipse class="cls-7" cx="841.42" cy="342.66" rx="20.35" ry="10.45"/></clipPath><clipPath id="clippath-12"><ellipse class="cls-7" cx="723.85" cy="1222.61" rx="20.35" ry="10.45"/></clipPath><clipPath id="clippath-13"><ellipse class="cls-7" cx="841.42" cy="1222.61" rx="20.35" ry="10.45"/></clipPath><clipPath id="clippath-14"><ellipse class="cls-7" cx="342.66" cy="723.85" rx="10.45" ry="20.35"/></clipPath><clipPath id="clippath-15"><ellipse class="cls-7" cx="342.66" cy="841.42" rx="10.45" ry="20.35"/></clipPath><clipPath id="clippath-16"><ellipse class="cls-7" cx="1222.61" cy="723.85" rx="10.45" ry="20.35"/></clipPath><clipPath id="clippath-17"><ellipse class="cls-7" cx="1222.61" cy="841.42" rx="10.45" ry="20.35"/></clipPath><clipPath id="clippath-18"><ellipse class="cls-7" cx="342.66" cy="723.66" rx="10.45" ry="20.35"/></clipPath><clipPath id="clippath-19"><ellipse class="cls-7" cx="342.66" cy="841.22" rx="10.45" ry="20.35"/></clipPath></defs><g><g><rect class="cls-15" x="772.99" y="504.54" width="19.69" height="552.77" transform="translate(1888.57 779.59) rotate(135)"/><g><g><g><rect class="cls-15" x="1154.31" y="972.38" width="16.13" height="183.87" transform="translate(2736.88 994.97) rotate(135)"/><g><path class="cls-15" d="M1198.83,1100.58h0c6.02-6.02,15.79-6.02,21.81,0l37.3,30.11c6.02,6.02,2.43,19.38-3.59,25.41h0c-6.02,6.02-19.38,9.62-25.41,3.59l-30.11-37.3c-6.02-6.02-6.02-15.79,0-21.81Z"/><g><circle class="cls-5" cx="1268.8" cy="1170.74" r="59.36"/><g><path class="cls-30" d="M1287.64,1219.8c-2.54,0-4.65-.77-6.1-2.22-4.92-4.92-1.28-16.58,8.12-25.98,6.38-6.38,14-10.35,19.88-10.35,2.54,0,4.65,.77,6.1,2.22,4.92,4.92,1.28,16.58-8.12,25.98-6.38,6.38-14,10.35-19.88,10.35Z"/><path class="cls-29" d="M1309.54,1181.75c2.35,0,4.34,.67,5.75,2.08,4.74,4.74,1.1,16.05-8.12,25.27-6.48,6.48-13.99,10.2-19.53,10.2-2.35,0-4.34-.67-5.75-2.08-4.74-4.74-1.1-16.05,8.12-25.27,6.48-6.48,13.99-10.2,19.53-10.2m0-1c-6.01,0-13.76,4.02-20.23,10.49-4.57,4.57-7.96,9.8-9.54,14.72-1.65,5.15-1.15,9.4,1.42,11.97,1.55,1.55,3.78,2.37,6.45,2.37,6.01,0,13.76-4.02,20.23-10.49,4.57-4.57,7.96-9.8,9.54-14.72,1.65-5.15,1.15-9.4-1.42-11.97-1.55-1.55-3.78-2.37-6.45-2.37h0Z"/></g><g><g class="cls-32"><ellipse class="cls-6" cx="1294.07" cy="1196.01" rx="23.62" ry="12.13" transform="translate(-466.68 1265.35) rotate(-45)"/></g><ellipse class="cls-7" cx="1298.59" cy="1200.53" rx="23.62" ry="12.13" transform="translate(-468.55 1269.87) rotate(-45)"/></g></g></g></g><g><rect class="cls-15" x="1058.15" y="1068.54" width="16.13" height="183.87" transform="translate(2640.72 1227.12) rotate(135)"/><g><path class="cls-15" d="M1102.67,1196.73h0c6.02-6.02,15.79-6.02,21.81,0l37.3,30.11c6.02,6.02,2.43,19.38-3.59,25.41h0c-6.02,6.02-19.38,9.62-25.41,3.59l-30.11-37.3c-6.02-6.02-6.02-15.79,0-21.81Z"/><g><circle class="cls-5" cx="1172.64" cy="1266.9" r="59.36"/><g><path class="cls-30" d="M1191.48,1315.96c-2.54,0-4.65-.77-6.1-2.22-4.92-4.92-1.28-16.58,8.12-25.98,6.38-6.38,14-10.35,19.88-10.35,2.54,0,4.65,.77,6.1,2.22,4.92,4.92,1.28,16.58-8.12,25.98-6.38,6.38-14,10.35-19.88,10.35Z"/><path class="cls-29" d="M1213.38,1277.91c2.35,0,4.34,.67,5.75,2.08,4.74,4.74,1.1,16.05-8.12,25.27-6.48,6.48-13.99,10.2-19.53,10.2-2.35,0-4.34-.67-5.75-2.08-4.74-4.74-1.1-16.05,8.12-25.27,6.48-6.48,13.99-10.2,19.53-10.2m0-1c-6.01,0-13.76,4.02-20.23,10.49-9.76,9.76-13.33,21.48-8.12,26.69,1.55,1.55,3.78,2.37,6.45,2.37,6.01,0,13.76-4.02,20.23-10.49,4.57-4.57,7.96-9.8,9.54-14.72,1.65-5.15,1.15-9.4-1.42-11.97-1.55-1.55-3.78-2.37-6.45-2.37h0Z"/></g><g><g class="cls-25"><ellipse class="cls-6" cx="1197.91" cy="1292.17" rx="23.62" ry="12.13" transform="translate(-562.84 1225.52) rotate(-45)"/></g><ellipse class="cls-7" cx="1202.43" cy="1296.69" rx="23.62" ry="12.13" transform="translate(-564.71 1230.04) rotate(-45)"/></g></g></g></g></g><g><path class="cls-15" d="M949.35,947.43h0c9.78-9.78,25.64-9.78,35.42,0l60.56,48.89c9.78,9.78,3.95,31.48-5.83,41.26h0c-9.78,9.78-31.48,15.62-41.26,5.83l-48.89-60.56c-9.78-9.78-9.78-25.64,0-35.42Z"/><g><path class="cls-41" d="M1083.17,1081.27c40.43,40.43,106.19-133.38,30.24-79.93,75.95-53.45-57.21-95.11-61.24-19.16,4.02-75.95-144.04,72.11-68.09,68.09-75.95,4.02-34.3,137.19,19.16,61.24-53.45,75.95,120.35,10.19,79.93-30.24Z"/><path class="cls-12" d="M1083.17,1081.27c40.43,40.43,106.19-133.38,30.24-79.93,75.95-53.45-57.21-95.11-61.24-19.16,4.02-75.95-144.04,72.11-68.09,68.09-75.95,4.02-34.3,137.19,19.16,61.24-53.45,75.95,120.35,10.19,79.93-30.24Z"/></g><g><path class="cls-41" d="M1094.48,1092.58c40.43,40.43,106.19-133.38,30.24-79.93,75.95-53.45-57.21-95.11-61.24-19.16,4.02-75.95-144.04,72.11-68.09,68.09-75.95,4.02-34.3,137.19,19.16,61.24-53.45,75.95,120.35,10.19,79.93-30.24Zm-40.27-40.27c13.46-30.75,38.55-41.51,25.77-11.04,30.46-12.78,19.71,12.31-11.04,25.77-13.46,30.75-38.55,41.51-25.77,11.04-30.46,12.78-19.71-12.31,11.04-25.77Z"/><path class="cls-12" d="M1094.48,1092.58c40.43,40.43,106.19-133.38,30.24-79.93,75.95-53.45-57.21-95.11-61.24-19.16,4.02-75.95-144.04,72.11-68.09,68.09-75.95,4.02-34.3,137.19,19.16,61.24-53.45,75.95,120.35,10.19,79.93-30.24Zm-40.27-40.27c13.46-30.75,38.55-41.51,25.77-11.04,30.46-12.78,19.71,12.31-11.04,25.77-13.46,30.75-38.55,41.51-25.77,11.04-30.46,12.78-19.71-12.31,11.04-25.77Z"/></g><g><path class="cls-33" d="M1094.48,1092.58c40.43,40.43,106.19-133.38,30.24-79.93,75.95-53.45-57.21-95.11-61.24-19.16,4.02-75.95-144.04,72.11-68.09,68.09-75.95,4.02-34.3,137.19,19.16,61.24-53.45,75.95,120.35,10.19,79.93-30.24Zm-40.27-40.27c13.46-30.75,38.55-41.51,25.77-11.04,30.46-12.78,19.71,12.31-11.04,25.77-13.46,30.75-38.55,41.51-25.77,11.04-30.46,12.78-19.71-12.31,11.04-25.77Z"/><path class="cls-12" d="M1094.48,1092.58c40.43,40.43,106.19-133.38,30.24-79.93,75.95-53.45-57.21-95.11-61.24-19.16,4.02-75.95-144.04,72.11-68.09,68.09-75.95,4.02-34.3,137.19,19.16,61.24-53.45,75.95,120.35,10.19,79.93-30.24Zm-40.27-40.27c13.46-30.75,38.55-41.51,25.77-11.04,30.46-12.78,19.71,12.31-11.04,25.77-13.46,30.75-38.55,41.51-25.77,11.04-30.46,12.78-19.71-12.31,11.04-25.77Z"/></g></g></g><g><g><g><rect class="cls-15" x="394.83" y="409.02" width="16.13" height="183.87" transform="translate(-236.22 431.62) rotate(-45)"/><g><path class="cls-15" d="M366.44,464.69h0c-6.02,6.02-15.79,6.02-21.81,0l-37.3-30.11c-6.02-6.02-2.43-19.38,3.59-25.41h0c6.02-6.02,19.38-9.62,25.41-3.59l30.11,37.3c6.02,6.02,6.02,15.79,0,21.81Z"/><g><circle class="cls-5" cx="296.47" cy="394.53" r="59.36"/><g><path class="cls-30" d="M255.73,384.02c-2.54,0-4.65-.77-6.1-2.22-2.43-2.43-2.89-6.5-1.29-11.46,1.56-4.85,4.9-10,9.42-14.52,6.38-6.38,14-10.35,19.88-10.35,2.54,0,4.65,.77,6.1,2.22,4.92,4.92,1.28,16.58-8.12,25.98-6.38,6.38-14,10.35-19.88,10.35Z"/><path class="cls-29" d="M277.63,345.97c2.35,0,4.34,.67,5.75,2.08,4.74,4.74,1.1,16.05-8.12,25.27-6.48,6.48-13.99,10.2-19.53,10.2-2.35,0-4.34-.67-5.75-2.08-4.74-4.74-1.1-16.05,8.12-25.27,6.48-6.48,13.99-10.2,19.53-10.2m0-1c-6.01,0-13.76,4.02-20.23,10.49-9.76,9.76-13.33,21.48-8.12,26.69,1.55,1.55,3.78,2.37,6.45,2.37,6.01,0,13.76-4.02,20.23-10.49,9.76-9.76,13.33-21.48,8.12-26.69-1.55-1.55-3.78-2.37-6.45-2.37h0Z"/></g><g><g class="cls-20"><ellipse class="cls-6" cx="271.2" cy="369.25" rx="23.62" ry="12.13" transform="translate(-181.67 299.92) rotate(-45)"/></g><ellipse class="cls-7" cx="266.68" cy="364.74" rx="23.62" ry="12.13" transform="translate(-179.8 295.4) rotate(-45)"/></g></g></g></g><g><rect class="cls-15" x="490.99" y="312.86" width="16.13" height="183.87" transform="translate(-140.06 471.45) rotate(-45)"/><g><path class="cls-15" d="M462.6,368.53h0c-6.02,6.02-15.79,6.02-21.81,0l-37.3-30.11c-6.02-6.02-2.43-19.38,3.59-25.41h0c6.02-6.02,19.38-9.62,25.41-3.59l30.11,37.3c6.02,6.02,6.02,15.79,0,21.81Z"/><g><circle class="cls-5" cx="392.63" cy="298.37" r="59.36"/><g><path class="cls-30" d="M351.89,287.86c-2.54,0-4.65-.77-6.1-2.22-4.92-4.92-1.28-16.58,8.12-25.98,6.38-6.38,14-10.35,19.88-10.35,2.54,0,4.65,.77,6.1,2.22,2.43,2.43,2.89,6.5,1.3,11.46-1.56,4.85-4.9,10-9.42,14.52-6.38,6.38-14,10.35-19.88,10.35Z"/><path class="cls-29" d="M373.79,249.81c2.35,0,4.34,.67,5.75,2.08,4.74,4.74,1.1,16.05-8.12,25.27-6.48,6.48-13.99,10.2-19.53,10.2-2.35,0-4.34-.67-5.75-2.08-4.74-4.74-1.1-16.05,8.12-25.27,6.48-6.48,13.99-10.2,19.53-10.2m0-1c-6.01,0-13.76,4.02-20.23,10.49-9.76,9.76-13.33,21.48-8.12,26.69,1.55,1.55,3.78,2.37,6.45,2.37,6.01,0,13.76-4.02,20.23-10.49,9.76-9.76,13.33-21.48,8.12-26.69-1.55-1.55-3.78-2.37-6.45-2.37h0Z"/></g><g><g class="cls-35"><ellipse class="cls-6" cx="367.35" cy="273.1" rx="23.62" ry="12.13" transform="translate(-85.51 339.75) rotate(-45)"/></g><ellipse class="cls-7" cx="362.84" cy="268.58" rx="23.62" ry="12.13" transform="translate(-83.64 335.23) rotate(-45)"/></g></g></g></g></g><g><path class="cls-15" d="M615.92,617.84h0c-9.78,9.78-25.64,9.78-35.42,0l-60.56-48.89c-9.78-9.78-3.95-31.48,5.83-41.26h0c9.78-9.78,31.48-15.62,41.26-5.83l48.89,60.56c9.78,9.78,9.78,25.64,0,35.42Z"/><g><path class="cls-41" d="M482.1,484c-40.43-40.43-106.19,133.38-30.24,79.93-75.95,53.45,57.21,95.11,61.24,19.16-4.02,75.95,144.04-72.11,68.09-68.09,75.95-4.02,34.3-137.19-19.16-61.24,53.45-75.95-120.35-10.19-79.93,30.24Z"/><path class="cls-12" d="M482.1,484c-40.43-40.43-106.19,133.38-30.24,79.93-75.95,53.45,57.21,95.11,61.24,19.16-4.02,75.95,144.04-72.11,68.09-68.09,75.95-4.02,34.3-137.19-19.16-61.24,53.45-75.95-120.35-10.19-79.93,30.24Z"/></g><g><path class="cls-41" d="M470.79,472.69c-40.43-40.43-106.19,133.38-30.24,79.93-75.95,53.45,57.21,95.11,61.24,19.16-4.02,75.95,144.04-72.11,68.09-68.09,75.95-4.02,34.3-137.19-19.16-61.24,53.45-75.95-120.35-10.19-79.93,30.24Zm40.27,40.27c-13.46,30.75-38.55,41.51-25.77,11.04-30.46,12.78-19.71-12.31,11.04-25.77,13.46-30.75,38.55-41.51,25.77-11.04,30.46-12.78,19.71,12.31-11.04,25.77Z"/><path class="cls-12" d="M470.79,472.69c-40.43-40.43-106.19,133.38-30.24,79.93-75.95,53.45,57.21,95.11,61.24,19.16-4.02,75.95,144.04-72.11,68.09-68.09,75.95-4.02,34.3-137.19-19.16-61.24,53.45-75.95-120.35-10.19-79.93,30.24Zm40.27,40.27c-13.46,30.75-38.55,41.51-25.77,11.04-30.46,12.78-19.71-12.31,11.04-25.77,13.46-30.75,38.55-41.51,25.77-11.04,30.46-12.78,19.71,12.31-11.04,25.77Z"/></g><g><path class="cls-33" d="M470.79,472.69c-40.43-40.43-106.19,133.38-30.24,79.93-75.95,53.45,57.21,95.11,61.24,19.16-4.02,75.95,144.04-72.11,68.09-68.09,75.95-4.02,34.3-137.19-19.16-61.24,53.45-75.95-120.35-10.19-79.93,30.24Zm40.27,40.27c-13.46,30.75-38.55,41.51-25.77,11.04-30.46,12.78-19.71-12.31,11.04-25.77,13.46-30.75,38.55-41.51,25.77-11.04,30.46-12.78,19.71,12.31-11.04,25.77Z"/><path class="cls-12" d="M470.79,472.69c-40.43-40.43-106.19,133.38-30.24,79.93-75.95,53.45,57.21,95.11,61.24,19.16-4.02,75.95,144.04-72.11,68.09-68.09,75.95-4.02,34.3-137.19-19.16-61.24,53.45-75.95-120.35-10.19-79.93,30.24Zm40.27,40.27c-13.46,30.75-38.55,41.51-25.77,11.04-30.46,12.78-19.71-12.31,11.04-25.77,13.46-30.75,38.55-41.51,25.77-11.04,30.46-12.78,19.71,12.31-11.04,25.77Z"/></g></g></g></g><g><rect class="cls-15" x="771.09" y="506.06" width="19.69" height="552.77" transform="translate(782 -323.03) rotate(45)"/><g><g><g><rect class="cls-15" x="1056.25" y="310.96" width="16.13" height="183.87" transform="translate(596.62 -634.58) rotate(45)"/><g><path class="cls-15" d="M1100.58,366.44h0c-6.02-6.02-6.02-15.79,0-21.81l30.11-37.3c6.02-6.02,19.38-2.43,25.41,3.59h0c6.02,6.02,9.62,19.38,3.59,25.41l-37.3,30.11c-6.02,6.02-15.79,6.02-21.81,0Z"/><g><circle class="cls-5" cx="1170.74" cy="296.47" r="59.36"/><g><path class="cls-30" d="M1211.48,285.96c-5.88,0-13.5-3.96-19.88-10.35-9.4-9.4-13.05-21.06-8.12-25.98,1.45-1.45,3.56-2.22,6.1-2.22,5.88,0,13.5,3.97,19.88,10.35,4.52,4.52,7.86,9.67,9.42,14.52,1.59,4.96,1.13,9.03-1.29,11.46-1.45,1.45-3.56,2.22-6.1,2.22Z"/><path class="cls-29" d="M1189.58,247.91c5.54,0,13.05,3.72,19.53,10.2,9.22,9.22,12.86,20.54,8.12,25.27-1.41,1.41-3.4,2.08-5.75,2.08-5.54,0-13.05-3.72-19.53-10.2-9.22-9.22-12.86-20.54-8.12-25.27,1.41-1.41,3.4-2.08,5.75-2.08m0-1h0c-2.67,0-4.9,.82-6.45,2.37-2.57,2.57-3.07,6.82-1.42,11.97,1.58,4.92,4.97,10.15,9.54,14.72,6.47,6.47,14.23,10.49,20.23,10.49,2.67,0,4.9-.82,6.45-2.37,5.21-5.2,1.64-16.93-8.12-26.69-6.47-6.47-14.23-10.49-20.23-10.49h0Z"/></g><g><g class="cls-26"><ellipse class="cls-6" cx="1196.01" cy="271.2" rx="12.13" ry="23.62" transform="translate(158.54 925.14) rotate(-45)"/></g><ellipse class="cls-7" cx="1200.53" cy="266.68" rx="12.13" ry="23.62" transform="translate(163.05 927.01) rotate(-45)"/></g></g></g></g><g><rect class="cls-15" x="1152.41" y="407.12" width="16.13" height="183.87" transform="translate(692.78 -674.41) rotate(45)"/><g><path class="cls-15" d="M1196.73,462.6h0c-6.02-6.02-6.02-15.79,0-21.81l30.11-37.3c6.02-6.02,19.38-2.43,25.41,3.59h0c6.02,6.02,9.62,19.38,3.59,25.41l-37.3,30.11c-6.02,6.02-15.79,6.02-21.81,0Z"/><g><circle class="cls-5" cx="1266.9" cy="392.63" r="59.36"/><g><path class="cls-30" d="M1307.64,382.12c-5.88,0-13.5-3.96-19.88-10.35-4.52-4.52-7.86-9.67-9.42-14.52-1.59-4.96-1.13-9.03,1.3-11.46,1.45-1.45,3.56-2.22,6.1-2.22,5.88,0,13.5,3.96,19.88,10.35,9.4,9.4,13.05,21.06,8.12,25.98-1.45,1.45-3.56,2.22-6.1,2.22Z"/><path class="cls-29" d="M1285.73,344.07c5.54,0,13.05,3.72,19.53,10.2,9.22,9.22,12.86,20.54,8.12,25.27-1.41,1.41-3.4,2.08-5.75,2.08-5.54,0-13.05-3.72-19.53-10.2-9.22-9.22-12.86-20.54-8.12-25.27,1.41-1.41,3.4-2.08,5.75-2.08m0-1h0c-2.67,0-4.9,.82-6.45,2.37-5.21,5.2-1.64,16.93,8.12,26.69,6.47,6.47,14.23,10.49,20.23,10.49,2.67,0,4.9-.82,6.45-2.37,2.57-2.57,3.07-6.82,1.42-11.97-1.58-4.92-4.97-10.15-9.54-14.72-6.47-6.47-14.23-10.49-20.23-10.49h0Z"/></g><g><g class="cls-40"><ellipse class="cls-6" cx="1292.17" cy="367.35" rx="12.13" ry="23.62" transform="translate(118.71 1021.3) rotate(-45)"/></g><ellipse class="cls-7" cx="1296.69" cy="362.84" rx="12.13" ry="23.62" transform="translate(123.22 1023.17) rotate(-45)"/></g></g></g></g></g><g><path class="cls-15" d="M947.43,615.92h0c-9.78-9.78-9.78-25.64,0-35.42l48.89-60.56c9.78-9.78,31.48-3.95,41.26,5.83h0c9.78,9.78,15.62,31.48,5.83,41.26l-60.56,48.89c-9.78,9.78-25.64,9.78-35.42,0Z"/><g><path class="cls-41" d="M1081.27,482.1c40.43-40.43-133.38-106.19-79.93-30.24-53.45-75.95-95.11,57.21-19.16,61.24-75.95-4.02,72.11,144.04,68.09,68.09,4.02,75.95,137.19,34.3,61.24-19.16,75.95,53.45,10.19-120.35-30.24-79.93Z"/><path class="cls-12" d="M1081.27,482.1c40.43-40.43-133.38-106.19-79.93-30.24-53.45-75.95-95.11,57.21-19.16,61.24-75.95-4.02,72.11,144.04,68.09,68.09,4.02,75.95,137.19,34.3,61.24-19.16,75.95,53.45,10.19-120.35-30.24-79.93Z"/></g><g><path class="cls-33" d="M1092.58,470.79c40.43-40.43-133.38-106.19-79.93-30.24-53.45-75.95-95.11,57.21-19.16,61.24-75.95-4.02,72.11,144.04,68.09,68.09,4.02,75.95,137.19,34.3,61.24-19.16,75.95,53.45,10.19-120.35-30.24-79.93Zm-40.27,40.27c-30.75-13.46-41.51-38.55-11.04-25.77-12.78-30.46,12.31-19.71,25.77,11.04,30.75,13.46,41.51,38.55,11.04,25.77,12.78,30.46-12.31,19.71-25.77-11.04Z"/><path class="cls-12" d="M1092.58,470.79c40.43-40.43-133.38-106.19-79.93-30.24-53.45-75.95-95.11,57.21-19.16,61.24-75.95-4.02,72.11,144.04,68.09,68.09,4.02,75.95,137.19,34.3,61.24-19.16,75.95,53.45,10.19-120.35-30.24-79.93Zm-40.27,40.27c-30.75-13.46-41.51-38.55-11.04-25.77-12.78-30.46,12.31-19.71,25.77,11.04,30.75,13.46,41.51,38.55,11.04,25.77,12.78,30.46-12.31,19.71-25.77-11.04Z"/></g></g></g><g><g><g><rect class="cls-15" x="492.89" y="1070.44" width="16.13" height="183.87" transform="translate(33.27 2338.52) rotate(-135)"/><g><path class="cls-15" d="M464.69,1198.83h0c6.02,6.02,6.02,15.79,0,21.81l-30.11,37.3c-6.02,6.02-19.38,2.43-25.41-3.59h0c-6.02-6.02-9.62-19.38-3.59-25.41l37.3-30.11c6.02-6.02,15.79-6.02,21.81,0Z"/><g><circle class="cls-5" cx="394.53" cy="1268.8" r="59.36"/><g><path class="cls-30" d="M375.69,1317.86c-5.88,0-13.5-3.96-19.88-10.35-9.4-9.4-13.05-21.06-8.12-25.98,1.45-1.45,3.56-2.22,6.1-2.22,5.88,0,13.5,3.96,19.88,10.35,9.4,9.4,13.05,21.06,8.12,25.98-1.45,1.45-3.56,2.22-6.1,2.22Z"/><path class="cls-29" d="M353.79,1279.81c5.54,0,13.05,3.72,19.53,10.2,9.22,9.22,12.86,20.54,8.12,25.27-1.41,1.41-3.4,2.08-5.75,2.08-5.54,0-13.05-3.72-19.53-10.2-9.22-9.22-12.86-20.54-8.12-25.27,1.41-1.41,3.4-2.08,5.75-2.08m0-1h0c-2.67,0-4.9,.82-6.45,2.37-2.57,2.57-3.07,6.82-1.42,11.97,1.58,4.92,4.97,10.15,9.54,14.72,6.47,6.47,14.23,10.49,20.23,10.49,2.67,0,4.9-.82,6.45-2.37,2.57-2.57,3.07-6.82,1.42-11.97-1.58-4.92-4.97-10.15-9.54-14.72-6.47-6.47-14.23-10.49-20.23-10.49h0Z"/></g><g><g class="cls-23"><ellipse class="cls-6" cx="369.25" cy="1294.07" rx="12.13" ry="23.62" transform="translate(-806.9 640.13) rotate(-45)"/></g><ellipse class="cls-7" cx="364.74" cy="1298.59" rx="12.13" ry="23.62" transform="translate(-811.41 638.26) rotate(-45)"/></g></g></g></g><g><rect class="cls-15" x="396.73" y="974.28" width="16.13" height="183.87" transform="translate(-62.89 2106.37) rotate(-135)"/><g><path class="cls-15" d="M368.53,1102.67h0c6.02,6.02,6.02,15.79,0,21.81l-30.11,37.3c-6.02,6.02-19.38,2.43-25.41-3.59h0c-6.02-6.02-9.62-19.38-3.59-25.41l37.3-30.11c6.02-6.02,15.79-6.02,21.81,0Z"/><g><circle class="cls-5" cx="298.37" cy="1172.64" r="59.36"/><g><path class="cls-30" d="M279.53,1221.7c-5.88,0-13.5-3.96-19.88-10.35-9.4-9.4-13.05-21.06-8.12-25.98,1.45-1.45,3.56-2.22,6.1-2.22,5.88,0,13.5,3.96,19.88,10.35,9.4,9.4,13.05,21.06,8.12,25.98-1.45,1.45-3.56,2.22-6.1,2.22Z"/><path class="cls-29" d="M257.63,1183.65c5.54,0,13.05,3.72,19.53,10.2,9.22,9.22,12.86,20.54,8.12,25.27-1.41,1.41-3.4,2.08-5.75,2.08-5.54,0-13.05-3.72-19.53-10.2-9.22-9.22-12.86-20.54-8.12-25.27,1.41-1.41,3.4-2.08,5.75-2.08m0-1h0c-2.67,0-4.9,.82-6.45,2.37-2.57,2.57-3.07,6.82-1.42,11.97,1.58,4.92,4.97,10.15,9.54,14.72,6.47,6.47,14.23,10.49,20.23,10.49,2.67,0,4.9-.82,6.45-2.37,5.21-5.2,1.64-16.93-8.12-26.69-6.47-6.47-14.23-10.49-20.23-10.49h0Z"/></g><g><g class="cls-24"><ellipse class="cls-6" cx="273.1" cy="1197.91" rx="12.13" ry="23.62" transform="translate(-767.07 543.97) rotate(-45)"/></g><ellipse class="cls-7" cx="268.58" cy="1202.43" rx="12.13" ry="23.62" transform="translate(-771.58 542.1) rotate(-45)"/></g></g></g></g></g><g><path class="cls-15" d="M617.84,949.35h0c9.78,9.78,9.78,25.64,0,35.42l-48.89,60.56c-9.78,9.78-31.48,3.95-41.26-5.83h0c-9.78-9.78-15.62-31.48-5.83-41.26l60.56-48.89c9.78-9.78,25.64-9.78,35.42,0Z"/><g><path class="cls-41" d="M484,1083.17c-40.43,40.43,133.38,106.19,79.93,30.24,53.45,75.95,95.11-57.21,19.16-61.24,75.95,4.02-72.11-144.04-68.09-68.09-4.02-75.95-137.19-34.3-61.24,19.16-75.95-53.45-10.19,120.35,30.24,79.93Z"/><path class="cls-12" d="M484,1083.17c-40.43,40.43,133.38,106.19,79.93,30.24,53.45,75.95,95.11-57.21,19.16-61.24,75.95,4.02-72.11-144.04-68.09-68.09-4.02-75.95-137.19-34.3-61.24,19.16-75.95-53.45-10.19,120.35,30.24,79.93Z"/></g><g><path class="cls-41" d="M472.69,1094.48c-40.43,40.43,133.38,106.19,79.93,30.24,53.45,75.95,95.11-57.21,19.16-61.24,75.95,4.02-72.11-144.04-68.09-68.09-4.02-75.95-137.19-34.3-61.24,19.16-75.95-53.45-10.19,120.35,30.24,79.93Zm40.27-40.27c30.75,13.46,41.51,38.55,11.04,25.77,12.78,30.46-12.31,19.71-25.77-11.04-30.75-13.46-41.51-38.55-11.04-25.77-12.78-30.46,12.31-19.71,25.77,11.04Z"/><path class="cls-12" d="M472.69,1094.48c-40.43,40.43,133.38,106.19,79.93,30.24,53.45,75.95,95.11-57.21,19.16-61.24,75.95,4.02-72.11-144.04-68.09-68.09-4.02-75.95-137.19-34.3-61.24,19.16-75.95-53.45-10.19,120.35,30.24,79.93Zm40.27-40.27c30.75,13.46,41.51,38.55,11.04,25.77,12.78,30.46-12.31,19.71-25.77-11.04-30.75-13.46-41.51-38.55-11.04-25.77-12.78-30.46,12.31-19.71,25.77,11.04Z"/></g><g><path class="cls-33" d="M472.69,1094.48c-40.43,40.43,133.38,106.19,79.93,30.24,53.45,75.95,95.11-57.21,19.16-61.24,75.95,4.02-72.11-144.04-68.09-68.09-4.02-75.95-137.19-34.3-61.24,19.16-75.95-53.45-10.19,120.35,30.24,79.93Zm40.27-40.27c30.75,13.46,41.51,38.55,11.04,25.77,12.78,30.46-12.31,19.71-25.77-11.04-30.75-13.46-41.51-38.55-11.04-25.77-12.78-30.46,12.31-19.71,25.77,11.04Z"/><path class="cls-12" d="M472.69,1094.48c-40.43,40.43,133.38,106.19,79.93,30.24,53.45,75.95,95.11-57.21,19.16-61.24,75.95,4.02-72.11-144.04-68.09-68.09-4.02-75.95-137.19-34.3-61.24,19.16-75.95-53.45-10.19,120.35,30.24,79.93Zm40.27-40.27c30.75,13.46,41.51,38.55,11.04,25.77,12.78,30.46-12.31,19.71-25.77-11.04-30.75-13.46-41.51-38.55-11.04-25.77-12.78-30.46,12.31-19.71,25.77,11.04Z"/></g></g></g></g></g><g><g><rect class="cls-15" x="772.96" y="244.27" width="19.36" height="1070.94"/><g><path class="cls-15" d="M782.63,301.59h0c-18.06,0-32.7-14.64-32.7-32.7l-10.77-101.06c0-18.06,25.42-32.7,43.48-32.7h0c18.06,0,43.48,14.64,43.48,32.7l-10.77,101.06c0,18.06-14.64,32.7-32.7,32.7Z"/><g><path class="cls-1" d="M782.63,59.47c0-77.07-158.72-23.64-68.02,22.9-90.7-46.54-129.89,73.51-16.8,51.45-113.09,22.06-3.26,118.33,47.07,41.26-50.33,77.07,125.83,77.07,75.5,0,50.33,77.07,160.17-19.2,47.07-41.26,113.09,22.06,73.9-97.99-16.8-51.45,90.7-46.54-68.02-99.97-68.02-22.9Z"/><path class="cls-12" d="M782.63,59.47c0-77.07-158.72-23.64-68.02,22.9-90.7-46.54-129.89,73.51-16.8,51.45-113.09,22.06-3.26,118.33,47.07,41.26-50.33,77.07,125.83,77.07,75.5,0,50.33,77.07,160.17-19.2,47.07-41.26,113.09,22.06,73.9-97.99-16.8-51.45,90.7-46.54-68.02-99.97-68.02-22.9Z"/></g><g><path class="cls-27" d="M782.63,41.42c0-77.07-158.72-23.64-68.02,22.9-90.7-46.54-129.89,73.51-16.8,51.45-113.09,22.06-3.26,118.33,47.07,41.26-50.33,77.07,125.83,77.07,75.5,0,50.33,77.07,160.17-19.2,47.07-41.26,113.09,22.06,73.9-97.99-16.8-51.45,90.7-46.54-68.02-99.97-68.02-22.9Z"/><path class="cls-12" d="M782.63,41.42c0-77.07-158.72-23.64-68.02,22.9-90.7-46.54-129.89,73.51-16.8,51.45-113.09,22.06-3.26,118.33,47.07,41.26-50.33,77.07,125.83,77.07,75.5,0,50.33,77.07,160.17-19.2,47.07-41.26,113.09,22.06,73.9-97.99-16.8-51.45,90.7-46.54-68.02-99.97-68.02-22.9Z"/></g><ellipse class="cls-18" cx="782.63" cy="97.24" rx="41.48" ry="19.93"/></g><g><path class="cls-15" d="M782.63,1263.68h0c-18.06,0-32.7,14.64-32.7,32.7l-10.77,101.06c0,18.06,25.42,32.7,43.48,32.7h0c18.06,0,43.48-14.64,43.48-32.7l-10.77-101.06c0-18.06-14.64-32.7-32.7-32.7Z"/><g><path class="cls-1" d="M782.63,1505.8c0,77.07-158.72,23.64-68.02-22.9-90.7,46.54-129.89-73.51-16.8-51.45-113.09-22.06-3.26-118.33,47.07-41.26-50.33-77.07,125.83-77.07,75.5,0,50.33-77.07,160.17,19.2,47.07,41.26,113.09-22.06,73.9,97.99-16.8,51.45,90.7,46.54-68.02,99.97-68.02,22.9Z"/><path class="cls-12" d="M782.63,1505.8c0,77.07-158.72,23.64-68.02-22.9-90.7,46.54-129.89-73.51-16.8-51.45-113.09-22.06-3.26-118.33,47.07-41.26-50.33-77.07,125.83-77.07,75.5,0,50.33-77.07,160.17,19.2,47.07,41.26,113.09-22.06,73.9,97.99-16.8,51.45,90.7,46.54-68.02,99.97-68.02,22.9Z"/></g><g><path class="cls-27" d="M782.63,1523.85c0,77.07-158.72,23.64-68.02-22.9-90.7,46.54-129.89-73.51-16.8-51.45-113.09-22.06-3.26-118.33,47.07-41.26-50.33-77.07,125.83-77.07,75.5,0,50.33-77.07,160.17,19.2,47.07,41.26,113.09-22.06,73.9,97.99-16.8,51.45,90.7,46.54-68.02,99.97-68.02,22.9Z"/><path class="cls-12" d="M782.63,1523.85c0,77.07-158.72,23.64-68.02-22.9-90.7,46.54-129.89-73.51-16.8-51.45-113.09-22.06-3.26-118.33,47.07-41.26-50.33-77.07,125.83-77.07,75.5,0,50.33-77.07,160.17,19.2,47.07,41.26,113.09-22.06,73.9,97.99-16.8,51.45,90.7,46.54-68.02,99.97-68.02,22.9Z"/></g><ellipse class="cls-18" cx="782.63" cy="1468.03" rx="41.48" ry="19.93"/></g></g><g><rect class="cls-15" x="775.85" y="247.17" width="19.36" height="1070.94" transform="translate(1568.16 -2.89) rotate(90)"/><g><path class="cls-15" d="M1263.68,782.63h0c0-18.06,14.64-32.7,32.7-32.7l101.06-10.77c18.06,0,32.7,25.42,32.7,43.48h0c0,18.06-14.64,43.48-32.7,43.48l-101.06-10.77c-18.06,0-32.7-14.64-32.7-32.7Z"/><g><path class="cls-1" d="M1505.8,782.63c77.07,0,23.64-158.72-22.9-68.02,46.54-90.7-73.51-129.89-51.45-16.8-22.06-113.09-118.33-3.26-41.26,47.07-77.07-50.33-77.07,125.83,0,75.5-77.07,50.33,19.2,160.17,41.26,47.07-22.06,113.09,97.99,73.9,51.45-16.8,46.54,90.7,99.97-68.02,22.9-68.02Z"/><path class="cls-12" d="M1505.8,782.63c77.07,0,23.64-158.72-22.9-68.02,46.54-90.7-73.51-129.89-51.45-16.8-22.06-113.09-118.33-3.26-41.26,47.07-77.07-50.33-77.07,125.83,0,75.5-77.07,50.33,19.2,160.17,41.26,47.07-22.06,113.09,97.99,73.9,51.45-16.8,46.54,90.7,99.97-68.02,22.9-68.02Z"/></g><g><path class="cls-27" d="M1523.85,782.63c77.07,0,23.64-158.72-22.9-68.02,46.54-90.7-73.51-129.89-51.45-16.8-22.06-113.09-118.33-3.26-41.26,47.07-77.07-50.33-77.07,125.83,0,75.5-77.07,50.33,19.2,160.17,41.26,47.07-22.06,113.09,97.99,73.9,51.45-16.8,46.54,90.7,99.97-68.02,22.9-68.02Z"/><path class="cls-12" d="M1523.85,782.63c77.07,0,23.64-158.72-22.9-68.02,46.54-90.7-73.51-129.89-51.45-16.8-22.06-113.09-118.33-3.26-41.26,47.07-77.07-50.33-77.07,125.83,0,75.5-77.07,50.33,19.2,160.17,41.26,47.07-22.06,113.09,97.99,73.9,51.45-16.8,46.54,90.7,99.97-68.02,22.9-68.02Z"/></g><ellipse class="cls-18" cx="1468.03" cy="782.63" rx="19.93" ry="41.48"/></g><g><path class="cls-15" d="M301.59,782.63h0c0-18.06-14.64-32.7-32.7-32.7l-101.06-10.77c-18.06,0-32.7,25.42-32.7,43.48h0c0,18.06,14.64,43.48,32.7,43.48l101.06-10.77c18.06,0,32.7-14.64,32.7-32.7Z"/><g><path class="cls-1" d="M59.47,782.63c-77.07,0-23.64-158.72,22.9-68.02-46.54-90.7,73.51-129.89,51.45-16.8,22.06-113.09,118.33-3.26,41.26,47.07,77.07-50.33,77.07,125.83,0,75.5,77.07,50.33-19.2,160.17-41.26,47.07,22.06,113.09-97.99,73.9-51.45-16.8-46.54,90.7-99.97-68.02-22.9-68.02Z"/><path class="cls-12" d="M59.47,782.63c-77.07,0-23.64-158.72,22.9-68.02-46.54-90.7,73.51-129.89,51.45-16.8,22.06-113.09,118.33-3.26,41.26,47.07,77.07-50.33,77.07,125.83,0,75.5,77.07,50.33-19.2,160.17-41.26,47.07,22.06,113.09-97.99,73.9-51.45-16.8-46.54,90.7-99.97-68.02-22.9-68.02Z"/></g><g><path class="cls-27" d="M41.42,782.63c-77.07,0-23.64-158.72,22.9-68.02-46.54-90.7,73.51-129.89,51.45-16.8,22.06-113.09,118.33-3.26,41.26,47.07,77.07-50.33,77.07,125.83,0,75.5,77.07,50.33-19.2,160.17-41.26,47.07,22.06,113.09-97.99,73.9-51.45-16.8-46.54,90.7-99.97-68.02-22.9-68.02Z"/><path class="cls-12" d="M41.42,782.63c-77.07,0-23.64-158.72,22.9-68.02-46.54-90.7,73.51-129.89,51.45-16.8,22.06-113.09,118.33-3.26,41.26,47.07,77.07-50.33,77.07,125.83,0,75.5,77.07,50.33-19.2,160.17-41.26,47.07,22.06,113.09-97.99,73.9-51.45-16.8-46.54,90.7-99.97-68.02-22.9-68.02Z"/></g><ellipse class="cls-18" cx="97.24" cy="782.63" rx="19.93" ry="41.48"/></g></g></g><g><g><rect class="cls-15" x="775.9" y="329.94" width="13.47" height="905.38" transform="translate(-239.93 1206.19) rotate(-67.5)"/><g><g><path class="cls-15" d="M391.05,620.43h0c5.27-12.73-.77-27.31-13.5-32.59l-68.06-37.08c-12.73-5.27-30.46,8.36-35.73,21.09h0c-5.27,12.73-2.37,34.91,10.35,40.18l74.34,21.9c12.73,5.27,27.31-.77,32.59-13.5Z"/><ellipse class="cls-2" cx="291.96" cy="579.39" rx="71.48" ry="36.87" transform="translate(-355.06 627.4) rotate(-67.5)"/><ellipse class="cls-2" cx="284.37" cy="576.25" rx="71.48" ry="36.87" transform="translate(-356.84 618.45) rotate(-67.5)"/><ellipse class="cls-16" cx="284.37" cy="576.25" rx="35.33" ry="12.32" transform="translate(-356.84 618.45) rotate(-67.5)"/></g><g><path class="cls-15" d="M1174.22,944.84h0c5.27-12.73,19.86-18.77,32.59-13.5l74.34,21.9c12.73,5.27,15.62,27.45,10.35,40.18h0c-5.27,12.73-23,26.36-35.73,21.09l-68.06-37.08c-12.73-5.27-18.77-19.86-13.5-32.59Z"/><ellipse class="cls-2" cx="1273.31" cy="985.88" rx="71.48" ry="36.87" transform="translate(-124.8 1784.98) rotate(-67.5)"/><ellipse class="cls-2" cx="1280.9" cy="989.02" rx="71.48" ry="36.87" transform="translate(-123.02 1793.94) rotate(-67.5)"/><ellipse class="cls-16" cx="1280.9" cy="989.02" rx="35.33" ry="12.32" transform="translate(-123.02 1793.94) rotate(-67.5)"/></g></g></g><g><rect class="cls-15" x="775.9" y="329.94" width="13.47" height="905.38" transform="translate(-239.93 359.08) rotate(-22.5)"/><g><g><path class="cls-15" d="M620.43,391.05h0c12.73-5.27,18.77-19.86,13.5-32.59l-21.9-74.34c-5.27-12.73-27.45-15.62-40.18-10.35h0c-12.73,5.27-26.36,23-21.09,35.73l37.08,68.06c5.27,12.73,19.86,18.77,32.59,13.5Z"/><ellipse class="cls-2" cx="579.39" cy="291.96" rx="71.48" ry="36.87" transform="translate(-67.63 243.95) rotate(-22.5)"/><ellipse class="cls-2" cx="576.25" cy="284.37" rx="71.48" ry="36.87" transform="translate(-64.96 242.17) rotate(-22.5)"/><ellipse class="cls-16" cx="576.25" cy="284.37" rx="35.33" ry="12.32" transform="translate(-64.96 242.17) rotate(-22.5)"/></g><g><path class="cls-15" d="M944.84,1174.22h0c12.73-5.27,27.31,.77,32.59,13.5l37.08,68.06c5.27,12.73-8.36,30.46-21.09,35.73h0c-12.73,5.27-34.91,2.37-40.18-10.35l-21.9-74.34c-5.27-12.73,.77-27.31,13.5-32.59Z"/><ellipse class="cls-2" cx="985.88" cy="1273.31" rx="71.48" ry="36.87" transform="translate(-412.23 474.2) rotate(-22.5)"/><ellipse class="cls-2" cx="989.02" cy="1280.9" rx="71.48" ry="36.87" transform="translate(-414.89 475.98) rotate(-22.5)"/><ellipse class="cls-16" cx="989.02" cy="1280.9" rx="35.33" ry="12.32" transform="translate(-414.89 475.98) rotate(-22.5)"/></g></g></g><g><rect class="cls-15" x="775.9" y="329.94" width="13.47" height="905.38" transform="translate(359.08 -239.93) rotate(22.5)"/><g><g><path class="cls-15" d="M944.84,391.05h0c12.73,5.27,27.31-.77,32.59-13.5l37.08-68.06c5.27-12.73-8.36-30.46-21.09-35.73h0c-12.73-5.27-34.91-2.37-40.18,10.35l-21.9,74.34c-5.27,12.73,.77,27.31,13.5,32.59Z"/><ellipse class="cls-2" cx="985.88" cy="291.96" rx="36.87" ry="71.48" transform="translate(338.86 1091.07) rotate(-67.5)"/><ellipse class="cls-2" cx="989.02" cy="284.37" rx="36.87" ry="71.48" transform="translate(347.82 1089.28) rotate(-67.5)"/><ellipse class="cls-16" cx="989.02" cy="284.37" rx="12.32" ry="35.33" transform="translate(347.82 1089.28) rotate(-67.5)"/></g><g><path class="cls-15" d="M620.43,1174.22h0c12.73,5.27,18.77,19.86,13.5,32.59l-21.9,74.34c-5.27,12.73-27.45,15.62-40.18,10.35h0c-12.73-5.27-26.36-23-21.09-35.73l37.08-68.06c5.27-12.73,19.86-18.77,32.59-13.5Z"/><ellipse class="cls-2" cx="579.39" cy="1273.31" rx="36.87" ry="71.48" transform="translate(-818.72 1321.32) rotate(-67.5)"/><ellipse class="cls-2" cx="576.25" cy="1280.9" rx="36.87" ry="71.48" transform="translate(-827.67 1323.1) rotate(-67.5)"/><ellipse class="cls-16" cx="576.25" cy="1280.9" rx="12.32" ry="35.33" transform="translate(-827.67 1323.1) rotate(-67.5)"/></g></g></g><g><rect class="cls-15" x="775.9" y="329.94" width="13.47" height="905.38" transform="translate(1206.19 -239.93) rotate(67.5)"/><g><g><path class="cls-15" d="M1174.22,620.43h0c5.27,12.73,19.86,18.77,32.59,13.5l74.34-21.9c12.73-5.27,15.62-27.45,10.35-40.18h0c-5.27-12.73-23-26.36-35.73-21.09l-68.06,37.08c-12.73,5.27-18.77,19.86-13.5,32.59Z"/><ellipse class="cls-2" cx="1273.31" cy="579.39" rx="36.87" ry="71.48" transform="translate(-124.8 531.38) rotate(-22.5)"/><ellipse class="cls-2" cx="1280.9" cy="576.25" rx="36.87" ry="71.48" transform="translate(-123.02 534.04) rotate(-22.5)"/><ellipse class="cls-16" cx="1280.9" cy="576.25" rx="12.32" ry="35.33" transform="translate(-123.02 534.04) rotate(-22.5)"/></g><g><path class="cls-15" d="M391.05,944.84h0c5.27,12.73-.77,27.31-13.5,32.59l-68.06,37.08c-12.73,5.27-30.46-8.36-35.73-21.09h0c-5.27-12.73-2.37-34.91,10.35-40.18l74.34-21.9c12.73-5.27,27.31,.77,32.59,13.5Z"/><ellipse class="cls-2" cx="291.96" cy="985.88" rx="36.87" ry="71.48" transform="translate(-355.05 186.77) rotate(-22.5)"/><ellipse class="cls-2" cx="284.37" cy="989.02" rx="36.87" ry="71.48" transform="translate(-356.84 184.11) rotate(-22.5)"/><ellipse class="cls-16" cx="284.37" cy="989.02" rx="12.32" ry="35.33" transform="translate(-356.84 184.11) rotate(-22.5)"/></g></g></g></g><g><g><g><rect class="cls-15" x="717.99" y="975.64" width="11.83" height="146.77"/><g><path class="cls-15" d="M723.9,1100.91h0c7.34,0,13.29,5.95,13.29,13.29l4.38,41.08c0,7.34-10.33,13.29-17.67,13.29h0c-7.34,0-17.67-5.95-17.67-13.29l4.38-41.08c0-7.34,5.95-13.29,13.29-13.29Z"/><g><circle class="cls-9" cx="723.9" cy="1186.3" r="51.16"/><g><ellipse class="cls-30" cx="723.9" cy="1222.61" rx="20.85" ry="10.95"/><path class="cls-29" d="M723.9,1212.16c11.24,0,20.35,4.68,20.35,10.45s-9.11,10.45-20.35,10.45-20.35-4.68-20.35-10.45,9.11-10.45,20.35-10.45m0-1c-11.97,0-21.35,5.03-21.35,11.45s9.38,11.45,21.35,11.45,21.35-5.03,21.35-11.45-9.38-11.45-21.35-11.45h0Z"/></g><g><g class="cls-36"><ellipse class="cls-14" cx="723.9" cy="1217.11" rx="20.35" ry="10.45"/></g><ellipse class="cls-7" cx="723.85" cy="1222.61" rx="20.35" ry="10.45"/></g></g></g></g><g><rect class="cls-15" x="835.45" y="975.64" width="11.83" height="146.77"/><g><path class="cls-15" d="M841.37,1100.91h0c-7.34,0-13.29,5.95-13.29,13.29l-4.38,41.08c0,7.34,10.33,13.29,17.67,13.29h0c7.34,0,17.67-5.95,17.67-13.29l-4.38-41.08c0-7.34-5.95-13.29-13.29-13.29Z"/><g><circle class="cls-9" cx="841.37" cy="1186.3" r="51.16"/><g><path class="cls-30" d="M841.37,1233.56c-11.5,0-20.85-4.91-20.85-10.95s9.35-10.95,20.85-10.95,20.85,4.91,20.85,10.95-9.35,10.95-20.85,10.95Z"/><path class="cls-29" d="M841.37,1212.16c11.24,0,20.35,4.68,20.35,10.45s-9.11,10.45-20.35,10.45-20.35-4.68-20.35-10.45,9.11-10.45,20.35-10.45m0-1c-11.97,0-21.35,5.03-21.35,11.45s9.38,11.45,21.35,11.45,21.35-5.03,21.35-11.45-9.38-11.45-21.35-11.45h0Z"/></g><g><g class="cls-31"><ellipse class="cls-14" cx="841.37" cy="1217.11" rx="20.35" ry="10.45"/></g><ellipse class="cls-7" cx="841.42" cy="1222.61" rx="20.35" ry="10.45"/></g></g></g></g></g><g><g><rect class="cls-15" x="717.99" y="442.86" width="11.83" height="146.77"/><g><path class="cls-15" d="M723.9,464.36h0c7.34,0,13.29-5.95,13.29-13.29l4.38-41.08c0-7.34-10.33-13.29-17.67-13.29h0c-7.34,0-17.67,5.95-17.67,13.29l4.38,41.08c0,7.34,5.95,13.29,13.29,13.29Z"/><g><circle class="cls-10" cx="723.9" cy="378.97" r="51.16"/><g><ellipse class="cls-19" cx="723.9" cy="342.66" rx="20.85" ry="10.95"/><path class="cls-29" d="M723.9,332.21c11.24,0,20.35,4.68,20.35,10.45s-9.11,10.45-20.35,10.45-20.35-4.68-20.35-10.45,9.11-10.45,20.35-10.45m0-1c-11.97,0-21.35,5.03-21.35,11.45s9.38,11.45,21.35,11.45,21.35-5.03,21.35-11.45-9.38-11.45-21.35-11.45h0Z"/></g><g><g class="cls-42"><ellipse class="cls-13" cx="723.9" cy="348.16" rx="20.35" ry="10.45"/></g><ellipse class="cls-7" cx="723.85" cy="342.66" rx="20.35" ry="10.45"/></g></g></g></g><g><rect class="cls-15" x="835.45" y="442.86" width="11.83" height="146.77"/><g><path class="cls-15" d="M841.37,464.36h0c-7.34,0-13.29-5.95-13.29-13.29l-4.38-41.08c0-7.34,10.33-13.29,17.67-13.29h0c7.34,0,17.67,5.95,17.67,13.29l-4.38,41.08c0,7.34-5.95,13.29-13.29,13.29Z"/><g><circle class="cls-10" cx="841.37" cy="378.97" r="51.16"/><g><ellipse class="cls-19" cx="841.42" cy="342.66" rx="20.85" ry="10.95"/><path class="cls-29" d="M841.42,332.21c11.24,0,20.35,4.68,20.35,10.45s-9.11,10.45-20.35,10.45-20.35-4.68-20.35-10.45,9.11-10.45,20.35-10.45m0-1c-11.97,0-21.35,5.03-21.35,11.45s9.38,11.45,21.35,11.45,21.35-5.03,21.35-11.45-9.38-11.45-21.35-11.45h0Z"/></g><g><g class="cls-3"><ellipse class="cls-13" cx="841.37" cy="348.16" rx="20.35" ry="10.45"/></g><ellipse class="cls-7" cx="841.42" cy="342.66" rx="20.35" ry="10.45"/></g></g></g></g></g><g><g><rect class="cls-15" x="717.99" y="975.64" width="11.83" height="146.77"/><g><path class="cls-15" d="M723.9,1100.91h0c7.34,0,13.29,5.95,13.29,13.29l4.38,41.08c0,7.34-10.33,13.29-17.67,13.29h0c-7.34,0-17.67-5.95-17.67-13.29l4.38-41.08c0-7.34,5.95-13.29,13.29-13.29Z"/><g><circle class="cls-10" cx="723.9" cy="1186.3" r="51.16"/><g><ellipse class="cls-19" cx="723.9" cy="1222.61" rx="20.85" ry="10.95"/><path class="cls-29" d="M723.9,1212.16c11.24,0,20.35,4.68,20.35,10.45s-9.11,10.45-20.35,10.45-20.35-4.68-20.35-10.45,9.11-10.45,20.35-10.45m0-1c-11.97,0-21.35,5.03-21.35,11.45s9.38,11.45,21.35,11.45,21.35-5.03,21.35-11.45-9.38-11.45-21.35-11.45h0Z"/></g><g><g class="cls-28"><ellipse class="cls-13" cx="723.9" cy="1217.11" rx="20.35" ry="10.45"/></g><ellipse class="cls-7" cx="723.85" cy="1222.61" rx="20.35" ry="10.45"/></g></g></g></g><g><rect class="cls-15" x="835.45" y="975.64" width="11.83" height="146.77"/><g><path class="cls-15" d="M841.37,1100.91h0c-7.34,0-13.29,5.95-13.29,13.29l-4.38,41.08c0,7.34,10.33,13.29,17.67,13.29h0c7.34,0,17.67-5.95,17.67-13.29l-4.38-41.08c0-7.34-5.95-13.29-13.29-13.29Z"/><g><circle class="cls-10" cx="841.37" cy="1186.3" r="51.16"/><g><ellipse class="cls-19" cx="841.42" cy="1222.61" rx="20.85" ry="10.95"/><path class="cls-29" d="M841.42,1212.16c11.24,0,20.35,4.68,20.35,10.45s-9.11,10.45-20.35,10.45-20.35-4.68-20.35-10.45,9.11-10.45,20.35-10.45m0-1c-11.97,0-21.35,5.03-21.35,11.45s9.38,11.45,21.35,11.45,21.35-5.03,21.35-11.45-9.38-11.45-21.35-11.45h0Z"/></g><g><g class="cls-21"><ellipse class="cls-13" cx="841.37" cy="1217.11" rx="20.35" ry="10.45"/></g><ellipse class="cls-7" cx="841.42" cy="1222.61" rx="20.35" ry="10.45"/></g></g></g></g></g></g><g><g><g><rect class="cls-15" x="442.86" y="717.99" width="146.77" height="11.83"/><g><path class="cls-15" d="M464.36,723.9h0c0,7.34-5.95,13.29-13.29,13.29l-41.08,4.38c-7.34,0-13.29-10.33-13.29-17.67h0c0-7.34,5.95-17.67,13.29-17.67l41.08,4.38c7.34,0,13.29,5.95,13.29,13.29Z"/><g><circle class="cls-9" cx="378.97" cy="723.9" r="51.16"/><g><ellipse class="cls-30" cx="342.66" cy="723.9" rx="10.95" ry="20.85"/><path class="cls-29" d="M342.66,703.55c5.77,0,10.45,9.11,10.45,20.35s-4.68,20.35-10.45,20.35-10.45-9.11-10.45-20.35,4.68-20.35,10.45-20.35m0-1c-6.42,0-11.45,9.38-11.45,21.35s5.03,21.35,11.45,21.35,11.45-9.38,11.45-21.35-5.03-21.35-11.45-21.35h0Z"/></g><g><g class="cls-38"><ellipse class="cls-14" cx="348.16" cy="723.9" rx="10.45" ry="20.35"/></g><ellipse class="cls-7" cx="342.66" cy="723.85" rx="10.45" ry="20.35"/></g></g></g></g><g><rect class="cls-15" x="442.86" y="835.45" width="146.77" height="11.83"/><g><path class="cls-15" d="M464.36,841.37h0c0-7.34-5.95-13.29-13.29-13.29l-41.08-4.38c-7.34,0-13.29,10.33-13.29,17.67h0c0,7.34,5.95,17.67,13.29,17.67l41.08-4.38c7.34,0,13.29-5.95,13.29-13.29Z"/><g><circle class="cls-9" cx="378.97" cy="841.37" r="51.16"/><g><ellipse class="cls-30" cx="342.66" cy="841.37" rx="10.95" ry="20.85"/><path class="cls-29" d="M342.66,821.01c5.77,0,10.45,9.11,10.45,20.35s-4.68,20.35-10.45,20.35-10.45-9.11-10.45-20.35,4.68-20.35,10.45-20.35m0-1c-6.42,0-11.45,9.38-11.45,21.35s5.03,21.35,11.45,21.35,11.45-9.38,11.45-21.35-5.03-21.35-11.45-21.35h0Z"/></g><g><g class="cls-22"><ellipse class="cls-14" cx="348.16" cy="841.37" rx="10.45" ry="20.35"/></g><ellipse class="cls-7" cx="342.66" cy="841.42" rx="10.45" ry="20.35"/></g></g></g></g></g><g><g><rect class="cls-15" x="975.64" y="717.99" width="146.77" height="11.83"/><g><path class="cls-15" d="M1100.91,723.9h0c0,7.34,5.95,13.29,13.29,13.29l41.08,4.38c7.34,0,13.29-10.33,13.29-17.67h0c0-7.34-5.95-17.67-13.29-17.67l-41.08,4.38c-7.34,0-13.29,5.95-13.29,13.29Z"/><g><circle class="cls-10" cx="1186.3" cy="723.9" r="51.16"/><g><ellipse class="cls-19" cx="1222.61" cy="723.9" rx="10.95" ry="20.85"/><path class="cls-29" d="M1222.61,703.55c5.77,0,10.45,9.11,10.45,20.35s-4.68,20.35-10.45,20.35-10.45-9.11-10.45-20.35,4.68-20.35,10.45-20.35m0-1c-6.42,0-11.45,9.38-11.45,21.35s5.03,21.35,11.45,21.35,11.45-9.38,11.45-21.35-5.03-21.35-11.45-21.35h0Z"/></g><g><g class="cls-4"><ellipse class="cls-13" cx="1217.11" cy="723.9" rx="10.45" ry="20.35"/></g><ellipse class="cls-7" cx="1222.61" cy="723.85" rx="10.45" ry="20.35"/></g></g></g></g><g><rect class="cls-15" x="975.64" y="835.45" width="146.77" height="11.83"/><g><path class="cls-15" d="M1100.91,841.37h0c0-7.34,5.95-13.29,13.29-13.29l41.08-4.38c7.34,0,13.29,10.33,13.29,17.67h0c0,7.34-5.95,17.67-13.29,17.67l-41.08-4.38c-7.34,0-13.29-5.95-13.29-13.29Z"/><g><circle class="cls-10" cx="1186.3" cy="841.37" r="51.16"/><g><ellipse class="cls-19" cx="1222.61" cy="841.37" rx="10.95" ry="20.85"/><path class="cls-29" d="M1222.61,821.01c5.77,0,10.45,9.11,10.45,20.35s-4.68,20.35-10.45,20.35-10.45-9.11-10.45-20.35,4.68-20.35,10.45-20.35m0-1c-6.42,0-11.45,9.38-11.45,21.35s5.03,21.35,11.45,21.35,11.45-9.38,11.45-21.35-5.03-21.35-11.45-21.35h0Z"/></g><g><g class="cls-39"><ellipse class="cls-13" cx="1217.11" cy="841.37" rx="10.45" ry="20.35"/></g><ellipse class="cls-7" cx="1222.61" cy="841.42" rx="10.45" ry="20.35"/></g></g></g></g></g><g><g><rect class="cls-15" x="442.86" y="717.79" width="146.77" height="11.83"/><g><path class="cls-15" d="M464.36,723.71h0c0,7.34-5.95,13.29-13.29,13.29l-41.08,4.38c-7.34,0-13.29-10.33-13.29-17.67h0c0-7.34,5.95-17.67,13.29-17.67l41.08,4.38c7.34,0,13.29,5.95,13.29,13.29Z"/><g><circle class="cls-10" cx="378.97" cy="723.71" r="51.16"/><g><path class="cls-19" d="M342.66,744.56c-6.04,0-10.95-9.35-10.95-20.85s4.91-20.85,10.95-20.85,10.95,9.35,10.95,20.85-4.91,20.85-10.95,20.85Z"/><path class="cls-29" d="M342.66,703.36c5.77,0,10.45,9.11,10.45,20.35s-4.68,20.35-10.45,20.35-10.45-9.11-10.45-20.35,4.68-20.35,10.45-20.35m0-1c-6.42,0-11.45,9.38-11.45,21.35s5.03,21.35,11.45,21.35,11.45-9.38,11.45-21.35-5.03-21.35-11.45-21.35h0Z"/></g><g><g class="cls-37"><ellipse class="cls-13" cx="348.16" cy="723.71" rx="10.45" ry="20.35"/></g><ellipse class="cls-7" cx="342.66" cy="723.66" rx="10.45" ry="20.35"/></g></g></g></g><g><rect class="cls-15" x="442.86" y="835.26" width="146.77" height="11.83"/><g><path class="cls-15" d="M464.36,841.17h0c0-7.34-5.95-13.29-13.29-13.29l-41.08-4.38c-7.34,0-13.29,10.33-13.29,17.67h0c0,7.34,5.95,17.67,13.29,17.67l41.08-4.38c7.34,0,13.29-5.95,13.29-13.29Z"/><g><circle class="cls-10" cx="378.97" cy="841.17" r="51.16"/><g><ellipse class="cls-19" cx="342.66" cy="841.17" rx="10.95" ry="20.85"/><path class="cls-29" d="M342.66,820.82c5.77,0,10.45,9.11,10.45,20.35s-4.68,20.35-10.45,20.35-10.45-9.11-10.45-20.35,4.68-20.35,10.45-20.35m0-1c-6.42,0-11.45,9.38-11.45,21.35s5.03,21.35,11.45,21.35,11.45-9.38,11.45-21.35-5.03-21.35-11.45-21.35h0Z"/></g><g><g class="cls-34"><ellipse class="cls-13" cx="348.16" cy="841.17" rx="10.45" ry="20.35"/></g><ellipse class="cls-7" cx="342.66" cy="841.22" rx="10.45" ry="20.35"/></g></g></g></g></g></g><polygon class="cls-8" points="879.41 771.34 793.92 771.34 793.92 685.86 771.34 685.86 771.34 771.34 685.86 771.34 685.86 793.92 771.34 793.92 771.34 879.41 793.92 879.41 793.92 793.92 879.41 793.92 879.41 771.34"/><g><g><path class="cls-15" d="M782.63,728.47h0c-14.93,0-27.03-12.1-27.03-27.03l-8.91-83.53c0-14.93,21.01-27.03,35.94-27.03h0c14.93,0,35.94,12.1,35.94,27.03l-8.91,83.53c0,14.93-12.1,27.03-27.03,27.03Z"/><g><path class="cls-43" d="M880.24,590.65c55.06,52.06-13.29,94.26-97.6,60.26-84.31,33.99-152.66-8.21-97.6-60.26-55.06-52.06,13.29-94.26,97.6-60.26,84.31-33.99,152.66,8.21,97.6,60.26Z"/><path class="cls-12" d="M880.24,590.65c55.06,52.06-13.29,94.26-97.6,60.26-84.31,33.99-152.66-8.21-97.6-60.26-55.06-52.06,13.29-94.26,97.6-60.26,84.31-33.99,152.66,8.21,97.6,60.26Z"/></g><g><path class="cls-44" d="M880.24,575.73c55.06,52.06-13.29,94.26-97.6,60.26-84.31,33.99-152.66-8.21-97.6-60.26-55.06-52.06,13.29-94.26,97.6-60.26,84.31-33.99,152.66,8.21,97.6,60.26Z"/><path class="cls-12" d="M880.24,575.73c55.06,52.06-13.29,94.26-97.6,60.26-84.31,33.99-152.66-8.21-97.6-60.26-55.06-52.06,13.29-94.26,97.6-60.26,84.31-33.99,152.66,8.21,97.6,60.26Z"/></g><ellipse class="cls-17" cx="782.63" cy="571.73" rx="50.1" ry="19.15"/></g><g><path class="cls-15" d="M782.63,836.8h0c14.93,0,27.03,12.1,27.03,27.03l8.91,83.53c0,14.93-21.01,27.03-35.94,27.03h0c-14.93,0-35.94-12.1-35.94-27.03l8.91-83.53c0-14.93,12.1-27.03,27.03-27.03Z"/><g><path class="cls-43" d="M685.03,974.62c-55.06-52.06,13.29-94.26,97.6-60.26,84.31-33.99,152.66,8.21,97.6,60.26,55.06,52.06-13.29,94.26-97.6,60.26-84.31,33.99-152.66-8.21-97.6-60.26Z"/><path class="cls-12" d="M685.03,974.62c-55.06-52.06,13.29-94.26,97.6-60.26,84.31-33.99,152.66,8.21,97.6,60.26,55.06,52.06-13.29,94.26-97.6,60.26-84.31,33.99-152.66-8.21-97.6-60.26Z"/></g><g><path class="cls-44" d="M685.03,989.54c-55.06-52.06,13.29-94.26,97.6-60.26,84.31-33.99,152.66,8.21,97.6,60.26,55.06,52.06-13.29,94.26-97.6,60.26-84.31,33.99-152.66-8.21-97.6-60.26Z"/><path class="cls-12" d="M685.03,989.54c-55.06-52.06,13.29-94.26,97.6-60.26,84.31-33.99,152.66,8.21,97.6,60.26,55.06,52.06-13.29,94.26-97.6,60.26-84.31,33.99-152.66-8.21-97.6-60.26Z"/></g><ellipse class="cls-17" cx="782.63" cy="993.54" rx="50.1" ry="19.15"/></g><g><path class="cls-15" d="M838.1,782.63h0c0-14.93,12.1-27.03,27.03-27.03l83.53-8.91c14.93,0,27.03,21.01,27.03,35.94h0c0,14.93-12.1,35.94-27.03,35.94l-83.53-8.91c-14.93,0-27.03-12.1-27.03-27.03Z"/><g><path class="cls-43" d="M975.92,880.24c-52.06,55.06-94.26-13.29-60.26-97.6-33.99-84.31,8.21-152.66,60.26-97.6,52.06-55.06,94.26,13.29,60.26,97.6,33.99,84.31-8.21,152.66-60.26,97.6Z"/><path class="cls-12" d="M975.92,880.24c-52.06,55.06-94.26-13.29-60.26-97.6-33.99-84.31,8.21-152.66,60.26-97.6,52.06-55.06,94.26,13.29,60.26,97.6,33.99,84.31-8.21,152.66-60.26,97.6Z"/></g><g><path class="cls-44" d="M990.84,880.24c-52.06,55.06-94.26-13.29-60.26-97.6-33.99-84.31,8.21-152.66,60.26-97.6,52.06-55.06,94.26,13.29,60.26,97.6,33.99,84.31-8.21,152.66-60.26,97.6Z"/><path class="cls-12" d="M990.84,880.24c-52.06,55.06-94.26-13.29-60.26-97.6-33.99-84.31,8.21-152.66,60.26-97.6,52.06-55.06,94.26,13.29,60.26,97.6,33.99,84.31-8.21,152.66-60.26,97.6Z"/></g><ellipse class="cls-17" cx="994.85" cy="782.63" rx="19.15" ry="50.1"/></g><g><path class="cls-15" d="M727.17,782.63h0c0,14.93-12.1,27.03-27.03,27.03l-83.53,8.91c-14.93,0-27.03-21.01-27.03-35.94h0c0-14.93,12.1-35.94,27.03-35.94l83.53,8.91c14.93,0,27.03,12.1,27.03,27.03Z"/><g><path class="cls-43" d="M589.35,685.03c52.06-55.06,94.26,13.29,60.26,97.6,33.99,84.31-8.21,152.66-60.26,97.6-52.06,55.06-94.26-13.29-60.26-97.6-33.99-84.31,8.21-152.66,60.26-97.6Z"/><path class="cls-12" d="M589.35,685.03c52.06-55.06,94.26,13.29,60.26,97.6,33.99,84.31-8.21,152.66-60.26,97.6-52.06,55.06-94.26-13.29-60.26-97.6-33.99-84.31,8.21-152.66,60.26-97.6Z"/></g><g><path class="cls-44" d="M574.43,685.03c52.06-55.06,94.26,13.29,60.26,97.6,33.99,84.31-8.21,152.66-60.26,97.6-52.06,55.06-94.26-13.29-60.26-97.6-33.99-84.31,8.21-152.66,60.26-97.6Z"/><path class="cls-12" d="M574.43,685.03c52.06-55.06,94.26,13.29,60.26,97.6,33.99,84.31-8.21,152.66-60.26,97.6-52.06,55.06-94.26-13.29-60.26-97.6-33.99-84.31,8.21-152.66,60.26-97.6Z"/></g><ellipse class="cls-17" cx="570.42" cy="782.63" rx="19.15" ry="50.1"/></g></g><g><g><path class="cls-33" d="M851.71,782.63c18.84,48.55-20.52,87.91-69.07,69.07-48.55,18.84-87.91-20.52-69.07-69.07-18.84-48.55,20.52-87.91,69.07-69.07,48.55-18.84,87.91,20.52,69.07,69.07Z"/><path class="cls-12" d="M851.71,782.63c18.84,48.55-20.52,87.91-69.07,69.07-48.55,18.84-87.91-20.52-69.07-69.07-18.84-48.55,20.52-87.91,69.07-69.07,48.55-18.84,87.91,20.52,69.07,69.07Z"/></g><circle class="cls-11" cx="782.63" cy="782.63" r="22.58"/></g></svg>